SplineFontDB: 1.0
FontName: THKoHo
FullName: THKoHo
FamilyName: TH KoHo
Weight: Book
Copyright: Copyright (c) 2006 by Department of Intellectual Property (DIP), Ministry of Commerce and Software Industry Promotion Agency (Public Organization) (SIPA). All rights reserved.
Version: 1.1
ItalicAngle: 0
UnderlinePosition: -35
UnderlineWidth: 30
Ascent: 800
Descent: 200
Order2: 1
XUID: [1021 375 425136265 478119]
FSType: 0
OS2Version: 3
OS2_WeightWidthSlopeOnly: 0
OS2_UseTypoMetrics: 1
CreationTime: 1158666720
ModificationTime: 1174406337
PfmFamily: 17
TTFWeight: 400
TTFWidth: 5
LineGap: 30
VLineGap: 0
Panose: 2 0 5 6 0 0 0 2 0 4
OS2TypoAscent: 0
OS2TypoAOffset: 1
OS2TypoDescent: 0
OS2TypoDOffset: 1
OS2TypoLinegap: 0
OS2WinAscent: -43
OS2WinAOffset: 1
OS2WinDescent: -196
OS2WinDOffset: 1
HheadAscent: -43
HheadAOffset: 1
HheadDescent: 196
HheadDOffset: 1
OS2SubXSize: 700
OS2SubYSize: 650
OS2SubXOff: 0
OS2SubYOff: 140
OS2SupXSize: 700
OS2SupYSize: 650
OS2SupXOff: 0
OS2SupYOff: 477
OS2StrikeYSize: 30
OS2StrikeYPos: 250
OS2FamilyClass: 773
OS2Vendor: 'IPTH'
ScriptLang: 2
 1 latn 1 dflt 
 0 
ChainSub: coverage 0 0 'liga' 0 0 0 1
 1 0 1
  Coverage: 64 uni0E48.alt2 uni0E49.alt2 uni0E4A.alt2 uni0E4B.alt2 uni0E4C.alt2
  FCoverage: 7 uni0E33
 1
  SeqLookup: 0 'L027'
EndFPST
ChainSub: coverage 0 0 'liga' 0 0 0 1
 1 1 0
  Coverage: 7 uni0E47
  BCoverage: 12 uni0E2C.alt1
 1
  SeqLookup: 0 'L026'
EndFPST
ChainSub: coverage 0 0 'liga' 0 0 0 1
 1 0 1
  Coverage: 7 uni0E2C
  FCoverage: 39 uni0E34 uni0E35 uni0E36 uni0E37 uni0E47
 1
  SeqLookup: 0 'L026'
EndFPST
ChainSub: coverage 0 0 'liga' 0 0 0 1
 1 0 1
  Coverage: 15 uni0E0E uni0E0F
  FCoverage: 38 uni0E38.alt1 uni0E39.alt1 uni0E3A.alt1
 1
  SeqLookup: 0 'L026'
EndFPST
ChainSub: coverage 0 0 'liga' 0 0 0 1
 1 1 0
  Coverage: 5 a b c
  BCoverage: 23 uni0E1B uni0E1D uni0E1F
 1
  SeqLookup: 0 'L026'
EndFPST
ChainSub: coverage 0 0 'liga' 0 0 0 1
 1 0 1
  Coverage: 5 a b c

StartChar: .notdef
Encoding: 65536 -1 0
Width: 500
Flags: W
Fore
402 35 m 1,0,-1
 402 660 l 1,1,-1
 97 660 l 1,2,-1
 97 35 l 1,3,-1
 402 35 l 1,0,-1
436 0 m 1,4,-1
 63 0 l 1,5,-1
 63 695 l 1,6,-1
 436 695 l 1,7,-1
 436 0 l 1,4,-1
EndSplineSet
EndChar
StartChar: numbersign
Encoding: 35 35 4
Width: 360
Flags: W
Fore
262 291 m 1,0,1
 259 263 259 263 255 231 c 128,-1,2
 251 199 251 199 248 170 c 1,3,-1
 317 170 l 1,4,-1
 317 149 l 1,5,-1
 245 149 l 1,6,7
 240 111 240 111 235.5 74.5 c 128,-1,8
 231 38 231 38 226 0 c 1,9,-1
 201 0 l 1,10,-1
 220 149 l 1,11,-1
 127 149 l 1,12,-1
 109 0 l 1,13,-1
 84 0 l 1,14,-1
 102 149 l 1,15,-1
 28 149 l 1,16,-1
 28 170 l 1,17,-1
 106 170 l 1,18,19
 109 199 109 199 113 231 c 128,-1,20
 117 263 117 263 120 291 c 1,21,-1
 42 291 l 1,22,-1
 42 313 l 1,23,-1
 124 313 l 1,24,25
 129 348 129 348 133.5 390 c 128,-1,26
 138 432 138 432 143 467 c 1,27,-1
 166 467 l 1,28,-1
 148 313 l 1,29,-1
 242 313 l 1,30,31
 247 348 247 348 251 390 c 128,-1,32
 255 432 255 432 259 467 c 1,33,-1
 284 467 l 1,34,-1
 266 313 l 1,35,-1
 331 313 l 1,36,-1
 331 291 l 1,37,-1
 262 291 l 1,0,1
144 291 m 1,38,39
 142 263 142 263 138 231 c 128,-1,40
 134 199 134 199 131 170 c 1,41,-1
 224 170 l 1,42,43
 227 199 227 199 231 231 c 128,-1,44
 235 263 235 263 238 291 c 1,45,-1
 144 291 l 1,38,39
EndSplineSet
EndChar
StartChar: dollar
Encoding: 36 36 5
Width: 456
Flags: W
Fore
406 126 m 0,0,1
 408 91 408 91 395.5 65 c 128,-1,2
 383 39 383 39 361 21.5 c 128,-1,3
 339 4 339 4 310 -5.5 c 128,-1,4
 281 -15 281 -15 251 -18 c 1,5,-1
 251 -95 l 1,6,-1
 220 -95 l 1,7,-1
 220 -18 l 1,8,9
 193 -17 193 -17 165.5 -11 c 128,-1,10
 138 -5 138 -5 114 7.5 c 128,-1,11
 90 20 90 20 73 40.5 c 128,-1,12
 56 61 56 61 50 90 c 1,13,-1
 83 90 l 1,14,15
 89 68 89 68 103 52.5 c 128,-1,16
 117 37 117 37 136 27 c 128,-1,17
 155 17 155 17 177 12 c 128,-1,18
 199 7 199 7 220 6 c 1,19,-1
 220 231 l 1,20,21
 191 236 191 236 164 242.5 c 128,-1,22
 137 249 137 249 115.5 261.5 c 128,-1,23
 94 274 94 274 80 295.5 c 128,-1,24
 66 317 66 317 64 351 c 256,25,26
 62 385 62 385 75 411 c 128,-1,27
 88 437 88 437 110 454 c 128,-1,28
 132 471 132 471 161 480.5 c 128,-1,29
 190 490 190 490 220 491 c 1,30,-1
 220 564 l 1,31,-1
 252 564 l 1,32,-1
 252 490 l 1,33,34
 274 488 274 488 296 481 c 128,-1,35
 318 474 318 474 336 462 c 128,-1,36
 354 450 354 450 367.5 431.5 c 128,-1,37
 381 413 381 413 386 389 c 1,38,-1
 354 389 l 1,39,40
 344 427 344 427 315.5 445.5 c 128,-1,41
 287 464 287 464 252 469 c 1,42,-1
 252 253 l 1,43,44
 280 248 280 248 307 241 c 128,-1,45
 334 234 334 234 355.5 220.5 c 128,-1,46
 377 207 377 207 390.5 184.5 c 128,-1,47
 404 162 404 162 406 126 c 0,0,1
97 351 m 0,48,49
 98 326 98 326 108.5 310 c 128,-1,50
 119 294 119 294 135.5 284 c 128,-1,51
 152 274 152 274 174 268 c 128,-1,52
 196 262 196 262 220 258 c 1,53,-1
 220 470 l 1,54,55
 168 468 168 468 131.5 438 c 128,-1,56
 95 408 95 408 97 351 c 0,48,49
251 6 m 1,57,58
 276 9 276 9 299 18 c 128,-1,59
 322 27 322 27 339.5 42 c 128,-1,60
 357 57 357 57 367 78 c 128,-1,61
 377 99 377 99 376 126 c 0,62,63
 374 152 374 152 363.5 169 c 128,-1,64
 353 186 353 186 336 197 c 128,-1,65
 319 208 319 208 297.5 214 c 128,-1,66
 276 220 276 220 252 225 c 1,67,-1
 251 6 l 1,57,58
EndSplineSet
EndChar
StartChar: percent
Encoding: 37 37 6
Width: 581
Flags: W
Fore
246 346 m 0,0,1
 246 317 246 317 238.5 292.5 c 128,-1,2
 231 268 231 268 217 249 c 128,-1,3
 203 230 203 230 184 219 c 128,-1,4
 165 208 165 208 141 208 c 0,5,6
 120 208 120 208 101 219 c 128,-1,7
 82 230 82 230 68 249 c 128,-1,8
 54 268 54 268 46.5 293 c 128,-1,9
 39 318 39 318 39 346 c 256,10,11
 39 374 39 374 47 399.5 c 128,-1,12
 55 425 55 425 69 444 c 128,-1,13
 83 463 83 463 102 473.5 c 128,-1,14
 121 484 121 484 142 484 c 0,15,16
 164 484 164 484 183 473.5 c 128,-1,17
 202 463 202 463 216 444 c 128,-1,18
 230 425 230 425 238 399.5 c 128,-1,19
 246 374 246 374 246 346 c 0,0,1
74 348 m 0,20,21
 72 328 72 328 77 308 c 128,-1,22
 82 288 82 288 91.5 272 c 128,-1,23
 101 256 101 256 114.5 246 c 128,-1,24
 128 236 128 236 142 235 c 0,25,26
 157 234 157 234 170 243.5 c 128,-1,27
 183 253 183 253 192.5 269 c 128,-1,28
 202 285 202 285 207 305.5 c 128,-1,29
 212 326 212 326 211 347 c 0,30,31
 210 367 210 367 204.5 387 c 128,-1,32
 199 407 199 407 189.5 423 c 128,-1,33
 180 439 180 439 167.5 448 c 128,-1,34
 155 457 155 457 140 456 c 0,35,36
 125 454 125 454 113 443 c 128,-1,37
 101 432 101 432 92.5 416 c 128,-1,38
 84 400 84 400 79 382 c 128,-1,39
 74 364 74 364 74 348 c 0,20,21
440 290 m 0,40,41
 462 290 462 290 481 279.5 c 128,-1,42
 500 269 500 269 514 250 c 128,-1,43
 528 231 528 231 536 205.5 c 128,-1,44
 544 180 544 180 544 152 c 0,45,46
 544 123 544 123 537 98 c 128,-1,47
 530 73 530 73 516.5 54 c 128,-1,48
 503 35 503 35 483.5 24 c 128,-1,49
 464 13 464 13 439 14 c 0,50,51
 418 14 418 14 399 25 c 128,-1,52
 380 36 380 36 366 55 c 128,-1,53
 352 74 352 74 344.5 99 c 128,-1,54
 337 124 337 124 337 152 c 256,55,56
 337 180 337 180 345 205.5 c 128,-1,57
 353 231 353 231 367 250 c 128,-1,58
 381 269 381 269 400 279.5 c 128,-1,59
 419 290 419 290 440 290 c 0,40,41
440 41 m 0,60,61
 458 41 458 41 471 51.5 c 128,-1,62
 484 62 484 62 492.5 78 c 128,-1,63
 501 94 501 94 505 114 c 128,-1,64
 509 134 509 134 508 153 c 0,65,66
 507 173 507 173 501.5 192.5 c 128,-1,67
 496 212 496 212 487 227.5 c 128,-1,68
 478 243 478 243 465.5 252.5 c 128,-1,69
 453 262 453 262 438 262 c 0,70,71
 424 262 424 262 412 252 c 128,-1,72
 400 242 400 242 391.5 226.5 c 128,-1,73
 383 211 383 211 378.5 192 c 128,-1,74
 374 173 374 173 374 154 c 0,75,76
 375 110 375 110 393 76.5 c 128,-1,77
 411 43 411 43 440 41 c 0,60,61
452 486 m 1,78,-1
 162 1 l 1,79,-1
 128 1 l 1,80,-1
 418 486 l 1,81,-1
 452 486 l 1,78,-1
EndSplineSet
EndChar
StartChar: ampersand
Encoding: 38 38 7
Width: 438
Flags: W
Fore
382 0 m 1,0,1
 362 18 362 18 352 30 c 128,-1,2
 342 42 342 42 328 55 c 1,3,4
 286 20 286 20 246.5 5.5 c 128,-1,5
 207 -9 207 -9 165 -9 c 0,6,7
 135 -9 135 -9 109 1.5 c 128,-1,8
 83 12 83 12 63.5 30.5 c 128,-1,9
 44 49 44 49 32.5 74 c 128,-1,10
 21 99 21 99 21 128 c 0,11,12
 21 182 21 182 51 215.5 c 128,-1,13
 81 249 81 249 122 269 c 1,14,15
 79 326 79 326 79 375 c 0,16,17
 79 397 79 397 86.5 418.5 c 128,-1,18
 94 440 94 440 109 456.5 c 128,-1,19
 124 473 124 473 146 483 c 128,-1,20
 168 493 168 493 197 493 c 0,21,22
 242 493 242 493 269.5 466 c 128,-1,23
 297 439 297 439 297 395 c 0,24,25
 297 354 297 354 263.5 320 c 128,-1,26
 230 286 230 286 173 260 c 1,27,28
 218 211 218 211 259 168 c 128,-1,29
 300 125 300 125 326 102 c 1,30,31
 343 125 343 125 357 158 c 128,-1,32
 371 191 371 191 382 256 c 1,33,-1
 415 256 l 1,34,35
 391 128 391 128 347 78 c 1,36,37
 368 57 368 57 388.5 36.5 c 128,-1,38
 409 16 409 16 426 0 c 1,39,-1
 382 0 l 1,0,1
266 391 m 0,40,41
 266 404 266 404 261.5 417.5 c 128,-1,42
 257 431 257 431 248 442 c 128,-1,43
 239 453 239 453 225 460 c 128,-1,44
 211 467 211 467 193 467 c 256,45,46
 175 467 175 467 159.5 459 c 128,-1,47
 144 451 144 451 133 438.5 c 128,-1,48
 122 426 122 426 116 410.5 c 128,-1,49
 110 395 110 395 110 379 c 0,50,51
 110 349 110 349 124.5 324.5 c 128,-1,52
 139 300 139 300 153 281 c 1,53,54
 175 292 175 292 195.5 303.5 c 128,-1,55
 216 315 216 315 232 328.5 c 128,-1,56
 248 342 248 342 257 357.5 c 128,-1,57
 266 373 266 373 266 391 c 0,40,41
174 21 m 0,58,59
 216 21 216 21 250 37.5 c 128,-1,60
 284 54 284 54 307 77 c 1,61,62
 299 85 299 85 282 101.5 c 128,-1,63
 265 118 265 118 242.5 140.5 c 128,-1,64
 220 163 220 163 194 190.5 c 128,-1,65
 168 218 168 218 142 248 c 1,66,67
 130 242 130 242 114.5 232 c 128,-1,68
 99 222 99 222 85.5 208 c 128,-1,69
 72 194 72 194 62.5 175.5 c 128,-1,70
 53 157 53 157 53 133 c 0,71,72
 53 108 53 108 63 87.5 c 128,-1,73
 73 67 73 67 89.5 52 c 128,-1,74
 106 37 106 37 128 29 c 128,-1,75
 150 21 150 21 174 21 c 0,58,59
EndSplineSet
EndChar
StartChar: quotesingle
Encoding: 39 39 8
Width: 130
Flags: W
Fore
78 338 m 1,0,-1
 51 338 l 1,1,-1
 41 499 l 1,2,-1
 87 499 l 1,3,-1
 78 338 l 1,0,-1
EndSplineSet
EndChar
StartChar: parenleft
Encoding: 40 40 9
Width: 194
Flags: W
Fore
166 -58 m 1,0,1
 145 -35 145 -35 125 -6 c 128,-1,2
 105 23 105 23 89.5 59.5 c 128,-1,3
 74 96 74 96 64.5 139.5 c 128,-1,4
 55 183 55 183 55 234 c 0,5,6
 55 288 55 288 64.5 331.5 c 128,-1,7
 74 375 74 375 89.5 411 c 128,-1,8
 105 447 105 447 124.5 476.5 c 128,-1,9
 144 506 144 506 165 532 c 1,10,-1
 195 532 l 1,11,12
 143 473 143 473 113 402 c 128,-1,13
 83 331 83 331 83 234 c 0,14,15
 83 186 83 186 91 145 c 128,-1,16
 99 104 99 104 114 69 c 128,-1,17
 129 34 129 34 149.5 2.5 c 128,-1,18
 170 -29 170 -29 194 -58 c 1,19,-1
 166 -58 l 1,0,1
EndSplineSet
EndChar
StartChar: parenright
Encoding: 41 41 10
Width: 194
Flags: W
Fore
139 237 m 256,0,1
 139 184 139 184 129.5 140 c 128,-1,2
 120 96 120 96 104 60 c 128,-1,3
 88 24 88 24 68.5 -5 c 128,-1,4
 49 -34 49 -34 28 -58 c 1,5,-1
 0 -58 l 1,6,7
 24 -28 24 -28 44 3.5 c 128,-1,8
 64 35 64 35 79 70.5 c 128,-1,9
 94 106 94 106 102.5 147 c 128,-1,10
 111 188 111 188 111 237 c 256,11,12
 111 286 111 286 102.5 327 c 128,-1,13
 94 368 94 368 79.5 403.5 c 128,-1,14
 65 439 65 439 44.5 470.5 c 128,-1,15
 24 502 24 502 0 532 c 1,16,-1
 28 532 l 1,17,18
 49 509 49 509 68.5 479.5 c 128,-1,19
 88 450 88 450 104 414 c 128,-1,20
 120 378 120 378 129.5 334 c 128,-1,21
 139 290 139 290 139 237 c 256,0,1
EndSplineSet
EndChar
StartChar: asterisk
Encoding: 42 42 11
Width: 288
Flags: W
Fore
278 400 m 1,0,-1
 278 349 l 1,1,-1
 177 356 l 1,2,-1
 235 279 l 1,3,-1
 192 251 l 1,4,-1
 146 336 l 1,5,-1
 107 245 l 1,6,-1
 61 268 l 1,7,-1
 115 356 l 1,8,-1
 12 349 l 1,9,-1
 12 400 l 1,10,-1
 109 394 l 1,11,-1
 49 475 l 1,12,-1
 92 502 l 1,13,-1
 142 410 l 1,14,-1
 183 505 l 1,15,-1
 228 481 l 1,16,-1
 175 393 l 1,17,-1
 278 400 l 1,18,-1
 278 400 l 1,0,-1
EndSplineSet
EndChar
StartChar: plus
Encoding: 43 43 12
Width: 429
Flags: W
Fore
231 226 m 1,0,-1
 231 50 l 1,1,-1
 196 50 l 1,2,-1
 196 226 l 1,3,-1
 28 226 l 1,4,-1
 28 259 l 1,5,-1
 196 259 l 1,6,-1
 196 433 l 1,7,-1
 231 433 l 1,8,-1
 231 259 l 1,9,-1
 399 259 l 1,10,-1
 399 226 l 1,11,-1
 231 226 l 1,0,-1
EndSplineSet
EndChar
StartChar: comma
Encoding: 44 44 13
Width: 126
Flags: W
Fore
88 56 m 0,0,1
 95 51 95 51 99.5 44 c 128,-1,2
 104 37 104 37 104 27 c 0,3,4
 104 -11 104 -11 86 -36.5 c 128,-1,5
 68 -62 68 -62 50 -74 c 1,6,-1
 27 -74 l 1,7,8
 44 -62 44 -62 58 -43.5 c 128,-1,9
 72 -25 72 -25 75 -3 c 1,10,11
 52 -14 52 -14 38 -2 c 0,12,13
 30 6 30 6 32 20.5 c 128,-1,14
 34 35 34 35 45 46 c 0,15,16
 55 56 55 56 67 58.5 c 128,-1,17
 79 61 79 61 88 56 c 0,0,1
EndSplineSet
EndChar
StartChar: hyphen
Encoding: 45 45 14
Width: 216
Flags: W
Fore
20 186 m 1,0,-1
 20 221 l 1,1,-1
 195 221 l 1,2,-1
 195 186 l 1,3,-1
 20 186 l 1,0,-1
EndSplineSet
EndChar
StartChar: period
Encoding: 46 46 15
Width: 132
Flags: W
Fore
68 68 m 1,0,1
 80 69 80 69 88.5 57.5 c 128,-1,2
 97 46 97 46 97 29 c 0,3,4
 97 13 97 13 88.5 1.5 c 128,-1,5
 80 -10 80 -10 68 -10 c 0,6,7
 55 -10 55 -10 46.5 1.5 c 128,-1,8
 38 13 38 13 39 29 c 0,9,10
 39 46 39 46 47.5 57.5 c 128,-1,11
 56 69 56 69 68 68 c 1,0,1
EndSplineSet
EndChar
StartChar: slash
Encoding: 47 47 16
Width: 269
Flags: W
Fore
18 -29 m 1,0,-1
 -14 -29 l 1,1,-1
 241 493 l 1,2,-1
 272 493 l 1,3,-1
 18 -29 l 1,4,-1
 18 -29 l 1,0,-1
EndSplineSet
EndChar
StartChar: zero
Encoding: 48 48 17
Width: 476
Flags: W
Fore
363 428 m 0,0,1
 383 399 383 399 393.5 364 c 128,-1,2
 404 329 404 329 407 278 c 0,3,4
 409 238 409 238 408 204.5 c 128,-1,5
 407 171 407 171 399 139 c 0,6,7
 390 101 390 101 372.5 74 c 128,-1,8
 355 47 355 47 333.5 29.5 c 128,-1,9
 312 12 312 12 288.5 4.5 c 128,-1,10
 265 -3 265 -3 246 -2 c 0,11,12
 212 -1 212 -1 181.5 12.5 c 128,-1,13
 151 26 151 26 127 51 c 128,-1,14
 103 76 103 76 88 112.5 c 128,-1,15
 73 149 73 149 71 197 c 0,16,17
 69 244 69 244 71.5 283 c 128,-1,18
 74 322 74 322 83 354 c 0,19,20
 102 420 102 420 140 453 c 0,21,22
 157 468 157 468 180 478.5 c 128,-1,23
 203 489 203 489 236 490 c 0,24,25
 286 489 286 489 314 475 c 128,-1,26
 342 461 342 461 363 428 c 0,0,1
377 167 m 0,27,28
 380 196 380 196 380 223 c 128,-1,29
 380 250 380 250 378 282 c 0,30,31
 375 335 375 335 360 379 c 0,32,33
 351 401 351 401 340.5 418.5 c 128,-1,34
 330 436 330 436 315.5 448 c 128,-1,35
 301 460 301 460 282 465.5 c 128,-1,36
 263 471 263 471 237 470 c 0,37,38
 206 470 206 470 183 456.5 c 128,-1,39
 160 443 160 443 143.5 421 c 128,-1,40
 127 399 127 399 117 371.5 c 128,-1,41
 107 344 107 344 103 316 c 0,42,43
 99 289 99 289 97.5 260 c 128,-1,44
 96 231 96 231 98 199 c 0,45,46
 100 162 100 162 109 129.5 c 128,-1,47
 118 97 118 97 136 72.5 c 128,-1,48
 154 48 154 48 181.5 33.5 c 128,-1,49
 209 19 209 19 247 18 c 0,50,51
 276 17 276 17 299 31 c 128,-1,52
 322 45 322 45 338.5 67 c 128,-1,53
 355 89 355 89 364.5 115.5 c 128,-1,54
 374 142 374 142 377 167 c 0,27,28
EndSplineSet
EndChar
StartChar: one
Encoding: 49 49 18
Width: 476
Flags: W
Fore
229 446 m 1,0,-1
 185 420 l 1,1,-1
 185 446 l 1,2,-1
 236 475 l 1,3,-1
 262 475 l 1,4,-1
 262 0 l 1,5,-1
 228 0 l 1,6,-1
 229 446 l 1,7,-1
 229 446 l 1,0,-1
EndSplineSet
EndChar
StartChar: two
Encoding: 50 50 19
Width: 476
Flags: W
Fore
76 24 m 1,0,1
 90 39 90 39 113 61.5 c 128,-1,2
 136 84 136 84 168 114 c 0,3,4
 200 146 200 146 227 172 c 128,-1,5
 254 198 254 198 275 221 c 0,6,7
 297 244 297 244 312.5 267.5 c 128,-1,8
 328 291 328 291 344 312 c 0,9,10
 358 334 358 334 363.5 352 c 128,-1,11
 369 370 369 370 369 385 c 0,12,13
 369 409 369 409 357 427 c 0,14,15
 350 437 350 437 342 444 c 128,-1,16
 334 451 334 451 319 457 c 0,17,18
 304 462 304 462 284 462.5 c 128,-1,19
 264 463 264 463 241 463 c 0,20,21
 210 463 210 463 171 440.5 c 128,-1,22
 132 418 132 418 97 390 c 1,23,-1
 97 419 l 1,24,25
 142 455 142 455 177.5 470.5 c 128,-1,26
 213 486 213 486 245 486 c 0,27,28
 276 486 276 486 297 483.5 c 128,-1,29
 318 481 318 481 336 472 c 0,30,31
 354 464 354 464 365 453.5 c 128,-1,32
 376 443 376 443 383 432 c 0,33,34
 391 421 391 421 393.5 409 c 128,-1,35
 396 397 396 397 396 386 c 0,36,37
 396 371 396 371 393 354.5 c 128,-1,38
 390 338 390 338 378 318 c 0,39,40
 367 299 367 299 352 276.5 c 128,-1,41
 337 254 337 254 319 234 c 0,42,43
 299 212 299 212 278 189.5 c 128,-1,44
 257 167 257 167 231 141 c 0,45,46
 205 116 205 116 174.5 86 c 128,-1,47
 144 56 144 56 106 20 c 1,48,49
 138 20 138 20 156 19.5 c 128,-1,50
 174 19 174 19 200 21 c 0,51,52
 259 23 259 23 309 22.5 c 128,-1,53
 359 22 359 22 385 23 c 1,54,-1
 384 -1 l 1,55,-1
 75 -1 l 1,56,-1
 76 24 l 1,0,1
EndSplineSet
EndChar
StartChar: three
Encoding: 51 51 20
Width: 476
Flags: W
Fore
160 262 m 1,0,1
 174 261 174 261 182 261 c 128,-1,2
 190 261 190 261 194 261 c 0,3,4
 248 262 248 262 285 281 c 0,5,6
 321 298 321 298 336 324 c 0,7,8
 344 337 344 337 347.5 344.5 c 128,-1,9
 351 352 351 352 350 366 c 0,10,11
 349 419 349 419 311 439 c 0,12,13
 275 461 275 461 214 459 c 0,14,15
 182 457 182 457 159 451 c 128,-1,16
 136 445 136 445 108 436 c 1,17,-1
 110 461 l 1,18,19
 145 468 145 468 166.5 473 c 128,-1,20
 188 478 188 478 210 479 c 0,21,22
 265 481 265 481 301 469 c 0,23,24
 320 462 320 462 335 453 c 128,-1,25
 350 444 350 444 360 433 c 0,26,27
 380 407 380 407 381 379 c 0,28,29
 383 323 383 323 353.5 295.5 c 128,-1,30
 324 268 324 268 264 256 c 1,31,-1
 264 254 l 1,32,33
 324 255 324 255 359 228 c 0,34,35
 395 200 395 200 397 146 c 0,36,37
 397 113 397 113 386 90 c 0,38,39
 373 63 373 63 349 43 c 0,40,41
 337 34 337 34 321.5 25.5 c 128,-1,42
 306 17 306 17 287 10 c 0,43,44
 267 4 267 4 251.5 1.5 c 128,-1,45
 236 -1 236 -1 212 -3 c 0,46,47
 204 -3 204 -3 190 -1.5 c 128,-1,48
 176 0 176 0 159.5 2.5 c 128,-1,49
 143 5 143 5 127 8.5 c 128,-1,50
 111 12 111 12 101 17 c 1,51,-1
 97 40 l 1,52,53
 114 34 114 34 128 29.5 c 128,-1,54
 142 25 142 25 156 22 c 128,-1,55
 170 19 170 19 184.5 18 c 128,-1,56
 199 17 199 17 217 18 c 0,57,58
 238 18 238 18 251.5 22 c 128,-1,59
 265 26 265 26 284 33 c 0,60,61
 322 48 322 48 345 76 c 0,62,63
 368 100 368 100 366 140 c 0,64,65
 364 202 364 202 322 221 c 0,66,67
 279 243 279 243 206 241 c 1,68,69
 201 240 201 240 195 240 c 128,-1,70
 189 240 189 240 181 239 c 0,71,72
 174 238 174 238 168.5 238 c 128,-1,73
 163 238 163 238 160 238 c 1,74,-1
 160 262 l 1,75,-1
 160 262 l 1,0,1
EndSplineSet
EndChar
StartChar: four
Encoding: 52 52 21
Width: 476
Flags: W
Fore
399 134 m 1,0,-1
 337 134 l 1,1,2
 337 130 337 130 337 117 c 128,-1,3
 337 104 337 104 337 85.5 c 128,-1,4
 337 67 337 67 337.5 45 c 128,-1,5
 338 23 338 23 338 2 c 1,6,-1
 306 1 l 1,7,8
 306 39 306 39 306 58 c 128,-1,9
 306 77 306 77 306 88.5 c 128,-1,10
 306 100 306 100 306 108.5 c 128,-1,11
 306 117 306 117 306 134 c 1,12,-1
 86 134 l 1,13,-1
 86 161 l 1,14,15
 141 245 141 245 195 327 c 128,-1,16
 249 409 249 409 292 479 c 1,17,-1
 338 479 l 1,18,19
 338 440 338 440 337.5 392 c 128,-1,20
 337 344 337 344 337 298 c 128,-1,21
 337 252 337 252 337 213.5 c 128,-1,22
 337 175 337 175 337 155 c 1,23,-1
 399 155 l 1,24,-1
 399 134 l 1,0,-1
305 155 m 1,25,26
 304 188 304 188 304.5 227.5 c 128,-1,27
 305 267 305 267 305.5 307.5 c 128,-1,28
 306 348 306 348 306.5 386.5 c 128,-1,29
 307 425 307 425 306 455 c 1,30,-1
 111 155 l 1,31,-1
 305 155 l 1,25,26
EndSplineSet
EndChar
StartChar: five
Encoding: 53 53 22
Width: 476
Flags: W
Fore
396 479 m 1,0,-1
 396 454 l 1,1,2
 313 460 313 460 219 460 c 2,3,-1
 155 460 l 1,4,-1
 132 268 l 1,5,6
 164 272 164 272 187.5 274 c 128,-1,7
 211 276 211 276 228 276 c 0,8,9
 319 276 319 276 361 243 c 256,10,11
 403 210 403 210 403 157 c 0,12,13
 403 107 403 107 374 70 c 0,14,15
 345 31 345 31 296 13 c 0,16,17
 271 2 271 2 244.5 -2 c 128,-1,18
 218 -6 218 -6 189 -6 c 0,19,20
 142 -6 142 -6 87 6 c 1,21,-1
 82 31 l 1,22,23
 112 23 112 23 139 19 c 128,-1,24
 166 15 166 15 192 15 c 0,25,26
 268 15 268 15 321 53 c 0,27,28
 373 90 373 90 373 157 c 0,29,30
 373 202 373 202 334 229 c 0,31,32
 294 255 294 255 215 255 c 0,33,34
 156 255 156 255 101 246 c 1,35,-1
 127 479 l 1,36,-1
 396 479 l 1,0,-1
EndSplineSet
EndChar
StartChar: six
Encoding: 54 54 23
Width: 476
Flags: W
Fore
395 212 m 0,0,1
 402 197 402 197 406 180.5 c 128,-1,2
 410 164 410 164 410 146 c 0,3,4
 410 125 410 125 404.5 107 c 128,-1,5
 399 89 399 89 390 72 c 0,6,7
 370 36 370 36 332 17 c 0,8,9
 295 -3 295 -3 244 -3 c 0,10,11
 200 -3 200 -3 164 9 c 0,12,13
 124 23 124 23 99 52 c 0,14,15
 73 84 73 84 73 134 c 0,16,17
 73 149 73 149 74.5 165 c 128,-1,18
 76 181 76 181 81 198 c 0,19,20
 89 230 89 230 110 273 c 0,21,22
 119 293 119 293 133 316 c 128,-1,23
 147 339 147 339 166 365 c 0,24,25
 183 391 183 391 205.5 420.5 c 128,-1,26
 228 450 228 450 256 483 c 1,27,-1
 296 483 l 1,28,29
 203 384 203 384 154 293 c 0,30,31
 147 281 147 281 141 269 c 128,-1,32
 135 257 135 257 130 246 c 1,33,34
 150 258 150 258 183 269.5 c 128,-1,35
 216 281 216 281 254 280 c 0,36,37
 280 280 280 280 305 274 c 128,-1,38
 330 268 330 268 347 259 c 0,39,40
 378 244 378 244 395 212 c 0,0,1
365 84 m 0,41,42
 381 116 381 116 381 150 c 0,43,44
 381 197 381 197 351 227 c 0,45,46
 337 243 337 243 312.5 249.5 c 128,-1,47
 288 256 288 256 256 255 c 0,48,49
 221 254 221 254 181 239.5 c 128,-1,50
 141 225 141 225 113 197 c 1,51,52
 104 165 104 165 104 138 c 0,53,54
 104 101 104 101 122 73 c 0,55,56
 140 46 140 46 170 31 c 0,57,58
 200 17 200 17 237 17 c 0,59,60
 261 17 261 17 281 22 c 128,-1,61
 301 27 301 27 317 35 c 0,62,63
 333 45 333 45 345 57 c 128,-1,64
 357 69 357 69 365 84 c 0,41,42
EndSplineSet
EndChar
StartChar: seven
Encoding: 55 55 24
Width: 476
Flags: W
Fore
367 457 m 1,0,1
 301 457 301 457 236 454.5 c 128,-1,2
 171 452 171 452 96 454 c 1,3,-1
 96 478 l 1,4,-1
 393 478 l 1,5,-1
 392 451 l 1,6,7
 364 397 364 397 334 340 c 128,-1,8
 304 283 304 283 274.5 225.5 c 128,-1,9
 245 168 245 168 216 110.5 c 128,-1,10
 187 53 187 53 162 -1 c 1,11,-1
 129 -1 l 1,12,13
 184 105 184 105 244 218 c 128,-1,14
 304 331 304 331 367 457 c 1,0,1
EndSplineSet
EndChar
StartChar: eight
Encoding: 56 56 25
Width: 476
Flags: W
Fore
414 137 m 256,0,1
 416 96 416 96 396 64 c 0,2,3
 382 47 382 47 369 37.5 c 128,-1,4
 356 28 356 28 336 18 c 0,5,6
 316 10 316 10 293 4.5 c 128,-1,7
 270 -1 270 -1 243 -1 c 0,8,9
 242 -1 242 -1 241 -2 c 1,10,11
 214 -2 214 -2 191 1.5 c 128,-1,12
 168 5 168 5 148 13 c 256,13,14
 128 21 128 21 114 31.5 c 128,-1,15
 100 42 100 42 89 56 c 0,16,17
 69 84 69 84 67 119 c 0,18,19
 61 221 61 221 177 248 c 1,20,21
 154 253 154 253 138 263 c 128,-1,22
 122 273 122 273 108 287 c 0,23,24
 86 313 86 313 83 352 c 0,25,26
 82 383 82 383 94 408.5 c 128,-1,27
 106 434 106 434 127 452.5 c 128,-1,28
 148 471 148 471 176 480.5 c 128,-1,29
 204 490 204 490 234 490 c 2,30,-1
 243 490 l 2,31,32
 269 491 269 491 295.5 484 c 128,-1,33
 322 477 322 477 343.5 462.5 c 128,-1,34
 365 448 365 448 379 426.5 c 128,-1,35
 393 405 393 405 395 377 c 0,36,37
 397 327 397 327 375 299.5 c 128,-1,38
 353 272 353 272 307 250 c 1,39,40
 358 239 358 239 385 208.5 c 128,-1,41
 412 178 412 178 414 137 c 256,0,1
149 282 m 0,42,43
 181 256 181 256 234 258 c 2,44,-1
 238 258 l 2,45,46
 277 260 277 260 305 272 c 0,47,48
 334 288 334 288 351 313.5 c 128,-1,49
 368 339 368 339 366 373 c 0,50,51
 361 422 361 422 326 447 c 128,-1,52
 291 472 291 472 239 470 c 2,53,-1
 234 470 l 2,54,55
 181 467 181 467 146.5 437.5 c 128,-1,56
 112 408 112 408 115 352 c 0,57,58
 116 309 116 309 149 282 c 0,42,43
369 80 m 0,59,60
 377 94 377 94 381 107 c 128,-1,61
 385 120 385 120 384 137 c 0,62,63
 382 164 382 164 370 183.5 c 128,-1,64
 358 203 358 203 338.5 215 c 128,-1,65
 319 227 319 227 294 232.5 c 128,-1,66
 269 238 269 238 242 237 c 2,67,-1
 239 237 l 2,68,69
 216 237 216 237 196.5 233 c 128,-1,70
 177 229 177 229 160 222 c 0,71,72
 144 214 144 214 131.5 204.5 c 128,-1,73
 119 195 119 195 111 182 c 0,74,75
 104 169 104 169 100 155 c 128,-1,76
 96 141 96 141 98 124 c 0,77,78
 99 99 99 99 110 79.5 c 128,-1,79
 121 60 121 60 141 46 c 0,80,81
 181 18 181 18 243 18 c 2,82,-1
 246 18 l 2,83,84
 266 19 266 19 284.5 23.5 c 128,-1,85
 303 28 303 28 319 36 c 0,86,87
 351 52 351 52 369 80 c 0,59,60
EndSplineSet
EndChar
StartChar: nine
Encoding: 57 57 26
Width: 476
Flags: W
Fore
88 270 m 0,0,1
 81 285 81 285 77 301 c 128,-1,2
 73 317 73 317 73 335 c 0,3,4
 73 356 73 356 78.5 374.5 c 128,-1,5
 84 393 84 393 93 410 c 0,6,7
 115 447 115 447 152 465 c 0,8,9
 189 485 189 485 240 485 c 0,10,11
 282 485 282 485 320 473 c 0,12,13
 360 459 360 459 385 430 c 0,14,15
 411 398 411 398 411 347 c 0,16,17
 411 332 411 332 409.5 316 c 128,-1,18
 408 300 408 300 403 284 c 0,19,20
 395 252 395 252 374 209 c 0,21,22
 365 188 365 188 351 165 c 128,-1,23
 337 142 337 142 318 116 c 0,24,25
 301 91 301 91 278 61.5 c 128,-1,26
 255 32 255 32 228 -1 c 1,27,-1
 188 -1 l 1,28,29
 278 95 278 95 330 188 c 0,30,31
 337 201 337 201 343 212.5 c 128,-1,32
 349 224 349 224 354 235 c 1,33,34
 334 223 334 223 301 212 c 128,-1,35
 268 201 268 201 230 201 c 0,36,37
 204 202 204 202 179 208 c 128,-1,38
 154 214 154 214 137 223 c 0,39,40
 105 239 105 239 88 270 c 0,0,1
119 397 m 0,41,42
 103 367 103 367 103 332 c 0,43,44
 103 284 103 284 133 254 c 0,45,46
 147 238 147 238 171.5 231.5 c 128,-1,47
 196 225 196 225 228 226 c 0,48,49
 263 228 263 228 303 242 c 128,-1,50
 343 256 343 256 370 284 c 1,51,52
 380 315 380 315 380 344 c 0,53,54
 380 381 380 381 362 408 c 256,55,56
 344 435 344 435 314 450 c 0,57,58
 283 464 283 464 247 464 c 0,59,60
 223 464 223 464 203 459 c 128,-1,61
 183 454 183 454 167 446 c 0,62,63
 151 436 151 436 139 424 c 128,-1,64
 127 412 127 412 119 397 c 0,41,42
EndSplineSet
EndChar
StartChar: colon
Encoding: 58 58 27
Width: 137
Flags: W
Fore
70 80 m 1,0,1
 82 81 82 81 90.5 69.5 c 128,-1,2
 99 58 99 58 99 41 c 0,3,4
 99 25 99 25 90.5 13.5 c 128,-1,5
 82 2 82 2 70 2 c 0,6,7
 57 2 57 2 48.5 13.5 c 128,-1,8
 40 25 40 25 41 41 c 0,9,10
 41 58 41 58 49.5 69.5 c 128,-1,11
 58 81 58 81 70 80 c 1,0,1
70 338 m 1,12,13
 82 339 82 339 90.5 327.5 c 128,-1,14
 99 316 99 316 99 299 c 0,15,16
 99 283 99 283 90.5 271.5 c 128,-1,17
 82 260 82 260 70 260 c 0,18,19
 57 260 57 260 48.5 271.5 c 128,-1,20
 40 283 40 283 41 299 c 0,21,22
 41 316 41 316 49.5 327.5 c 128,-1,23
 58 339 58 339 70 338 c 1,12,13
EndSplineSet
EndChar
StartChar: semicolon
Encoding: 59 59 28
Width: 139
Flags: W
Fore
88 56 m 0,0,1
 95 51 95 51 99.5 44 c 128,-1,2
 104 37 104 37 104 27 c 0,3,4
 104 -11 104 -11 86 -36.5 c 128,-1,5
 68 -62 68 -62 50 -74 c 1,6,-1
 27 -74 l 1,7,8
 44 -62 44 -62 58 -43.5 c 128,-1,9
 72 -25 72 -25 75 -3 c 1,10,11
 52 -14 52 -14 38 -2 c 0,12,13
 30 6 30 6 32 20.5 c 128,-1,14
 34 35 34 35 45 46 c 0,15,16
 55 56 55 56 67 58.5 c 128,-1,17
 79 61 79 61 88 56 c 0,0,1
70 338 m 1,18,19
 82 339 82 339 90.5 327.5 c 128,-1,20
 99 316 99 316 99 299 c 0,21,22
 99 283 99 283 90.5 271.5 c 128,-1,23
 82 260 82 260 70 260 c 0,24,25
 57 260 57 260 48.5 271.5 c 128,-1,26
 40 283 40 283 41 299 c 0,27,28
 41 316 41 316 49.5 327.5 c 128,-1,29
 58 339 58 339 70 338 c 1,18,19
EndSplineSet
EndChar
StartChar: less
Encoding: 60 60 29
Width: 353
Flags: W
Fore
318 -5 m 1,0,1
 292 30 292 30 257.5 61.5 c 128,-1,2
 223 93 223 93 184.5 118.5 c 128,-1,3
 146 144 146 144 107 162.5 c 128,-1,4
 68 181 68 181 34 191 c 1,5,6
 68 203 68 203 106 222 c 128,-1,7
 144 241 144 241 181.5 266.5 c 128,-1,8
 219 292 219 292 254 323 c 128,-1,9
 289 354 289 354 318 391 c 1,10,-1
 318 352 l 1,11,12
 296 329 296 329 269 305 c 128,-1,13
 242 281 242 281 212 259.5 c 128,-1,14
 182 238 182 238 151 220.5 c 128,-1,15
 120 203 120 203 90 193 c 1,16,17
 119 184 119 184 150 167.5 c 128,-1,18
 181 151 181 151 211 129.5 c 128,-1,19
 241 108 241 108 268.5 83 c 128,-1,20
 296 58 296 58 318 33 c 1,21,-1
 318 -5 l 1,0,1
EndSplineSet
EndChar
StartChar: equal
Encoding: 61 61 30
Width: 429
Flags: W
Fore
28 236 m 1,0,-1
 28 268 l 1,1,-1
 399 268 l 1,2,-1
 399 236 l 1,3,-1
 28 236 l 1,0,-1
28 123 m 1,4,-1
 28 155 l 1,5,-1
 399 155 l 1,6,-1
 399 123 l 1,7,-1
 28 123 l 1,4,-1
EndSplineSet
EndChar
StartChar: greater
Encoding: 62 62 31
Width: 365
Flags: W
Fore
51 389 m 1,0,1
 76 354 76 354 111 322.5 c 128,-1,2
 146 291 146 291 184.5 265.5 c 128,-1,3
 223 240 223 240 262 221.5 c 128,-1,4
 301 203 301 203 335 193 c 1,5,6
 301 181 301 181 263 162 c 128,-1,7
 225 143 225 143 187.5 117.5 c 128,-1,8
 150 92 150 92 114.5 61 c 128,-1,9
 79 30 79 30 51 -7 c 1,10,-1
 51 32 l 1,11,12
 73 55 73 55 100 79 c 128,-1,13
 127 103 127 103 157 124.5 c 128,-1,14
 187 146 187 146 218 163.5 c 128,-1,15
 249 181 249 181 279 191 c 1,16,17
 250 200 250 200 219 216.5 c 128,-1,18
 188 233 188 233 158 254.5 c 128,-1,19
 128 276 128 276 100.5 300.5 c 128,-1,20
 73 325 73 325 51 351 c 1,21,-1
 51 389 l 1,0,1
EndSplineSet
EndChar
StartChar: question
Encoding: 63 63 32
Width: 326
Flags: W
Fore
138 366 m 0,0,1
 129 334 129 334 108 315 c 128,-1,2
 87 296 87 296 65 302 c 256,3,4
 43 308 43 308 34 335 c 128,-1,5
 25 362 25 362 33 395 c 0,6,7
 39 412 39 412 50 430 c 0,8,9
 64 453 64 453 87.5 469.5 c 128,-1,10
 111 486 111 486 137 491 c 0,11,12
 185 502 185 502 222 483.5 c 128,-1,13
 259 465 259 465 277 431 c 128,-1,14
 295 397 295 397 290.5 355.5 c 128,-1,15
 286 314 286 314 250 278 c 0,16,17
 247 275 247 275 236 267.5 c 128,-1,18
 225 260 225 260 212.5 249 c 128,-1,19
 200 238 200 238 188.5 225 c 128,-1,20
 177 212 177 212 172 198 c 0,21,22
 166 182 166 182 164 169 c 128,-1,23
 162 156 162 156 161 145 c 0,24,25
 160 133 160 133 161 123 c 1,26,-1
 135 124 l 1,27,28
 133 134 133 134 134 146 c 0,29,30
 135 157 135 157 137 172 c 128,-1,31
 139 187 139 187 146 207 c 0,32,33
 151 221 151 221 162.5 235.5 c 128,-1,34
 174 250 174 250 188 262 c 0,35,36
 203 276 203 276 222 290 c 0,37,38
 250 315 250 315 258 347.5 c 128,-1,39
 266 380 266 380 257 408.5 c 128,-1,40
 248 437 248 437 222 455 c 128,-1,41
 196 473 196 473 157 469 c 0,42,43
 137 467 137 467 114 455 c 1,44,45
 131 446 131 446 138.5 421 c 128,-1,46
 146 396 146 396 138 366 c 0,0,1
57 388 m 0,47,48
 55 379 55 379 54 368 c 128,-1,49
 53 357 53 357 54.5 347 c 128,-1,50
 56 337 56 337 59.5 329 c 128,-1,51
 63 321 63 321 70 319 c 256,52,53
 77 317 77 317 84 321.5 c 128,-1,54
 91 326 91 326 97 334.5 c 128,-1,55
 103 343 103 343 107.5 353 c 128,-1,56
 112 363 112 363 114 372 c 0,57,58
 117 381 117 381 118 392 c 128,-1,59
 119 403 119 403 117.5 413.5 c 128,-1,60
 116 424 116 424 112 431.5 c 128,-1,61
 108 439 108 439 101 442 c 0,62,63
 94 444 94 444 87 439 c 128,-1,64
 80 434 80 434 74.5 425.5 c 128,-1,65
 69 417 69 417 64.5 407 c 128,-1,66
 60 397 60 397 57 388 c 0,47,48
148 80 m 1,67,68
 160 81 160 81 168.5 69.5 c 128,-1,69
 177 58 177 58 177 41 c 0,70,71
 177 25 177 25 168.5 13.5 c 128,-1,72
 160 2 160 2 148 2 c 0,73,74
 135 2 135 2 126.5 13.5 c 128,-1,75
 118 25 118 25 119 41 c 0,76,77
 119 58 119 58 127.5 69.5 c 128,-1,78
 136 81 136 81 148 80 c 1,67,68
EndSplineSet
EndChar
StartChar: at
Encoding: 64 64 33
Width: 604
Flags: W
Fore
322 162 m 0,0,1
 329 163 329 163 339 167 c 128,-1,2
 349 171 349 171 358.5 177 c 128,-1,3
 368 183 368 183 374.5 190 c 128,-1,4
 381 197 381 197 381 206 c 0,5,6
 381 217 381 217 374.5 230 c 128,-1,7
 368 243 368 243 355 252 c 0,8,9
 341 262 341 262 320.5 265.5 c 128,-1,10
 300 269 300 269 277.5 267 c 128,-1,11
 255 265 255 265 232.5 258.5 c 128,-1,12
 210 252 210 252 192 243 c 1,13,-1
 197 268 l 1,14,15
 237 288 237 288 285 288.5 c 128,-1,16
 333 289 333 289 369 272 c 0,17,18
 387 264 387 264 398 246 c 128,-1,19
 409 228 409 228 409 205 c 2,20,-1
 409 63 l 2,21,22
 409 55 409 55 410 43.5 c 128,-1,23
 411 32 411 32 414 26 c 1,24,25
 433 27 433 27 453 38.5 c 128,-1,26
 473 50 473 50 488.5 69.5 c 128,-1,27
 504 89 504 89 514.5 115 c 128,-1,28
 525 141 525 141 525 171 c 0,29,30
 525 213 525 213 510.5 250 c 128,-1,31
 496 287 496 287 468.5 314.5 c 128,-1,32
 441 342 441 342 403 357.5 c 128,-1,33
 365 373 365 373 319 373 c 256,34,35
 273 373 273 373 229.5 355.5 c 128,-1,36
 186 338 186 338 152.5 306.5 c 128,-1,37
 119 275 119 275 99 230.5 c 128,-1,38
 79 186 79 186 79 131 c 0,39,40
 79 86 79 86 96.5 48 c 128,-1,41
 114 10 114 10 142.5 -18.5 c 128,-1,42
 171 -47 171 -47 208.5 -63 c 128,-1,43
 246 -79 246 -79 287 -79 c 0,44,45
 322 -79 322 -79 352.5 -72.5 c 128,-1,46
 383 -66 383 -66 407 -51 c 1,47,-1
 421 -71 l 1,48,49
 389 -89 389 -89 355 -96.5 c 128,-1,50
 321 -104 321 -104 285 -104 c 0,51,52
 238 -104 238 -104 196 -87 c 128,-1,53
 154 -70 154 -70 122.5 -39.5 c 128,-1,54
 91 -9 91 -9 72.5 34 c 128,-1,55
 54 77 54 77 54 128 c 0,56,57
 54 181 54 181 72.5 229.5 c 128,-1,58
 91 278 91 278 125.5 315.5 c 128,-1,59
 160 353 160 353 210 375 c 128,-1,60
 260 397 260 397 324 397 c 0,61,62
 376 397 376 397 417.5 380 c 128,-1,63
 459 363 459 363 488.5 333 c 128,-1,64
 518 303 518 303 534 262.5 c 128,-1,65
 550 222 550 222 550 175 c 0,66,67
 550 138 550 138 537.5 107 c 128,-1,68
 525 76 525 76 505.5 53 c 128,-1,69
 486 30 486 30 462 17 c 128,-1,70
 438 4 438 4 415 4 c 1,71,-1
 409 5 l 1,72,73
 398 9 398 9 391.5 18.5 c 128,-1,74
 385 28 385 28 383 39 c 1,75,76
 376 33 376 33 362.5 25 c 128,-1,77
 349 17 349 17 331.5 11 c 128,-1,78
 314 5 314 5 292.5 2 c 128,-1,79
 271 -1 271 -1 248 4 c 0,80,81
 218 10 218 10 200.5 28 c 128,-1,82
 183 46 183 46 183 78 c 0,83,84
 183 105 183 105 197 120 c 128,-1,85
 211 135 211 135 231.5 142.5 c 128,-1,86
 252 150 252 150 276.5 153.5 c 128,-1,87
 301 157 301 157 322 162 c 0,0,1
383 171 m 1,88,89
 368 160 368 160 353.5 153 c 128,-1,90
 339 146 339 146 322 143 c 0,91,92
 304 140 304 140 284 136 c 128,-1,93
 264 132 264 132 247 125 c 128,-1,94
 230 118 230 118 218.5 107 c 128,-1,95
 207 96 207 96 207 78 c 0,96,97
 207 57 207 57 220.5 42 c 128,-1,98
 234 27 234 27 254 25 c 0,99,100
 281 21 281 21 301 24 c 128,-1,101
 321 27 321 27 336 34 c 128,-1,102
 351 41 351 41 362 49.5 c 128,-1,103
 373 58 373 58 383 66 c 1,104,-1
 383 171 l 1,88,89
EndSplineSet
EndChar
StartChar: A
Encoding: 65 65 34
Width: 443
Flags: W
Fore
336 156 m 1,0,-1
 105 156 l 1,1,-1
 64 0 l 1,2,-1
 33 0 l 1,3,-1
 126 371 l 2,4,5
 133 395 133 395 139.5 416.5 c 128,-1,6
 146 438 146 438 156 455 c 128,-1,7
 166 472 166 472 181 482 c 128,-1,8
 196 492 196 492 220 494 c 1,9,10
 245 492 245 492 260.5 481 c 128,-1,11
 276 470 276 470 286 452.5 c 128,-1,12
 296 435 296 435 302.5 413.5 c 128,-1,13
 309 392 309 392 315 371 c 2,14,-1
 408 0 l 1,15,-1
 377 0 l 1,16,-1
 336 156 l 1,0,-1
329 183 m 1,17,-1
 285 354 l 2,18,19
 277 386 277 386 271.5 402 c 128,-1,20
 266 418 266 418 261 430 c 0,21,22
 252 450 252 450 240 457.5 c 128,-1,23
 228 465 228 465 216 463.5 c 128,-1,24
 204 462 204 462 194 452.5 c 128,-1,25
 184 443 184 443 179 428 c 0,26,27
 171 408 171 408 166.5 391.5 c 128,-1,28
 162 375 162 375 156 354 c 2,29,-1
 112 183 l 1,30,-1
 329 183 l 1,17,-1
EndSplineSet
EndChar
StartChar: B
Encoding: 66 66 35
Width: 450
Flags: W
Fore
277 291 m 1,0,1
 295 287 295 287 317.5 277.5 c 128,-1,2
 340 268 340 268 359.5 251 c 128,-1,3
 379 234 379 234 392 208 c 128,-1,4
 405 182 405 182 404 145 c 0,5,6
 404 99 404 99 387.5 70.5 c 128,-1,7
 371 42 371 42 347 26.5 c 128,-1,8
 323 11 323 11 295 5.5 c 128,-1,9
 267 0 267 0 244 0 c 2,10,-1
 70 0 l 1,11,-1
 70 485 l 1,12,-1
 252 485 l 2,13,14
 279 485 279 485 295 477.5 c 128,-1,15
 311 470 311 470 325 456 c 0,16,17
 351 430 351 430 351 388 c 0,18,19
 351 357 351 357 330 328 c 0,20,21
 311 301 311 301 277 291 c 1,0,1
251 26 m 2,22,23
 271 26 271 26 292.5 31.5 c 128,-1,24
 314 37 314 37 331.5 50.5 c 128,-1,25
 349 64 349 64 360.5 88 c 128,-1,26
 372 112 372 112 372 148 c 0,27,28
 372 178 372 178 359 201.5 c 128,-1,29
 346 225 346 225 326.5 241.5 c 128,-1,30
 307 258 307 258 284 267 c 128,-1,31
 261 276 261 276 242 278 c 2,32,-1
 192 278 l 1,33,-1
 192 306 l 1,34,-1
 242 306 l 2,35,36
 257 306 257 306 271 312.5 c 128,-1,37
 285 319 285 319 296.5 330.5 c 128,-1,38
 308 342 308 342 315 356.5 c 128,-1,39
 322 371 322 371 322 386 c 0,40,41
 322 417 322 417 302 439 c 128,-1,42
 282 461 282 461 251 460 c 2,43,-1
 100 460 l 1,44,45
 100 413 100 413 100 355.5 c 128,-1,46
 100 298 100 298 100.5 239.5 c 128,-1,47
 101 181 101 181 101 125.5 c 128,-1,48
 101 70 101 70 101 26 c 1,49,-1
 251 26 l 2,22,23
EndSplineSet
EndChar
StartChar: C
Encoding: 67 67 36
Width: 431
Flags: W
Fore
151 38 m 256,0,1
 171 26 171 26 203 21 c 128,-1,2
 235 16 235 16 267.5 20 c 128,-1,3
 300 24 300 24 327 38 c 128,-1,4
 354 52 354 52 365 78 c 1,5,-1
 392 67 l 1,6,7
 377 36 377 36 343 19 c 128,-1,8
 309 2 309 2 269.5 -3.5 c 128,-1,9
 230 -9 230 -9 191 -3 c 128,-1,10
 152 3 152 3 127 18 c 0,11,12
 104 32 104 32 87 52.5 c 128,-1,13
 70 73 70 73 70 99 c 2,14,-1
 70 387 l 2,15,16
 70 413 70 413 87 433.5 c 128,-1,17
 104 454 104 454 127 467 c 0,18,19
 152 482 152 482 191 488 c 128,-1,20
 230 494 230 494 269.5 489 c 128,-1,21
 309 484 309 484 343 467 c 128,-1,22
 377 450 377 450 392 419 c 1,23,-1
 365 408 l 1,24,25
 354 434 354 434 327 448 c 128,-1,26
 300 462 300 462 267.5 466 c 128,-1,27
 235 470 235 470 203 465 c 128,-1,28
 171 460 171 460 151 448 c 0,29,30
 131 435 131 435 116.5 415.5 c 128,-1,31
 102 396 102 396 102 374 c 2,32,-1
 102 242 l 1,33,-1
 102 112 l 2,34,35
 102 89 102 89 116.5 69.5 c 128,-1,36
 131 50 131 50 151 38 c 256,0,1
EndSplineSet
EndChar
StartChar: D
Encoding: 68 68 37
Width: 456
Flags: W
Fore
71 204 m 1,0,-1
 71 245 l 1,1,-1
 71 285 l 1,2,-1
 71 489 l 1,3,4
 141 489 141 489 201.5 482 c 128,-1,5
 262 475 262 475 306 449.5 c 128,-1,6
 350 424 350 424 375 375.5 c 128,-1,7
 400 327 400 327 401 245 c 0,8,9
 400 180 400 180 387 136.5 c 128,-1,10
 374 93 374 93 351 65.5 c 128,-1,11
 328 38 328 38 297 24.5 c 128,-1,12
 266 11 266 11 229.5 5.5 c 128,-1,13
 193 0 193 0 152.5 0 c 128,-1,14
 112 0 112 0 71 0 c 1,15,-1
 71 204 l 1,0,-1
371 245 m 0,16,17
 371 302 371 302 356 344 c 128,-1,18
 341 386 341 386 309 413 c 128,-1,19
 277 440 277 440 225.5 452.5 c 128,-1,20
 174 465 174 465 101 464 c 1,21,-1
 101 245 l 1,22,-1
 101 25 l 1,23,24
 179 22 179 22 231 33 c 128,-1,25
 283 44 283 44 314.5 70.5 c 128,-1,26
 346 97 346 97 358.5 140.5 c 128,-1,27
 371 184 371 184 371 245 c 0,16,17
EndSplineSet
EndChar
StartChar: E
Encoding: 69 69 38
Width: 438
Flags: W
Fore
246 460 m 1,0,1
 218 460 218 460 191.5 454 c 128,-1,2
 165 448 165 448 145 431.5 c 128,-1,3
 125 415 125 415 113 385.5 c 128,-1,4
 101 356 101 356 102 308 c 2,5,-1
 102 246 l 1,6,-1
 308 246 l 1,7,-1
 308 219 l 1,8,-1
 102 219 l 1,9,-1
 102 174 l 2,10,11
 101 126 101 126 113 96.5 c 128,-1,12
 125 67 125 67 145 50.5 c 128,-1,13
 165 34 165 34 191.5 27.5 c 128,-1,14
 218 21 218 21 246 21 c 2,15,-1
 384 21 l 1,16,-1
 384 -4 l 1,17,-1
 248 -4 l 2,18,19
 210 -3 210 -3 177.5 3 c 128,-1,20
 145 9 145 9 121 27.5 c 128,-1,21
 97 46 97 46 83.5 81 c 128,-1,22
 70 116 70 116 70 175 c 2,23,-1
 70 307 l 2,24,25
 70 366 70 366 83.5 401 c 128,-1,26
 97 436 97 436 121 454.5 c 128,-1,27
 145 473 145 473 177.5 479 c 128,-1,28
 210 485 210 485 248 486 c 2,29,-1
 384 486 l 1,30,-1
 384 460 l 1,31,-1
 246 460 l 1,32,-1
 246 460 l 1,0,1
EndSplineSet
EndChar
StartChar: F
Encoding: 70 70 39
Width: 428
Flags: W
Fore
247 462 m 1,0,1
 219 462 219 462 192.5 456 c 128,-1,2
 166 450 166 450 145.5 433.5 c 128,-1,3
 125 417 125 417 113.5 387.5 c 128,-1,4
 102 358 102 358 103 310 c 2,5,-1
 103 248 l 1,6,-1
 308 248 l 1,7,-1
 308 221 l 1,8,-1
 103 221 l 1,9,-1
 102 -1 l 1,10,-1
 71 -1 l 1,11,-1
 71 309 l 2,12,13
 71 368 71 368 84.5 403 c 128,-1,14
 98 438 98 438 122 456.5 c 128,-1,15
 146 475 146 475 178.5 481 c 128,-1,16
 211 487 211 487 248 488 c 2,17,-1
 385 488 l 1,18,-1
 385 462 l 1,19,-1
 247 462 l 1,20,-1
 247 462 l 1,0,1
EndSplineSet
EndChar
StartChar: G
Encoding: 71 71 40
Width: 470
Flags: W
Fore
292 271 m 1,0,1
 356 271 356 271 391 241 c 128,-1,2
 426 211 426 211 425 144 c 0,3,4
 424 98 424 98 407.5 69 c 128,-1,5
 391 40 391 40 367 23.5 c 128,-1,6
 343 7 343 7 315.5 1 c 128,-1,7
 288 -5 288 -5 265 -5 c 0,8,9
 259 -5 259 -5 256 -4.5 c 128,-1,10
 253 -4 253 -4 251 -4 c 2,11,-1
 249 -4 l 2,12,13
 212 -3 212 -3 179.5 3 c 128,-1,14
 147 9 147 9 123 27.5 c 128,-1,15
 99 46 99 46 85 81 c 128,-1,16
 71 116 71 116 71 175 c 2,17,-1
 71 386 l 2,18,19
 71 412 71 412 88.5 432.5 c 128,-1,20
 106 453 106 453 129 466 c 0,21,22
 154 481 154 481 193.5 487 c 128,-1,23
 233 493 233 493 273.5 488 c 128,-1,24
 314 483 314 483 348.5 466 c 128,-1,25
 383 449 383 449 398 418 c 1,26,-1
 370 407 l 1,27,28
 359 433 359 433 331 447 c 128,-1,29
 303 461 303 461 270 465 c 128,-1,30
 237 469 237 469 205 464 c 128,-1,31
 173 459 173 459 153 447 c 0,32,33
 132 434 132 434 117.5 414.5 c 128,-1,34
 103 395 103 395 103 373 c 0,35,36
 103 356 103 356 103 337.5 c 128,-1,37
 103 319 103 319 103 296 c 128,-1,38
 103 273 103 273 103 243.5 c 128,-1,39
 103 214 103 214 103 174 c 0,40,41
 102 126 102 126 114 96.5 c 128,-1,42
 126 67 126 67 146 50.5 c 128,-1,43
 166 34 166 34 192.5 28 c 128,-1,44
 219 22 219 22 248 22 c 2,45,-1
 272 22 l 2,46,47
 291 22 291 22 312.5 28 c 128,-1,48
 334 34 334 34 351.5 48.5 c 128,-1,49
 369 63 369 63 380.5 87 c 128,-1,50
 392 111 392 111 392 148 c 0,51,52
 392 178 392 178 383.5 196 c 128,-1,53
 375 214 375 214 361 224.5 c 128,-1,54
 347 235 347 235 329 238.5 c 128,-1,55
 311 242 311 242 292 244 c 1,56,-1
 292 271 l 1,57,-1
 292 271 l 1,0,1
EndSplineSet
EndChar
StartChar: H
Encoding: 72 72 41
Width: 449
Flags: W
Fore
353 487 m 1,0,-1
 385 487 l 1,1,-1
 385 -2 l 1,2,-1
 353 -2 l 1,3,-1
 353 220 l 1,4,-1
 102 220 l 1,5,-1
 102 -2 l 1,6,-1
 70 -2 l 1,7,-1
 70 487 l 1,8,-1
 102 487 l 1,9,-1
 102 247 l 1,10,-1
 353 247 l 1,11,-1
 353 487 l 1,12,-1
 353 487 l 1,0,-1
EndSplineSet
EndChar
StartChar: I
Encoding: 73 73 42
Width: 146
Flags: W
Fore
88 489 m 1,0,-1
 87 0 l 1,1,-1
 56 0 l 1,2,-1
 56 489 l 1,3,-1
 88 489 l 1,4,-1
 88 489 l 1,0,-1
EndSplineSet
EndChar
StartChar: J
Encoding: 74 74 43
Width: 335
Flags: W
Fore
81 99 m 1,0,1
 83 71 83 71 96 52 c 128,-1,2
 109 33 109 33 127 24.5 c 128,-1,3
 145 16 145 16 165 17.5 c 128,-1,4
 185 19 185 19 201.5 30.5 c 128,-1,5
 218 42 218 42 229 63.5 c 128,-1,6
 240 85 240 85 240 117 c 2,7,-1
 240 484 l 1,8,-1
 272 484 l 1,9,10
 272 445 272 445 272 395 c 128,-1,11
 272 345 272 345 272 292.5 c 128,-1,12
 272 240 272 240 272 190 c 128,-1,13
 272 140 272 140 272 101 c 0,14,15
 272 66 272 66 255.5 41.5 c 128,-1,16
 239 17 239 17 214.5 4.5 c 128,-1,17
 190 -8 190 -8 161 -8.5 c 128,-1,18
 132 -9 132 -9 107.5 2.5 c 128,-1,19
 83 14 83 14 66.5 37.5 c 128,-1,20
 50 61 50 61 50 97 c 2,21,-1
 50 99 l 1,22,-1
 81 99 l 1,0,1
EndSplineSet
EndChar
StartChar: K
Encoding: 75 75 44
Width: 467
Flags: W
Fore
238 331 m 1,0,1
 270 328 270 328 299.5 318.5 c 128,-1,2
 329 309 329 309 352 289 c 128,-1,3
 375 269 375 269 389 236.5 c 128,-1,4
 403 204 403 204 403 155 c 2,5,-1
 403 -1 l 1,6,-1
 371 -1 l 1,7,-1
 372 153 l 2,8,9
 373 197 373 197 358.5 225.5 c 128,-1,10
 344 254 344 254 320.5 271 c 128,-1,11
 297 288 297 288 268 295.5 c 128,-1,12
 239 303 239 303 211 305 c 1,13,-1
 103 198 l 1,14,-1
 103 0 l 1,15,-1
 71 0 l 1,16,-1
 71 488 l 1,17,-1
 103 488 l 1,18,-1
 103 245 l 1,19,-1
 352 486 l 1,20,-1
 395 486 l 1,21,-1
 238 331 l 1,22,-1
 238 331 l 1,0,1
EndSplineSet
EndChar
StartChar: L
Encoding: 76 76 45
Width: 420
Flags: W
Fore
385 -1 m 1,0,1
 380 -1 380 -1 359.5 -1 c 128,-1,2
 339 -1 339 -1 316 -1 c 128,-1,3
 293 -1 293 -1 273 -0.5 c 128,-1,4
 253 0 253 0 248 0 c 0,5,6
 210 1 210 1 177.5 7 c 128,-1,7
 145 13 145 13 121 31.5 c 128,-1,8
 97 50 97 50 83.5 85 c 128,-1,9
 70 120 70 120 70 179 c 2,10,-1
 70 488 l 1,11,-1
 102 488 l 1,12,-1
 102 177 l 2,13,14
 101 129 101 129 113 99.5 c 128,-1,15
 125 70 125 70 145 53.5 c 128,-1,16
 165 37 165 37 191.5 31 c 128,-1,17
 218 25 218 25 246 25 c 2,18,-1
 385 25 l 1,19,-1
 385 -1 l 1,0,1
EndSplineSet
EndChar
StartChar: M
Encoding: 77 77 46
Width: 570
Flags: W
Fore
100 487 m 1,0,1
 121 477 121 477 146.5 459 c 128,-1,2
 172 441 172 441 198 418.5 c 128,-1,3
 224 396 224 396 248 369.5 c 128,-1,4
 272 343 272 343 289 317 c 1,5,6
 309 347 309 347 333.5 374 c 128,-1,7
 358 401 358 401 383 423 c 128,-1,8
 408 445 408 445 431.5 461.5 c 128,-1,9
 455 478 455 478 473 487 c 1,10,-1
 507 487 l 1,11,-1
 507 0 l 1,12,-1
 477 0 l 1,13,-1
 477 456 l 1,14,15
 467 453 467 453 451 441 c 128,-1,16
 435 429 435 429 416 412 c 128,-1,17
 397 395 397 395 376.5 375 c 128,-1,18
 356 355 356 355 338.5 334.5 c 128,-1,19
 321 314 321 314 307 295.5 c 128,-1,20
 293 277 293 277 288 264 c 1,21,22
 270 297 270 297 245.5 328 c 128,-1,23
 221 359 221 359 194.5 384.5 c 128,-1,24
 168 410 168 410 143 428.5 c 128,-1,25
 118 447 118 447 99 455 c 1,26,27
 99 441 99 441 99 406.5 c 128,-1,28
 99 372 99 372 99 326.5 c 128,-1,29
 99 281 99 281 99.5 230.5 c 128,-1,30
 100 180 100 180 100 133.5 c 128,-1,31
 100 87 100 87 100 51 c 128,-1,32
 100 15 100 15 100 0 c 1,33,-1
 70 0 l 1,34,-1
 70 487 l 1,35,-1
 100 487 l 1,0,1
EndSplineSet
EndChar
StartChar: N
Encoding: 78 78 47
Width: 492
Flags: W
Fore
397 487 m 1,0,-1
 428 487 l 1,1,-1
 428 91 l 2,2,3
 428 39 428 39 407 17.5 c 128,-1,4
 386 -4 386 -4 358 -5 c 1,5,6
 354 2 354 2 334.5 34 c 128,-1,7
 315 66 315 66 288.5 109.5 c 128,-1,8
 262 153 262 153 231 203 c 128,-1,9
 200 253 200 253 173.5 297 c 128,-1,10
 147 341 147 341 128 372.5 c 128,-1,11
 109 404 109 404 106 411 c 1,12,-1
 105 0 l 1,13,-1
 70 0 l 1,14,-1
 70 487 l 1,15,-1
 100 487 l 1,16,-1
 375 33 l 1,17,18
 390 37 390 37 393.5 54 c 128,-1,19
 397 71 397 71 397 102 c 2,20,-1
 397 487 l 1,0,-1
EndSplineSet
EndChar
StartChar: O
Encoding: 79 79 48
Width: 481
Flags: W
Fore
70 369 m 2,0,1
 70 411 70 411 95.5 439.5 c 128,-1,2
 121 468 121 468 159.5 482.5 c 128,-1,3
 198 497 198 497 243 496.5 c 128,-1,4
 288 496 288 496 326.5 482 c 128,-1,5
 365 468 365 468 390.5 439.5 c 128,-1,6
 416 411 416 411 416 369 c 2,7,-1
 416 117 l 2,8,9
 416 74 416 74 390.5 46 c 128,-1,10
 365 18 365 18 326.5 4 c 128,-1,11
 288 -10 288 -10 243 -10.5 c 128,-1,12
 198 -11 198 -11 159.5 3.5 c 128,-1,13
 121 18 121 18 95.5 46.5 c 128,-1,14
 70 75 70 75 70 117 c 2,15,-1
 70 369 l 2,0,1
101 355 m 2,16,-1
 101 130 l 2,17,18
 101 91 101 91 122 65.5 c 128,-1,19
 143 40 143 40 174.5 27 c 128,-1,20
 206 14 206 14 242.5 14.5 c 128,-1,21
 279 15 279 15 310.5 27.5 c 128,-1,22
 342 40 342 40 363 66 c 128,-1,23
 384 92 384 92 384 130 c 2,24,-1
 384 355 l 2,25,26
 384 394 384 394 363 419.5 c 128,-1,27
 342 445 342 445 310.5 458 c 128,-1,28
 279 471 279 471 242.5 471 c 128,-1,29
 206 471 206 471 174.5 458 c 128,-1,30
 143 445 143 445 122 419 c 128,-1,31
 101 393 101 393 101 355 c 2,16,-1
EndSplineSet
EndChar
StartChar: P
Encoding: 80 80 49
Width: 456
Flags: W
Fore
70 0 m 1,0,-1
 70 485 l 1,1,-1
 245 485 l 2,2,3
 268 485 268 485 295 477 c 128,-1,4
 322 469 322 469 345 450.5 c 128,-1,5
 368 432 368 432 384 401.5 c 128,-1,6
 400 371 400 371 401 325 c 0,7,8
 401 295 401 295 389.5 270 c 128,-1,9
 378 245 378 245 357 226.5 c 128,-1,10
 336 208 336 208 306.5 197.5 c 128,-1,11
 277 187 277 187 242 187 c 2,12,-1
 101 187 l 1,13,14
 101 136 101 136 100.5 86.5 c 128,-1,15
 100 37 100 37 100 0 c 1,16,-1
 70 0 l 1,0,-1
242 214 m 2,17,18
 264 216 264 216 286.5 222 c 128,-1,19
 309 228 309 228 328 240 c 128,-1,20
 347 252 347 252 359 272 c 128,-1,21
 371 292 371 292 371 322 c 0,22,23
 371 358 371 358 359 384 c 128,-1,24
 347 410 347 410 329 426.5 c 128,-1,25
 311 443 311 443 289 451 c 128,-1,26
 267 459 267 459 248 459 c 2,27,-1
 101 459 l 1,28,-1
 101 214 l 1,29,-1
 242 214 l 2,17,18
EndSplineSet
EndChar
StartChar: Q
Encoding: 81 81 50
Width: 481
Flags: W
Fore
418 -69 m 1,0,1
 401 -69 401 -69 382.5 -66.5 c 128,-1,2
 364 -64 364 -64 345 -57 c 128,-1,3
 326 -50 326 -50 309.5 -38 c 128,-1,4
 293 -26 293 -26 281 -7 c 1,5,6
 245 -12 245 -12 207.5 -7 c 128,-1,7
 170 -2 170 -2 139.5 14 c 128,-1,8
 109 30 109 30 90 56 c 128,-1,9
 71 82 71 82 71 118 c 2,10,-1
 71 370 l 2,11,12
 71 412 71 412 96.5 440.5 c 128,-1,13
 122 469 122 469 161 483 c 128,-1,14
 200 497 200 497 244.5 497 c 128,-1,15
 289 497 289 497 328 483 c 128,-1,16
 367 469 367 469 392.5 440.5 c 128,-1,17
 418 412 418 412 418 370 c 2,18,-1
 418 118 l 2,19,20
 418 72 418 72 388 42.5 c 128,-1,21
 358 13 358 13 314 0 c 1,22,23
 333 -25 333 -25 360 -34 c 128,-1,24
 387 -43 387 -43 413 -42 c 2,25,-1
 418 -42 l 1,26,-1
 418 -69 l 1,0,1
103 131 m 2,27,28
 103 92 103 92 124 66.5 c 128,-1,29
 145 41 145 41 176.5 28 c 128,-1,30
 208 15 208 15 244.5 15.5 c 128,-1,31
 281 16 281 16 312.5 28.5 c 128,-1,32
 344 41 344 41 365 67 c 128,-1,33
 386 93 386 93 386 131 c 2,34,-1
 386 356 l 2,35,36
 386 395 386 395 365 420.5 c 128,-1,37
 344 446 344 446 312.5 459 c 128,-1,38
 281 472 281 472 244.5 472 c 128,-1,39
 208 472 208 472 176.5 459 c 128,-1,40
 145 446 145 446 124 420 c 128,-1,41
 103 394 103 394 103 356 c 2,42,-1
 103 131 l 2,27,28
EndSplineSet
EndChar
StartChar: R
Encoding: 82 82 51
Width: 438
Flags: W
Fore
288 243 m 1,0,1
 328 228 328 228 355 191.5 c 128,-1,2
 382 155 382 155 382 84 c 2,3,-1
 382 -2 l 1,4,-1
 350 -2 l 1,5,-1
 351 82 l 2,6,7
 352 132 352 132 333.5 161.5 c 128,-1,8
 315 191 315 191 287 206.5 c 128,-1,9
 259 222 259 222 225.5 227.5 c 128,-1,10
 192 233 192 233 163 234 c 2,11,-1
 101 234 l 1,12,-1
 101 -1 l 1,13,-1
 70 -1 l 1,14,-1
 70 484 l 1,15,-1
 219 484 l 2,16,17
 242 484 242 484 269.5 480 c 128,-1,18
 297 476 297 476 320 462.5 c 128,-1,19
 343 449 343 449 359 422.5 c 128,-1,20
 375 396 375 396 375 350 c 0,21,22
 376 307 376 307 352.5 280.5 c 128,-1,23
 329 254 329 254 288 243 c 1,0,1
102 458 m 1,24,25
 102 432 102 432 102 411 c 128,-1,26
 102 390 102 390 102 368 c 128,-1,27
 102 346 102 346 101.5 320.5 c 128,-1,28
 101 295 101 295 101 261 c 1,29,-1
 217 261 l 2,30,31
 239 263 239 263 261.5 265.5 c 128,-1,32
 284 268 284 268 303 276 c 128,-1,33
 322 284 322 284 334 300.5 c 128,-1,34
 346 317 346 317 346 347 c 0,35,36
 346 383 346 383 334 405 c 128,-1,37
 322 427 322 427 304 439 c 128,-1,38
 286 451 286 451 264 454.5 c 128,-1,39
 242 458 242 458 222 458 c 2,40,-1
 102 458 l 1,24,25
EndSplineSet
EndChar
StartChar: S
Encoding: 83 83 52
Width: 474
Flags: W
Fore
382 134 m 0,0,1
 379 174 379 174 356 193.5 c 128,-1,2
 333 213 333 213 299 223 c 128,-1,3
 265 233 265 233 226 238.5 c 128,-1,4
 187 244 187 244 153 255.5 c 128,-1,5
 119 267 119 267 95.5 290 c 128,-1,6
 72 313 72 313 70 359 c 0,7,8
 68 394 68 394 82 420.5 c 128,-1,9
 96 447 96 447 120 464.5 c 128,-1,10
 144 482 144 482 174 490.5 c 128,-1,11
 204 499 204 499 236 499 c 0,12,13
 261 499 261 499 286.5 493 c 128,-1,14
 312 487 312 487 333.5 475 c 128,-1,15
 355 463 355 463 370.5 443.5 c 128,-1,16
 386 424 386 424 392 397 c 1,17,-1
 360 397 l 1,18,19
 354 419 354 419 341.5 434.5 c 128,-1,20
 329 450 329 450 311.5 459.5 c 128,-1,21
 294 469 294 469 273.5 473.5 c 128,-1,22
 253 478 253 478 232 478 c 0,23,24
 205 478 205 478 181 470 c 128,-1,25
 157 462 157 462 139.5 447 c 128,-1,26
 122 432 122 432 112 410 c 128,-1,27
 102 388 102 388 103 359 c 0,28,29
 105 320 105 320 128 302 c 128,-1,30
 151 284 151 284 184.5 275 c 128,-1,31
 218 266 218 266 257 261 c 128,-1,32
 296 256 296 256 330 244 c 128,-1,33
 364 232 364 232 387 207 c 128,-1,34
 410 182 410 182 412 134 c 0,35,36
 414 96 414 96 398.5 68.5 c 128,-1,37
 383 41 383 41 357.5 23.5 c 128,-1,38
 332 6 332 6 299.5 -2.5 c 128,-1,39
 267 -11 267 -11 234 -11 c 0,40,41
 206 -11 206 -11 177 -5.5 c 128,-1,42
 148 0 148 0 123.5 13 c 128,-1,43
 99 26 99 26 80.5 47 c 128,-1,44
 62 68 62 68 56 98 c 1,45,-1
 89 98 l 1,46,47
 95 74 95 74 111 57.5 c 128,-1,48
 127 41 127 41 147.5 31.5 c 128,-1,49
 168 22 168 22 191.5 17.5 c 128,-1,50
 215 13 215 13 238 13 c 0,51,52
 265 13 265 13 291.5 20.5 c 128,-1,53
 318 28 318 28 338.5 43.5 c 128,-1,54
 359 59 359 59 371 81.5 c 128,-1,55
 383 104 383 104 382 134 c 0,0,1
EndSplineSet
EndChar
StartChar: T
Encoding: 84 84 53
Width: 470
Flags: W
Fore
416 487 m 1,0,-1
 416 455 l 1,1,-1
 250 456 l 1,2,-1
 250 0 l 1,3,-1
 218 0 l 1,4,-1
 218 456 l 1,5,-1
 54 456 l 1,6,-1
 54 487 l 1,7,-1
 218 487 l 1,8,-1
 218 487 l 1,9,-1
 251 487 l 1,10,-1
 251 487 l 1,11,-1
 416 487 l 1,12,-1
 416 487 l 1,0,-1
EndSplineSet
EndChar
StartChar: U
Encoding: 85 85 54
Width: 481
Flags: W
Fore
418 487 m 1,0,-1
 418 118 l 2,1,2
 418 75 418 75 392.5 47 c 128,-1,3
 367 19 367 19 328 4.5 c 128,-1,4
 289 -10 289 -10 244.5 -10 c 128,-1,5
 200 -10 200 -10 161 4 c 128,-1,6
 122 18 122 18 96.5 46.5 c 128,-1,7
 71 75 71 75 71 118 c 2,8,-1
 71 487 l 1,9,-1
 103 487 l 1,10,-1
 103 131 l 2,11,12
 103 92 103 92 124 66.5 c 128,-1,13
 145 41 145 41 176.5 28 c 128,-1,14
 208 15 208 15 244.5 15.5 c 128,-1,15
 281 16 281 16 312.5 28.5 c 128,-1,16
 344 41 344 41 365 67 c 128,-1,17
 386 93 386 93 386 131 c 2,18,-1
 386 486 l 1,19,-1
 418 487 l 1,0,-1
EndSplineSet
EndChar
StartChar: V
Encoding: 86 86 55
Width: 467
Flags: W
Fore
330 116 m 2,0,1
 326 96 326 96 320 75 c 128,-1,2
 314 54 314 54 303.5 36.5 c 128,-1,3
 293 19 293 19 277 6.5 c 128,-1,4
 261 -6 261 -6 236 -7 c 0,5,6
 212 -6 212 -6 195.5 5 c 128,-1,7
 179 16 179 16 168.5 33 c 128,-1,8
 158 50 158 50 152 71.5 c 128,-1,9
 146 93 146 93 141 116 c 2,10,-1
 48 487 l 1,11,-1
 79 487 l 1,12,-1
 172 133 l 2,13,14
 177 112 177 112 182 95.5 c 128,-1,15
 187 79 187 79 195 59 c 0,16,17
 201 44 201 44 211.5 35.5 c 128,-1,18
 222 27 222 27 234 26 c 128,-1,19
 246 25 246 25 257.5 32 c 128,-1,20
 269 39 269 39 276 57 c 0,21,22
 285 77 285 77 289.5 93.5 c 128,-1,23
 294 110 294 110 300 133 c 2,24,-1
 392 487 l 1,25,-1
 423 487 l 1,26,-1
 330 116 l 2,0,1
EndSplineSet
EndChar
StartChar: W
Encoding: 87 87 56
Width: 595
Flags: W
Fore
131 -1 m 1,0,-1
 50 485 l 1,1,-1
 80 485 l 1,2,-1
 160 41 l 1,3,4
 194 75 194 75 215.5 120.5 c 128,-1,5
 237 166 237 166 251.5 213.5 c 128,-1,6
 266 261 266 261 275 306 c 128,-1,7
 284 351 284 351 294 386 c 1,8,9
 307 352 307 352 322.5 298 c 128,-1,10
 338 244 338 244 355 190.5 c 128,-1,11
 372 137 372 137 389.5 94.5 c 128,-1,12
 407 52 407 52 425 42 c 1,13,14
 434 89 434 89 446 146.5 c 128,-1,15
 458 204 458 204 470 263.5 c 128,-1,16
 482 323 482 323 493.5 380.5 c 128,-1,17
 505 438 505 438 513 485 c 1,18,-1
 544 485 l 1,19,-1
 455 -1 l 1,20,-1
 426 -1 l 1,21,22
 405 8 405 8 384.5 40.5 c 128,-1,23
 364 73 364 73 346.5 117 c 128,-1,24
 329 161 329 161 315.5 209.5 c 128,-1,25
 302 258 302 258 296 298 c 1,26,27
 293 251 293 251 279 202 c 128,-1,28
 265 153 265 153 245.5 111.5 c 128,-1,29
 226 70 226 70 203.5 39.5 c 128,-1,30
 181 9 181 9 160 -1 c 1,31,-1
 131 -1 l 1,0,-1
EndSplineSet
EndChar
StartChar: X
Encoding: 88 88 57
Width: 536
Flags: W
Fore
479 -1 m 1,0,-1
 437 0 l 1,1,-1
 268 218 l 1,2,-1
 100 0 l 1,3,-1
 58 -1 l 1,4,-1
 247 245 l 1,5,-1
 59 488 l 1,6,-1
 101 488 l 1,7,-1
 268 272 l 1,8,-1
 435 488 l 1,9,-1
 477 488 l 1,10,-1
 289 245 l 1,11,-1
 479 -1 l 1,12,-1
 479 -1 l 1,0,-1
EndSplineSet
EndChar
StartChar: Y
Encoding: 89 89 58
Width: 463
Flags: W
Fore
417 485 m 1,0,1
 384 425 384 425 346 357 c 128,-1,2
 308 289 308 289 274 232 c 0,3,4
 262 212 262 212 245 202 c 1,5,-1
 245 -2 l 1,6,-1
 213 -2 l 1,7,-1
 213 201 l 1,8,9
 201 207 201 207 193.5 218.5 c 128,-1,10
 186 230 186 230 182 235 c 0,11,12
 165 260 165 260 147 292 c 128,-1,13
 129 324 129 324 110.5 357.5 c 128,-1,14
 92 391 92 391 74.5 424 c 128,-1,15
 57 457 57 457 42 485 c 1,16,-1
 78 485 l 1,17,18
 93 457 93 457 109.5 427 c 128,-1,19
 126 397 126 397 143 366.5 c 128,-1,20
 160 336 160 336 176 306.5 c 128,-1,21
 192 277 192 277 206 252 c 0,22,23
 219 229 219 229 226.5 228 c 128,-1,24
 234 227 234 227 247 248 c 0,25,26
 279 302 279 302 315 365 c 128,-1,27
 351 428 351 428 383 485 c 1,28,-1
 417 485 l 1,0,1
EndSplineSet
EndChar
StartChar: Z
Encoding: 90 90 59
Width: 513
Flags: W
Fore
446 33 m 1,0,-1
 446 -1 l 1,1,-1
 157 -1 l 2,2,3
 131 -1 131 -1 113 6.5 c 128,-1,4
 95 14 95 14 83.5 25.5 c 128,-1,5
 72 37 72 37 66.5 51.5 c 128,-1,6
 61 66 61 66 61 80 c 1,7,8
 65 84 65 84 81 101.5 c 128,-1,9
 97 119 97 119 120 144.5 c 128,-1,10
 143 170 143 170 171.5 202 c 128,-1,11
 200 234 200 234 229.5 267 c 128,-1,12
 259 300 259 300 287.5 332 c 128,-1,13
 316 364 316 364 339 389.5 c 128,-1,14
 362 415 362 415 377 432.5 c 128,-1,15
 392 450 392 450 396 454 c 1,16,-1
 67 455 l 1,17,-1
 67 486 l 1,18,-1
 446 486 l 1,19,-1
 446 456 l 1,20,-1
 104 72 l 1,21,22
 109 57 109 57 123 45 c 128,-1,23
 137 33 137 33 168 33 c 2,24,-1
 446 33 l 1,0,-1
EndSplineSet
EndChar
StartChar: bracketleft
Encoding: 91 91 60
Width: 195
Flags: W
Fore
70 -80 m 1,0,-1
 70 493 l 1,1,-1
 196 493 l 1,2,-1
 196 473 l 1,3,-1
 96 473 l 1,4,-1
 96 -59 l 1,5,-1
 196 -59 l 1,6,-1
 196 -80 l 1,7,-1
 70 -80 l 1,8,-1
 70 -80 l 1,0,-1
EndSplineSet
EndChar
StartChar: backslash
Encoding: 92 92 61
Width: 266
Flags: W
Fore
-5 492 m 1,0,-1
 26 492 l 1,1,-1
 281 -30 l 1,2,-1
 253 -30 l 1,3,-1
 -5 492 l 1,4,-1
 -5 492 l 1,0,-1
EndSplineSet
EndChar
StartChar: bracketright
Encoding: 93 93 62
Width: 194
Flags: W
Fore
0 -80 m 1,0,-1
 0 -59 l 1,1,-1
 100 -59 l 1,2,-1
 100 473 l 1,3,-1
 0 473 l 1,4,-1
 0 493 l 1,5,-1
 126 493 l 1,6,-1
 126 -80 l 1,7,-1
 0 -80 l 1,8,-1
 0 -80 l 1,0,-1
EndSplineSet
EndChar
StartChar: asciicircum
Encoding: 94 94 63
Width: 429
Flags: W
Fore
58 143 m 1,0,1
 86 174 86 174 111 216.5 c 128,-1,2
 136 259 136 259 156.5 305.5 c 128,-1,3
 177 352 177 352 192 399.5 c 128,-1,4
 207 447 207 447 215 489 c 1,5,6
 224 447 224 447 239 401 c 128,-1,7
 254 355 254 355 274 309 c 128,-1,8
 294 263 294 263 319 220 c 128,-1,9
 344 177 344 177 373 143 c 1,10,-1
 335 143 l 1,11,12
 298 197 298 197 265 262.5 c 128,-1,13
 232 328 232 328 217 401 c 1,14,15
 203 330 203 330 169.5 263.5 c 128,-1,16
 136 197 136 197 95 143 c 1,17,-1
 58 143 l 1,0,1
EndSplineSet
EndChar
StartChar: underscore
Encoding: 95 95 64
Width: 360
Flags: W
Fore
0 -169 m 1,0,-1
 0 -147 l 1,1,-1
 360 -147 l 1,2,-1
 360 -169 l 1,3,-1
 0 -169 l 1,0,-1
EndSplineSet
EndChar
StartChar: grave
Encoding: 96 96 65
Width: 216
Flags: W
Fore
73 500 m 1,0,-1
 124 500 l 1,1,-1
 154 359 l 1,2,-1
 123 359 l 1,3,-1
 73 500 l 1,4,-1
 73 500 l 1,0,-1
EndSplineSet
EndChar
StartChar: a
Encoding: 97 97 66
Width: 382
Flags: W
Fore
287 204 m 1,0,1
 268 190 268 190 250.5 181.5 c 128,-1,2
 233 173 233 173 210 169 c 0,3,4
 188 165 188 165 163 160 c 128,-1,5
 138 155 138 155 116.5 146.5 c 128,-1,6
 95 138 95 138 81 124 c 128,-1,7
 67 110 67 110 67 88 c 0,8,9
 67 61 67 61 83.5 42.5 c 128,-1,10
 100 24 100 24 126 21 c 0,11,12
 160 16 160 16 184.5 20 c 128,-1,13
 209 24 209 24 228 32.5 c 128,-1,14
 247 41 247 41 261 52 c 128,-1,15
 275 63 275 63 287 72 c 1,16,-1
 287 74 l 1,17,-1
 287 204 l 1,0,1
319 -4 m 1,18,19
 306 1 306 1 297.5 12.5 c 128,-1,20
 289 24 289 24 287 38 c 1,21,22
 278 31 278 31 261.5 21 c 128,-1,23
 245 11 245 11 223 3.5 c 128,-1,24
 201 -4 201 -4 174 -7.5 c 128,-1,25
 147 -11 147 -11 118 -5 c 0,26,27
 80 3 80 3 58.5 25.5 c 128,-1,28
 37 48 37 48 37 88 c 0,29,30
 37 122 37 122 54 140.5 c 128,-1,31
 71 159 71 159 97 168.5 c 128,-1,32
 123 178 123 178 153.5 182.5 c 128,-1,33
 184 187 184 187 210 193 c 0,34,35
 219 195 219 195 231.5 199.5 c 128,-1,36
 244 204 244 204 255.5 211.5 c 128,-1,37
 267 219 267 219 275.5 228 c 128,-1,38
 284 237 284 237 284 248 c 0,39,40
 284 262 284 262 276 278 c 128,-1,41
 268 294 268 294 252 305 c 0,42,43
 234 318 234 318 208.5 322.5 c 128,-1,44
 183 327 183 327 154.5 324.5 c 128,-1,45
 126 322 126 322 98 313.5 c 128,-1,46
 70 305 70 305 48 294 c 1,47,-1
 54 326 l 1,48,49
 79 338 79 338 107 344.5 c 128,-1,50
 135 351 135 351 163.5 351.5 c 128,-1,51
 192 352 192 352 219 346.5 c 128,-1,52
 246 341 246 341 269 330 c 0,53,54
 292 320 292 320 305.5 297.5 c 128,-1,55
 319 275 319 275 319 247 c 2,56,-1
 319 69 l 2,57,58
 319 53 319 53 322 41 c 128,-1,59
 325 29 325 29 342 16 c 1,60,61
 336 9 336 9 330 4.5 c 128,-1,62
 324 0 324 0 319 -4 c 1,18,19
EndSplineSet
Substitution: 0 65534 'L026' uni0E38
Substitution: 0 65534 'L026' uni0E38
EndChar
StartChar: b
Encoding: 98 98 67
Width: 430
Flags: W
Fore
229 350 m 0,0,1
 272 347 272 347 302.5 328.5 c 128,-1,2
 333 310 333 310 352 282.5 c 128,-1,3
 371 255 371 255 379 220.5 c 128,-1,4
 387 186 387 186 384 152 c 0,5,6
 381 122 381 122 371 93.5 c 128,-1,7
 361 65 361 65 343 43.5 c 128,-1,8
 325 22 325 22 300 9 c 128,-1,9
 275 -4 275 -4 244 -4 c 0,10,11
 215 -4 215 -4 195 0 c 128,-1,12
 175 4 175 4 161 10 c 128,-1,13
 147 16 147 16 136 23.5 c 128,-1,14
 125 31 125 31 113 39 c 1,15,-1
 112 39 l 1,16,17
 110 25 110 25 102.5 13 c 128,-1,18
 95 1 95 1 82 -4 c 1,19,20
 77 1 77 1 71 5.5 c 128,-1,21
 65 10 65 10 59 17 c 1,22,23
 76 30 76 30 79 42 c 128,-1,24
 82 54 82 54 82 70 c 2,25,-1
 82 107 l 1,26,-1
 82 241 l 1,27,-1
 82 480 l 1,28,-1
 113 480 l 1,29,-1
 113 304 l 1,30,31
 122 317 122 317 138 326 c 128,-1,32
 154 335 154 335 172 340.5 c 128,-1,33
 190 346 190 346 205.5 348.5 c 128,-1,34
 221 351 221 351 229 350 c 0,0,1
352 155 m 0,35,36
 355 184 355 184 349 213 c 128,-1,37
 343 242 343 242 328 266 c 128,-1,38
 313 290 313 290 288.5 306.5 c 128,-1,39
 264 323 264 323 230 327 c 0,40,41
 218 328 218 328 202 324 c 128,-1,42
 186 320 186 320 169.5 312 c 128,-1,43
 153 304 153 304 138 291.5 c 128,-1,44
 123 279 123 279 113 263 c 1,45,-1
 113 241 l 1,46,-1
 112 241 l 1,47,-1
 112 74 l 1,48,-1
 113 74 l 1,49,-1
 113 73 l 1,50,51
 136 51 136 51 165 35.5 c 128,-1,52
 194 20 194 20 237 22 c 0,53,54
 262 23 262 23 282.5 34 c 128,-1,55
 303 45 303 45 317.5 63.5 c 128,-1,56
 332 82 332 82 341 105.5 c 128,-1,57
 350 129 350 129 352 155 c 0,35,36
EndSplineSet
Substitution: 0 65534 'L026' uni0E39
Substitution: 0 65534 'L026' uni0E39
EndChar
StartChar: c
Encoding: 99 99 68
Width: 422
Flags: W
Fore
69 250 m 2,0,1
 69 276 69 276 86 295.5 c 128,-1,2
 103 315 103 315 126 329 c 0,3,4
 151 344 151 344 187 349.5 c 128,-1,5
 223 355 223 355 259.5 350 c 128,-1,6
 296 345 296 345 327 328 c 128,-1,7
 358 311 358 311 373 281 c 1,8,-1
 346 270 l 1,9,10
 335 296 335 296 310.5 310 c 128,-1,11
 286 324 286 324 256.5 327.5 c 128,-1,12
 227 331 227 331 198 326.5 c 128,-1,13
 169 322 169 322 149 310 c 0,14,15
 129 297 129 297 115 278 c 128,-1,16
 101 259 101 259 101 237 c 2,17,-1
 101 112 l 2,18,19
 101 90 101 90 115 71 c 128,-1,20
 129 52 129 52 149 39 c 0,21,22
 169 27 169 27 198 22.5 c 128,-1,23
 227 18 227 18 256.5 21.5 c 128,-1,24
 286 25 286 25 310.5 39 c 128,-1,25
 335 53 335 53 346 79 c 1,26,-1
 373 68 l 1,27,28
 358 38 358 38 327 21 c 128,-1,29
 296 4 296 4 259.5 -1 c 128,-1,30
 223 -6 223 -6 187 -0.5 c 128,-1,31
 151 5 151 5 126 20 c 0,32,33
 103 34 103 34 86 53.5 c 128,-1,34
 69 73 69 73 69 99 c 2,35,-1
 69 250 l 2,0,1
EndSplineSet
Substitution: 0 65534 'L026' uni0E3A
Substitution: 0 65534 'L026' uni0E3A
EndChar
StartChar: d
Encoding: 100 100 69
Width: 406
Flags: W
Fore
350 70 m 2,0,1
 350 54 350 54 353 42 c 128,-1,2
 356 30 356 30 373 17 c 1,3,4
 366 10 366 10 360 5.5 c 128,-1,5
 354 1 354 1 349 -4 c 1,6,7
 337 1 337 1 330 13 c 128,-1,8
 323 25 323 25 320 39 c 1,9,10
 308 31 308 31 297 23.5 c 128,-1,11
 286 16 286 16 272 10 c 128,-1,12
 258 4 258 4 238 0 c 128,-1,13
 218 -4 218 -4 188 -4 c 0,14,15
 156 -4 156 -4 131.5 9 c 128,-1,16
 107 22 107 22 89.5 43.5 c 128,-1,17
 72 65 72 65 61.5 93.5 c 128,-1,18
 51 122 51 122 49 152 c 0,19,20
 46 186 46 186 54 220.5 c 128,-1,21
 62 255 62 255 80.5 282.5 c 128,-1,22
 99 310 99 310 129.5 328.5 c 128,-1,23
 160 347 160 347 203 350 c 0,24,25
 211 351 211 351 227 348.5 c 128,-1,26
 243 346 243 346 260.5 340.5 c 128,-1,27
 278 335 278 335 294.5 326 c 128,-1,28
 311 317 311 317 320 304 c 1,29,-1
 320 480 l 1,30,-1
 350 480 l 1,31,-1
 350 241 l 1,32,-1
 350 107 l 1,33,-1
 350 70 l 2,0,1
320 241 m 1,34,-1
 320 263 l 1,35,36
 310 279 310 279 294.5 291.5 c 128,-1,37
 279 304 279 304 262.5 312 c 128,-1,38
 246 320 246 320 230.5 324 c 128,-1,39
 215 328 215 328 203 327 c 0,40,41
 168 323 168 323 143.5 306.5 c 128,-1,42
 119 290 119 290 104 266 c 128,-1,43
 89 242 89 242 83 213 c 128,-1,44
 77 184 77 184 80 155 c 0,45,46
 82 129 82 129 91 105.5 c 128,-1,47
 100 82 100 82 114.5 63.5 c 128,-1,48
 129 45 129 45 149.5 34 c 128,-1,49
 170 23 170 23 196 22 c 0,50,51
 239 20 239 20 268 35.5 c 128,-1,52
 297 51 297 51 320 73 c 1,53,-1
 320 74 l 1,54,-1
 320 241 l 1,34,-1
EndSplineSet
EndChar
StartChar: e
Encoding: 101 101 70
Width: 422
Flags: W
Fore
70 247 m 2,0,1
 70 273 70 273 87 292.5 c 128,-1,2
 104 312 104 312 127 326 c 0,3,4
 146 337 146 337 170 343.5 c 128,-1,5
 194 350 194 350 219.5 350 c 128,-1,6
 245 350 245 350 270 344 c 128,-1,7
 295 338 295 338 318 325 c 0,8,9
 340 312 340 312 357 289 c 128,-1,10
 374 266 374 266 376 239 c 0,11,12
 377 210 377 210 371 192.5 c 128,-1,13
 365 175 365 175 348 165.5 c 128,-1,14
 331 156 331 156 302 153 c 128,-1,15
 273 150 273 150 230 150 c 2,16,-1
 102 150 l 1,17,-1
 102 109 l 2,18,19
 102 87 102 87 116.5 68 c 128,-1,20
 131 49 131 49 151 36 c 0,21,22
 171 24 171 24 200 19.5 c 128,-1,23
 229 15 229 15 258.5 18.5 c 128,-1,24
 288 22 288 22 312 36 c 128,-1,25
 336 50 336 50 347 76 c 1,26,-1
 374 65 l 1,27,28
 359 35 359 35 328 18 c 128,-1,29
 297 1 297 1 260.5 -4 c 128,-1,30
 224 -9 224 -9 188 -3.5 c 128,-1,31
 152 2 152 2 127 17 c 0,32,33
 104 31 104 31 87 50.5 c 128,-1,34
 70 70 70 70 70 96 c 2,35,-1
 70 247 l 2,0,1
305 303 m 0,36,37
 287 315 287 315 266.5 320.5 c 128,-1,38
 246 326 246 326 225.5 326 c 128,-1,39
 205 326 205 326 185.5 321 c 128,-1,40
 166 316 166 316 151 307 c 0,41,42
 131 294 131 294 116.5 275 c 128,-1,43
 102 256 102 256 102 234 c 2,44,-1
 102 177 l 1,45,-1
 230 177 l 2,46,47
 261 177 261 177 283 177.5 c 128,-1,48
 305 178 305 178 319.5 184 c 128,-1,49
 334 190 334 190 340.5 202 c 128,-1,50
 347 214 347 214 346 236 c 0,51,52
 345 255 345 255 332.5 274 c 128,-1,53
 320 293 320 293 305 303 c 0,36,37
EndSplineSet
EndChar
StartChar: f
Encoding: 102 102 71
Width: 252
Flags: W
Fore
215 481 m 1,0,-1
 215 455 l 1,1,-1
 197 455 l 2,2,3
 165 455 165 455 146 447.5 c 128,-1,4
 127 440 127 440 117 426 c 128,-1,5
 107 412 107 412 104 391.5 c 128,-1,6
 101 371 101 371 102 344 c 1,7,-1
 180 344 l 1,8,-1
 180 317 l 1,9,-1
 102 317 l 1,10,-1
 102 83 l 1,11,-1
 102 25 l 1,12,13
 100 11 100 11 91.5 -0.5 c 128,-1,14
 83 -12 83 -12 70 -17 c 1,15,16
 65 -13 65 -13 59 -8.5 c 128,-1,17
 53 -4 53 -4 47 3 c 1,18,19
 64 16 64 16 67 28 c 128,-1,20
 70 40 70 40 70 56 c 2,21,-1
 70 340 l 2,22,23
 70 380 70 380 76 407 c 128,-1,24
 82 434 82 434 96.5 450.5 c 128,-1,25
 111 467 111 467 135.5 474 c 128,-1,26
 160 481 160 481 198 481 c 2,27,-1
 215 481 l 1,0,-1
EndSplineSet
EndChar
StartChar: g
Encoding: 103 103 72
Width: 406
Flags: W
Fore
341 348 m 1,0,1
 349 341 349 341 364 328 c 1,2,3
 347 315 347 315 344 303 c 128,-1,4
 341 291 341 291 341 275 c 2,5,-1
 341 238 l 1,6,-1
 341 103 l 1,7,-1
 341 -13 l 1,8,-1
 341 -16 l 2,9,10
 341 -55 341 -55 335.5 -81.5 c 128,-1,11
 330 -108 330 -108 316 -124 c 128,-1,12
 302 -140 302 -140 278.5 -146.5 c 128,-1,13
 255 -153 255 -153 218 -153 c 2,14,-1
 189 -153 l 1,15,-1
 189 -128 l 1,16,-1
 220 -128 l 2,17,18
 251 -128 251 -128 269 -120.5 c 128,-1,19
 287 -113 287 -113 297 -99 c 128,-1,20
 307 -85 307 -85 309.5 -65 c 128,-1,21
 312 -45 312 -45 311 -18 c 2,22,-1
 311 -13 l 1,23,-1
 310 -13 l 1,24,-1
 310 40 l 1,25,26
 301 27 301 27 284.5 18 c 128,-1,27
 268 9 268 9 250.5 3.5 c 128,-1,28
 233 -2 233 -2 217 -4 c 128,-1,29
 201 -6 201 -6 193 -6 c 0,30,31
 151 -3 151 -3 120.5 15.5 c 128,-1,32
 90 34 90 34 71 62 c 128,-1,33
 52 90 52 90 44 124 c 128,-1,34
 36 158 36 158 39 193 c 0,35,36
 41 223 41 223 51.5 251.5 c 128,-1,37
 62 280 62 280 79.5 301.5 c 128,-1,38
 97 323 97 323 121.5 335.5 c 128,-1,39
 146 348 146 348 178 348 c 0,40,41
 208 348 208 348 228 344.5 c 128,-1,42
 248 341 248 341 262 335 c 128,-1,43
 276 329 276 329 287 321.5 c 128,-1,44
 298 314 298 314 310 305 c 1,45,-1
 310 306 l 1,46,47
 313 320 313 320 320.5 331.5 c 128,-1,48
 328 343 328 343 341 348 c 1,0,1
310 272 m 1,49,50
 287 293 287 293 258 309 c 128,-1,51
 229 325 229 325 186 323 c 0,52,53
 160 322 160 322 139.5 311 c 128,-1,54
 119 300 119 300 104.5 281.5 c 128,-1,55
 90 263 90 263 81 239 c 128,-1,56
 72 215 72 215 70 190 c 0,57,58
 67 161 67 161 73 132 c 128,-1,59
 79 103 79 103 94 79 c 128,-1,60
 109 55 109 55 133.5 38.5 c 128,-1,61
 158 22 158 22 193 18 c 0,62,63
 205 16 205 16 220.5 20 c 128,-1,64
 236 24 236 24 252.5 32.5 c 128,-1,65
 269 41 269 41 284.5 53.5 c 128,-1,66
 300 66 300 66 310 82 c 1,67,-1
 310 272 l 1,49,50
EndSplineSet
EndChar
StartChar: h
Encoding: 104 104 73
Width: 403
Flags: W
Fore
238 351 m 0,0,1
 266 351 266 351 286 340 c 128,-1,2
 306 329 306 329 319.5 310 c 128,-1,3
 333 291 333 291 339.5 265 c 128,-1,4
 346 239 346 239 346 210 c 2,5,-1
 346 1 l 1,6,-1
 316 1 l 1,7,-1
 316 195 l 2,8,9
 316 221 316 221 312.5 243.5 c 128,-1,10
 309 266 309 266 300 283 c 128,-1,11
 291 300 291 300 274.5 310 c 128,-1,12
 258 320 258 320 231 320 c 0,13,14
 201 320 201 320 178.5 306 c 128,-1,15
 156 292 156 292 140.5 268.5 c 128,-1,16
 125 245 125 245 115.5 215.5 c 128,-1,17
 106 186 106 186 103 156 c 2,18,-1
 103 0 l 1,19,-1
 71 0 l 1,20,-1
 71 1 l 1,21,-1
 71 275 l 1,22,-1
 71 371 l 1,23,-1
 71 408 l 2,24,25
 71 424 71 424 68 436 c 128,-1,26
 65 448 65 448 48 461 c 1,27,28
 54 468 54 468 60 472.5 c 128,-1,29
 66 477 66 477 71 481 c 1,30,31
 84 476 84 476 92.5 464.5 c 128,-1,32
 101 453 101 453 103 439 c 1,33,-1
 103 393 l 1,34,-1
 103 246 l 1,35,36
 118 300 118 300 150 325.5 c 128,-1,37
 182 351 182 351 238 351 c 0,0,1
EndSplineSet
EndChar
StartChar: i
Encoding: 105 105 74
Width: 168
Flags: W
Fore
103 55 m 2,0,1
 103 39 103 39 105.5 27 c 128,-1,2
 108 15 108 15 125 2 c 1,3,4
 119 -5 119 -5 113 -9.5 c 128,-1,5
 107 -14 107 -14 102 -18 c 1,6,7
 90 -13 90 -13 81 -1.5 c 128,-1,8
 72 10 72 10 70 24 c 1,9,-1
 70 82 l 1,10,-1
 70 340 l 1,11,-1
 103 340 l 1,12,-1
 103 82 l 1,13,-1
 103 55 l 2,0,1
87 476 m 1,14,15
 99 477 99 477 107.5 465.5 c 128,-1,16
 116 454 116 454 116 437 c 0,17,18
 116 421 116 421 107.5 409.5 c 128,-1,19
 99 398 99 398 87 398 c 0,20,21
 74 398 74 398 65.5 409.5 c 128,-1,22
 57 421 57 421 58 437 c 0,23,24
 58 454 58 454 66.5 465.5 c 128,-1,25
 75 477 75 477 87 476 c 1,14,15
EndSplineSet
EndChar
StartChar: j
Encoding: 106 106 75
Width: 214
Flags: W
Fore
150 340 m 1,0,-1
 150 -12 l 2,1,2
 150 -52 150 -52 144 -79.5 c 128,-1,3
 138 -107 138 -107 123.5 -123.5 c 128,-1,4
 109 -140 109 -140 84 -146.5 c 128,-1,5
 59 -153 59 -153 21 -153 c 0,6,7
 16 -153 16 -153 15 -153 c 128,-1,8
 14 -153 14 -153 13 -153.5 c 128,-1,9
 12 -154 12 -154 10.5 -154 c 128,-1,10
 9 -154 9 -154 4 -154 c 1,11,-1
 4 -127 l 1,12,-1
 22 -127 l 2,13,14
 54 -127 54 -127 73.5 -119.5 c 128,-1,15
 93 -112 93 -112 102.5 -97.5 c 128,-1,16
 112 -83 112 -83 115 -62 c 128,-1,17
 118 -41 118 -41 117 -13 c 2,18,-1
 117 340 l 1,19,-1
 150 340 l 1,0,-1
132 476 m 1,20,21
 144 477 144 477 152.5 465.5 c 128,-1,22
 161 454 161 454 161 437 c 0,23,24
 161 421 161 421 152.5 409.5 c 128,-1,25
 144 398 144 398 132 398 c 0,26,27
 119 398 119 398 110.5 409.5 c 128,-1,28
 102 421 102 421 103 437 c 0,29,30
 103 454 103 454 111.5 465.5 c 128,-1,31
 120 477 120 477 132 476 c 1,20,21
EndSplineSet
EndChar
StartChar: k
Encoding: 107 107 76
Width: 381
Flags: W
Fore
214 237 m 1,0,1
 236 234 236 234 256.5 226.5 c 128,-1,2
 277 219 277 219 292.5 204.5 c 128,-1,3
 308 190 308 190 317.5 167 c 128,-1,4
 327 144 327 144 327 110 c 2,5,-1
 327 1 l 1,6,-1
 294 1 l 1,7,-1
 294 109 l 2,8,9
 295 138 295 138 286 157 c 128,-1,10
 277 176 277 176 262.5 188 c 128,-1,11
 248 200 248 200 229.5 206 c 128,-1,12
 211 212 211 212 192 214 c 1,13,-1
 101 126 l 1,14,-1
 101 0 l 1,15,-1
 69 0 l 1,16,-1
 69 372 l 1,17,-1
 69 409 l 2,18,19
 69 425 69 425 66 437 c 128,-1,20
 63 449 63 449 46 462 c 1,21,22
 52 469 52 469 58 473.5 c 128,-1,23
 64 478 64 478 69 482 c 1,24,25
 82 477 82 477 90.5 465.5 c 128,-1,26
 99 454 99 454 101 440 c 1,27,-1
 101 391 l 1,28,-1
 101 169 l 1,29,-1
 281 342 l 1,30,-1
 321 342 l 1,31,-1
 214 237 l 1,32,-1
 214 237 l 1,0,1
EndSplineSet
EndChar
StartChar: l
Encoding: 108 108 77
Width: 164
Flags: W
Fore
102 56 m 1,0,1
 102 40 102 40 104.5 28 c 128,-1,2
 107 16 107 16 124 3 c 1,3,4
 118 -4 118 -4 112 -8.5 c 128,-1,5
 106 -13 106 -13 101 -18 c 1,6,7
 89 -13 89 -13 80 -1 c 128,-1,8
 71 11 71 11 69 25 c 1,9,-1
 69 82 l 1,10,-1
 69 407 l 2,11,12
 69 423 69 423 66.5 435 c 128,-1,13
 64 447 64 447 47 460 c 1,14,15
 53 467 53 467 59 471.5 c 128,-1,16
 65 476 65 476 70 480 c 1,17,18
 83 475 83 475 91.5 463.5 c 128,-1,19
 100 452 100 452 102 438 c 1,20,-1
 102 395 l 1,21,-1
 102 56 l 1,22,-1
 102 56 l 1,0,1
EndSplineSet
EndChar
StartChar: m
Encoding: 109 109 78
Width: 494
Flags: W
Fore
433 49 m 1,0,1
 433 34 433 34 435.5 22.5 c 128,-1,2
 438 11 438 11 454 -1 c 1,3,4
 448 -7 448 -7 442.5 -11.5 c 128,-1,5
 437 -16 437 -16 432 -20 c 1,6,7
 421 -15 421 -15 412.5 -4.5 c 128,-1,8
 404 6 404 6 402 19 c 1,9,-1
 402 83 l 1,10,-1
 402 193 l 2,11,12
 402 235 402 235 398 262.5 c 128,-1,13
 394 290 394 290 383 304 c 0,14,15
 370 321 370 321 350 320 c 128,-1,16
 330 319 330 319 317 302 c 0,17,18
 307 289 307 289 298 273 c 128,-1,19
 289 257 289 257 282 233.5 c 128,-1,20
 275 210 275 210 271 177 c 128,-1,21
 267 144 267 144 267 98 c 2,22,-1
 267 39 l 1,23,-1
 266 39 l 1,24,-1
 266 -1 l 1,25,-1
 236 -1 l 1,26,-1
 236 193 l 2,27,28
 236 235 236 235 232 262.5 c 128,-1,29
 228 290 228 290 217 304 c 0,30,31
 204 321 204 321 183.5 320.5 c 128,-1,32
 163 320 163 320 151 302 c 0,33,34
 142 289 142 289 133.5 269 c 128,-1,35
 125 249 125 249 118 224.5 c 128,-1,36
 111 200 111 200 107 172.5 c 128,-1,37
 103 145 103 145 103 117 c 2,38,-1
 103 103 l 1,39,-1
 103 -1 l 1,40,-1
 70 -1 l 1,41,-1
 70 39 l 1,42,-1
 70 269 l 2,43,44
 70 285 70 285 67 297 c 128,-1,45
 64 309 64 309 47 323 c 1,46,47
 53 329 53 329 59 334 c 128,-1,48
 65 339 65 339 70 343 c 1,49,50
 83 338 83 338 91.5 326.5 c 128,-1,51
 100 315 100 315 103 301 c 1,52,-1
 103 258 l 1,53,-1
 103 257 l 1,54,55
 111 286 111 286 121.5 306 c 128,-1,56
 132 326 132 326 145 336 c 0,57,58
 161 349 161 349 185 348 c 128,-1,59
 209 347 209 347 225 336 c 256,60,61
 241 325 241 325 249.5 307.5 c 128,-1,62
 258 290 258 290 262 267 c 1,63,64
 272 293 272 293 286 310.5 c 128,-1,65
 300 328 300 328 311 336 c 0,66,67
 328 347 328 347 351.5 347 c 128,-1,68
 375 347 375 347 391 336 c 0,69,70
 416 319 416 319 424.5 285 c 128,-1,71
 433 251 433 251 433 209 c 2,72,-1
 433 65 l 1,73,-1
 433 49 l 1,74,-1
 433 49 l 1,0,1
EndSplineSet
EndChar
StartChar: n
Encoding: 110 110 79
Width: 409
Flags: W
Fore
346 53 m 1,0,1
 346 36 346 36 348.5 24 c 128,-1,2
 351 12 351 12 367 0 c 1,3,4
 362 -6 362 -6 356.5 -10.5 c 128,-1,5
 351 -15 351 -15 346 -19 c 1,6,7
 334 -14 334 -14 326 -3.5 c 128,-1,8
 318 7 318 7 316 20 c 1,9,-1
 316 194 l 2,10,11
 316 220 316 220 312.5 243 c 128,-1,12
 309 266 309 266 300 283 c 128,-1,13
 291 300 291 300 274.5 309.5 c 128,-1,14
 258 319 258 319 231 319 c 0,15,16
 201 319 201 319 178.5 301.5 c 128,-1,17
 156 284 156 284 140 256 c 128,-1,18
 124 228 124 228 115 194.5 c 128,-1,19
 106 161 106 161 102 128 c 2,20,-1
 102 0 l 1,21,-1
 70 0 l 1,22,-1
 69 0 l 1,23,-1
 69 270 l 2,24,25
 69 286 69 286 66.5 298 c 128,-1,26
 64 310 64 310 47 324 c 1,27,28
 59 336 59 336 70 344 c 1,29,30
 82 339 82 339 91 327.5 c 128,-1,31
 100 316 100 316 102 302 c 1,32,-1
 102 217 l 1,33,34
 109 245 109 245 121 269.5 c 128,-1,35
 133 294 133 294 149.5 312 c 128,-1,36
 166 330 166 330 188 340.5 c 128,-1,37
 210 351 210 351 238 351 c 256,38,39
 266 351 266 351 286 340 c 128,-1,40
 306 329 306 329 319.5 310 c 128,-1,41
 333 291 333 291 339.5 265 c 128,-1,42
 346 239 346 239 346 210 c 2,43,-1
 346 53 l 1,44,-1
 346 53 l 1,0,1
EndSplineSet
EndChar
StartChar: o
Encoding: 111 111 80
Width: 412
Flags: W
Fore
51 221 m 0,0,1
 51 263 51 263 74 291 c 128,-1,2
 97 319 97 319 131.5 333 c 128,-1,3
 166 347 166 347 206.5 347 c 128,-1,4
 247 347 247 347 281.5 333 c 128,-1,5
 316 319 316 319 339 291 c 128,-1,6
 362 263 362 263 362 221 c 2,7,-1
 362 117 l 2,8,9
 362 75 362 75 339.5 47 c 128,-1,10
 317 19 317 19 283 5 c 128,-1,11
 249 -9 249 -9 209 -9 c 128,-1,12
 169 -9 169 -9 135 5 c 128,-1,13
 101 19 101 19 77.5 47 c 128,-1,14
 54 75 54 75 53 117 c 0,15,16
 52 140 52 140 51.5 169 c 128,-1,17
 51 198 51 198 51 221 c 0,0,1
82 209 m 0,18,19
 82 204 82 204 82.5 193.5 c 128,-1,20
 83 183 83 183 83 171 c 128,-1,21
 83 159 83 159 83.5 147.5 c 128,-1,22
 84 136 84 136 84 130 c 0,23,24
 84 92 84 92 102 66.5 c 128,-1,25
 120 41 120 41 147.5 28.5 c 128,-1,26
 175 16 175 16 206.5 16 c 128,-1,27
 238 16 238 16 265.5 29 c 128,-1,28
 293 42 293 42 311.5 67 c 128,-1,29
 330 92 330 92 331 130 c 0,30,31
 331 145 331 145 331 150.5 c 128,-1,32
 331 156 331 156 331 161 c 128,-1,33
 331 166 331 166 331 175.5 c 128,-1,34
 331 185 331 185 331 208 c 0,35,36
 330 246 330 246 311.5 271.5 c 128,-1,37
 293 297 293 297 265.5 310 c 128,-1,38
 238 323 238 323 206 323 c 128,-1,39
 174 323 174 323 146.5 310.5 c 128,-1,40
 119 298 119 298 100.5 272.5 c 128,-1,41
 82 247 82 247 82 209 c 0,18,19
EndSplineSet
EndChar
StartChar: p
Encoding: 112 112 81
Width: 422
Flags: W
Fore
373 195 m 0,0,1
 376 160 376 160 368 126 c 128,-1,2
 360 92 360 92 341.5 64 c 128,-1,3
 323 36 323 36 292.5 17.5 c 128,-1,4
 262 -1 262 -1 219 -4 c 0,5,6
 211 -4 211 -4 195 -2 c 128,-1,7
 179 0 179 0 161.5 5.5 c 128,-1,8
 144 11 144 11 127.5 20 c 128,-1,9
 111 29 111 29 102 42 c 1,10,-1
 102 -127 l 1,11,-1
 69 -127 l 1,12,-1
 69 105 l 1,13,-1
 69 240 l 1,14,-1
 69 277 l 2,15,16
 69 292 69 292 66 304.5 c 128,-1,17
 63 317 63 317 46 330 c 1,18,19
 53 336 53 336 59 341 c 128,-1,20
 65 346 65 346 70 350 c 1,21,22
 82 345 82 345 91 333.5 c 128,-1,23
 100 322 100 322 102 308 c 1,24,-1
 102 307 l 1,25,26
 114 316 114 316 125 323.5 c 128,-1,27
 136 331 136 331 150 337 c 128,-1,28
 164 343 164 343 184 346.5 c 128,-1,29
 204 350 204 350 234 350 c 0,30,31
 265 350 265 350 290 337.5 c 128,-1,32
 315 325 315 325 332.5 303.5 c 128,-1,33
 350 282 350 282 360.5 253.5 c 128,-1,34
 371 225 371 225 373 195 c 0,0,1
219 20 m 0,35,36
 254 24 254 24 278.5 40.5 c 128,-1,37
 303 57 303 57 318 81 c 128,-1,38
 333 105 333 105 339 134 c 128,-1,39
 345 163 345 163 342 192 c 0,40,41
 340 217 340 217 331 241 c 128,-1,42
 322 265 322 265 307.5 283.5 c 128,-1,43
 293 302 293 302 272.5 313 c 128,-1,44
 252 324 252 324 227 325 c 0,45,46
 183 326 183 326 154 310.5 c 128,-1,47
 125 295 125 295 102 274 c 1,48,-1
 102 84 l 1,49,50
 112 68 112 68 127 55.5 c 128,-1,51
 142 43 142 43 158.5 34.5 c 128,-1,52
 175 26 175 26 191 22 c 128,-1,53
 207 18 207 18 219 20 c 0,35,36
EndSplineSet
EndChar
StartChar: q
Encoding: 113 113 82
Width: 417
Flags: W
Fore
353 -71 m 2,0,1
 353 -87 353 -87 355.5 -99 c 128,-1,2
 358 -111 358 -111 375 -124 c 1,3,4
 369 -131 369 -131 363 -135.5 c 128,-1,5
 357 -140 357 -140 352 -145 c 1,6,7
 340 -140 340 -140 331 -128 c 128,-1,8
 322 -116 322 -116 320 -102 c 1,9,-1
 320 -67 l 1,10,-1
 320 42 l 1,11,12
 311 29 311 29 294.5 20 c 128,-1,13
 278 11 278 11 260.5 5.5 c 128,-1,14
 243 0 243 0 227 -2 c 128,-1,15
 211 -4 211 -4 203 -4 c 0,16,17
 160 -1 160 -1 129.5 17.5 c 128,-1,18
 99 36 99 36 80.5 64 c 128,-1,19
 62 92 62 92 54 126 c 128,-1,20
 46 160 46 160 49 195 c 0,21,22
 51 225 51 225 61.5 253.5 c 128,-1,23
 72 282 72 282 89.5 303.5 c 128,-1,24
 107 325 107 325 131.5 337.5 c 128,-1,25
 156 350 156 350 188 350 c 0,26,27
 218 350 218 350 238 346.5 c 128,-1,28
 258 343 258 343 272 337 c 128,-1,29
 286 331 286 331 297 323.5 c 128,-1,30
 308 316 308 316 320 307 c 1,31,-1
 320 308 l 1,32,33
 322 322 322 322 331 333.5 c 128,-1,34
 340 345 340 345 352 350 c 1,35,36
 362 342 362 342 375 330 c 1,37,38
 358 317 358 317 355.5 304.5 c 128,-1,39
 353 292 353 292 353 277 c 2,40,-1
 353 -71 l 2,0,1
203 20 m 0,41,42
 215 18 215 18 230.5 22 c 128,-1,43
 246 26 246 26 262.5 34.5 c 128,-1,44
 279 43 279 43 294.5 55.5 c 128,-1,45
 310 68 310 68 320 84 c 1,46,-1
 320 105 l 1,47,-1
 320 272 l 1,48,-1
 320 274 l 1,49,50
 297 295 297 295 267.5 310.5 c 128,-1,51
 238 326 238 326 195 325 c 0,52,53
 169 324 169 324 149 313 c 128,-1,54
 129 302 129 302 114.5 283.5 c 128,-1,55
 100 265 100 265 91 241 c 128,-1,56
 82 217 82 217 80 192 c 0,57,58
 77 163 77 163 83 134 c 128,-1,59
 89 105 89 105 104 81 c 128,-1,60
 119 57 119 57 143.5 40.5 c 128,-1,61
 168 24 168 24 203 20 c 0,41,42
EndSplineSet
EndChar
StartChar: r
Encoding: 114 114 83
Width: 249
Flags: W
Fore
198 343 m 0,0,1
 203 343 203 343 204.5 343 c 128,-1,2
 206 343 206 343 206.5 343.5 c 128,-1,3
 207 344 207 344 208.5 344 c 128,-1,4
 210 344 210 344 215 344 c 1,5,-1
 215 318 l 1,6,-1
 197 318 l 2,7,8
 165 318 165 318 146 297.5 c 128,-1,9
 127 277 127 277 117 247.5 c 128,-1,10
 107 218 107 218 104 184.5 c 128,-1,11
 101 151 101 151 102 123 c 2,12,-1
 102 24 l 1,13,14
 100 10 100 10 91.5 -1.5 c 128,-1,15
 83 -13 83 -13 70 -18 c 1,16,17
 65 -14 65 -14 59 -9.5 c 128,-1,18
 53 -5 53 -5 47 2 c 1,19,20
 64 15 64 15 67 27 c 128,-1,21
 70 39 70 39 70 55 c 2,22,-1
 68 343 l 1,23,-1
 98 343 l 1,24,-1
 98 278 l 1,25,26
 113 307 113 307 137.5 325.5 c 128,-1,27
 162 344 162 344 198 343 c 0,0,1
EndSplineSet
EndChar
StartChar: s
Encoding: 115 115 84
Width: 334
Flags: W
Fore
265 91 m 0,0,1
 263 120 263 120 247 134 c 128,-1,2
 231 148 231 148 208 155 c 128,-1,3
 185 162 185 162 158.5 166 c 128,-1,4
 132 170 132 170 109 178.5 c 128,-1,5
 86 187 86 187 70 203.5 c 128,-1,6
 54 220 54 220 53 253 c 0,7,8
 51 278 51 278 61 297 c 128,-1,9
 71 316 71 316 88 328.5 c 128,-1,10
 105 341 105 341 126.5 347 c 128,-1,11
 148 353 148 353 171 353 c 0,12,13
 189 353 189 353 208.5 349 c 128,-1,14
 228 345 228 345 244.5 336 c 128,-1,15
 261 327 261 327 273.5 313 c 128,-1,16
 286 299 286 299 290 280 c 1,17,-1
 260 280 l 1,18,19
 256 296 256 296 247 304.5 c 128,-1,20
 238 313 238 313 225.5 317.5 c 128,-1,21
 213 322 213 322 198.5 323 c 128,-1,22
 184 324 184 324 169 324 c 0,23,24
 130 324 130 324 107.5 306 c 128,-1,25
 85 288 85 288 87 253 c 0,26,27
 88 225 88 225 104 212 c 128,-1,28
 120 199 120 199 143 192.5 c 128,-1,29
 166 186 166 186 192.5 182.5 c 128,-1,30
 219 179 219 179 241.5 170 c 128,-1,31
 264 161 264 161 280 143.5 c 128,-1,32
 296 126 296 126 298 91 c 0,33,34
 299 64 299 64 288 44.5 c 128,-1,35
 277 25 277 25 258.5 12.5 c 128,-1,36
 240 0 240 0 217 -6 c 128,-1,37
 194 -12 194 -12 170 -12 c 0,38,39
 150 -12 150 -12 129 -8 c 128,-1,40
 108 -4 108 -4 89.5 5 c 128,-1,41
 71 14 71 14 57 29 c 128,-1,42
 43 44 43 44 39 66 c 1,43,-1
 73 66 l 1,44,45
 78 49 78 49 88 39 c 128,-1,46
 98 29 98 29 111.5 24 c 128,-1,47
 125 19 125 19 141 17.5 c 128,-1,48
 157 16 157 16 173 16 c 0,49,50
 192 16 192 16 209 19.5 c 128,-1,51
 226 23 226 23 239 32 c 128,-1,52
 252 41 252 41 259 55.5 c 128,-1,53
 266 70 266 70 265 91 c 0,0,1
EndSplineSet
EndChar
StartChar: t
Encoding: 116 116 85
Width: 246
Flags: W
Fore
215 24 m 1,0,-1
 215 -2 l 1,1,-1
 198 -2 l 2,2,3
 160 -2 160 -2 135.5 5 c 128,-1,4
 111 12 111 12 96.5 28.5 c 128,-1,5
 82 45 82 45 76 72 c 128,-1,6
 70 99 70 99 70 140 c 2,7,-1
 70 399 l 2,8,9
 70 415 70 415 67 427 c 128,-1,10
 64 439 64 439 47 453 c 1,11,12
 59 465 59 465 70 473 c 1,13,14
 83 468 83 468 91.5 456.5 c 128,-1,15
 100 445 100 445 102 431 c 1,16,-1
 102 397 l 1,17,-1
 102 342 l 1,18,-1
 180 342 l 1,19,-1
 180 316 l 1,20,-1
 102 316 l 1,21,-1
 102 138 l 2,22,23
 101 111 101 111 104 89.5 c 128,-1,24
 107 68 107 68 117 54 c 128,-1,25
 127 40 127 40 146 32 c 128,-1,26
 165 24 165 24 197 24 c 2,27,-1
 215 24 l 1,0,-1
EndSplineSet
EndChar
StartChar: u
Encoding: 117 117 86
Width: 404
Flags: W
Fore
340 63 m 1,0,1
 340 48 340 48 342.5 36 c 128,-1,2
 345 24 345 24 362 11 c 1,3,4
 356 5 356 5 350 0.5 c 128,-1,5
 344 -4 344 -4 339 -8 c 1,6,7
 327 -3 327 -3 318.5 8 c 128,-1,8
 310 19 310 19 308 33 c 1,9,10
 288 11 288 11 261 0 c 128,-1,11
 234 -11 234 -11 205 -11 c 0,12,13
 180 -11 180 -11 155.5 -2.5 c 128,-1,14
 131 6 131 6 112 22.5 c 128,-1,15
 93 39 93 39 81.5 63 c 128,-1,16
 70 87 70 87 70 119 c 2,17,-1
 70 343 l 1,18,-1
 102 343 l 1,19,-1
 102 132 l 2,20,21
 102 103 102 103 111 80.5 c 128,-1,22
 120 58 120 58 135 43 c 128,-1,23
 150 28 150 28 168.5 21 c 128,-1,24
 187 14 187 14 207 14 c 0,25,26
 226 15 226 15 244 23 c 128,-1,27
 262 31 262 31 276.5 46 c 128,-1,28
 291 61 291 61 299.5 82.5 c 128,-1,29
 308 104 308 104 308 132 c 2,30,-1
 308 342 l 1,31,-1
 340 342 l 1,32,-1
 340 119 l 2,33,34
 340 114 340 114 339.5 109 c 128,-1,35
 339 104 339 104 338 99 c 1,36,-1
 340 99 l 1,37,-1
 340 63 l 1,38,-1
 340 63 l 1,0,1
EndSplineSet
EndChar
StartChar: v
Encoding: 118 118 87
Width: 323
Flags: W
Fore
228 104 m 2,0,1
 223 84 223 84 219 64 c 128,-1,2
 215 44 215 44 208 28 c 128,-1,3
 201 12 201 12 190 2.5 c 128,-1,4
 179 -7 179 -7 162 -7 c 256,5,6
 145 -7 145 -7 135 0 c 128,-1,7
 125 7 125 7 118.5 20 c 128,-1,8
 112 33 112 33 107 51.5 c 128,-1,9
 102 70 102 70 96 93 c 2,10,-1
 39 342 l 1,11,-1
 71 342 l 1,12,-1
 125 110 l 2,13,14
 126 105 126 105 128.5 90 c 128,-1,15
 131 75 131 75 135.5 59 c 128,-1,16
 140 43 140 43 146.5 31 c 128,-1,17
 153 19 153 19 162 19 c 0,18,19
 171 20 171 20 177.5 32 c 128,-1,20
 184 44 184 44 188.5 59 c 128,-1,21
 193 74 193 74 195.5 89 c 128,-1,22
 198 104 198 104 200 110 c 2,23,-1
 251 342 l 1,24,-1
 283 342 l 1,25,-1
 228 104 l 2,0,1
EndSplineSet
EndChar
StartChar: w
Encoding: 119 119 88
Width: 465
Flags: W
Fore
99 0 m 1,0,-1
 41 343 l 1,1,-1
 73 343 l 1,2,-1
 128 37 l 1,3,4
 144 47 144 47 158.5 71.5 c 128,-1,5
 173 96 173 96 185.5 128 c 128,-1,6
 198 160 198 160 209.5 197 c 128,-1,7
 221 234 221 234 231 268 c 1,8,9
 243 234 243 234 253.5 198 c 128,-1,10
 264 162 264 162 275.5 129.5 c 128,-1,11
 287 97 287 97 300.5 73 c 128,-1,12
 314 49 314 49 331 39 c 1,13,14
 343 102 343 102 359.5 183.5 c 128,-1,15
 376 265 376 265 392 343 c 1,16,-1
 423 343 l 1,17,-1
 361 0 l 1,18,-1
 332 0 l 1,19,20
 291 22 291 22 271 69.5 c 128,-1,21
 251 117 251 117 232 181 c 1,22,23
 213 117 213 117 189.5 70 c 128,-1,24
 166 23 166 23 128 0 c 1,25,-1
 99 0 l 1,0,-1
EndSplineSet
EndChar
StartChar: x
Encoding: 120 120 89
Width: 366
Flags: W
Fore
69 342 m 1,0,-1
 181 198 l 1,1,-1
 292 342 l 1,2,-1
 334 342 l 1,3,-1
 201 171 l 1,4,-1
 333 0 l 1,5,-1
 292 0 l 1,6,-1
 181 144 l 1,7,-1
 69 0 l 1,8,-1
 28 0 l 1,9,-1
 160 171 l 1,10,-1
 28 342 l 1,11,-1
 69 342 l 1,12,-1
 69 342 l 1,0,-1
EndSplineSet
EndChar
StartChar: y
Encoding: 121 121 90
Width: 404
Flags: W
Fore
361 343 m 1,0,1
 344 330 344 330 341.5 318.5 c 128,-1,2
 339 307 339 307 339 291 c 2,3,-1
 339 -12 l 2,4,5
 339 -52 339 -52 333 -79.5 c 128,-1,6
 327 -107 327 -107 312.5 -123.5 c 128,-1,7
 298 -140 298 -140 273 -146.5 c 128,-1,8
 248 -153 248 -153 210 -153 c 0,9,10
 205 -153 205 -153 204 -153 c 128,-1,11
 203 -153 203 -153 202 -153.5 c 128,-1,12
 201 -154 201 -154 199.5 -154 c 128,-1,13
 198 -154 198 -154 193 -154 c 1,14,-1
 193 -127 l 1,15,16
 198 -127 198 -127 199.5 -127 c 128,-1,17
 201 -127 201 -127 202 -127 c 128,-1,18
 203 -127 203 -127 204.5 -127 c 128,-1,19
 206 -127 206 -127 212 -127 c 0,20,21
 244 -127 244 -127 263 -119.5 c 128,-1,22
 282 -112 282 -112 292 -98 c 128,-1,23
 302 -84 302 -84 304.5 -62.5 c 128,-1,24
 307 -41 307 -41 306 -14 c 2,25,-1
 306 33 l 1,26,27
 286 12 286 12 259.5 1 c 128,-1,28
 233 -10 233 -10 204 -10 c 0,29,30
 179 -10 179 -10 154.5 -1.5 c 128,-1,31
 130 7 130 7 111 23.5 c 128,-1,32
 92 40 92 40 80.5 64 c 128,-1,33
 69 88 69 88 69 120 c 2,34,-1
 69 343 l 1,35,-1
 101 343 l 1,36,-1
 101 133 l 2,37,38
 101 104 101 104 110 81.5 c 128,-1,39
 119 59 119 59 134 44 c 128,-1,40
 149 29 149 29 168 22 c 128,-1,41
 187 15 187 15 207 15 c 0,42,43
 242 16 242 16 271 41 c 128,-1,44
 300 66 300 66 306 113 c 2,45,-1
 307 322 l 1,46,47
 310 335 310 335 318 346.5 c 128,-1,48
 326 358 326 358 339 363 c 1,49,50
 344 359 344 359 349.5 354 c 128,-1,51
 355 349 355 349 361 343 c 1,0,1
EndSplineSet
EndChar
StartChar: z
Encoding: 122 122 91
Width: 422
Flags: W
Fore
364 33 m 1,0,-1
 364 -1 l 1,1,-1
 157 -1 l 2,2,3
 131 -1 131 -1 113.5 6.5 c 128,-1,4
 96 14 96 14 84.5 25.5 c 128,-1,5
 73 37 73 37 67.5 51 c 128,-1,6
 62 65 62 65 62 79 c 1,7,8
 67 84 67 84 86.5 102 c 128,-1,9
 106 120 106 120 132.5 144 c 128,-1,10
 159 168 159 168 189 195 c 128,-1,11
 219 222 219 222 245 246 c 128,-1,12
 271 270 271 270 290 287.5 c 128,-1,13
 309 305 309 305 314 311 c 1,14,-1
 67 312 l 1,15,-1
 67 343 l 1,16,-1
 364 342 l 1,17,-1
 364 313 l 1,18,-1
 105 71 l 1,19,20
 109 57 109 57 123 45 c 128,-1,21
 137 33 137 33 168 33 c 2,22,-1
 364 33 l 1,0,-1
EndSplineSet
EndChar
StartChar: braceleft
Encoding: 123 123 92
Width: 174
Flags: W
Fore
175 -79 m 1,0,1
 128 -68 128 -68 99.5 -26 c 128,-1,2
 71 16 71 16 71 103 c 2,3,-1
 71 177 l 1,4,5
 54 188 54 188 37 196.5 c 128,-1,6
 20 205 20 205 4 211 c 1,7,8
 20 217 20 217 37 226.5 c 128,-1,9
 54 236 54 236 71 247 c 1,10,-1
 71 330 l 2,11,12
 71 416 71 416 99.5 458 c 128,-1,13
 128 500 128 500 175 511 c 1,14,-1
 175 487 l 1,15,16
 138 476 138 476 118 436.5 c 128,-1,17
 98 397 98 397 99 331 c 2,18,-1
 99 252 l 1,19,-1
 99 248 l 2,20,21
 99 246 99 246 98 244 c 128,-1,22
 96 240 l 0,23,24
 94 237 94 237 90 233 c 0,25,26
 88 231 88 231 86 230 c 0,27,28
 68 218 68 218 53 213 c 1,29,30
 68 208 68 208 86 196 c 0,31,32
 87 195 87 195 89 194 c 256,33,34
 91 193 91 193 92 191.5 c 128,-1,35
 93 190 93 190 95 188 c 1,36,-1
 98 179 l 2,37,38
 99 176 99 176 99 174 c 2,39,-1
 99 102 l 2,40,41
 98 36 98 36 119 -2.5 c 128,-1,42
 140 -41 140 -41 175 -53 c 1,43,-1
 175 -79 l 1,0,1
EndSplineSet
EndChar
StartChar: bar
Encoding: 124 124 93
Width: 158
Flags: W
Fore
71 -178 m 1,0,-1
 71 539 l 1,1,-1
 95 539 l 1,2,-1
 95 -178 l 1,3,-1
 71 -178 l 1,0,-1
EndSplineSet
EndChar
StartChar: braceright
Encoding: 125 125 94
Width: 179
Flags: W
Fore
2 -53 m 1,0,1
 38 -41 38 -41 59 -2.5 c 128,-1,2
 80 36 80 36 79 102 c 2,3,-1
 79 174 l 1,4,5
 78 176 78 176 79 179 c 2,6,7
 79 182 79 182 83 188 c 2,8,9
 85 193 85 193 88 194 c 0,10,11
 90 195 90 195 91 196 c 0,12,13
 108 207 108 207 125 213 c 1,14,15
 108 219 108 219 91 230 c 1,16,-1
 88 233 l 2,17,18
 86 235 86 235 84.5 236.5 c 128,-1,19
 83 238 83 238 82 240 c 0,20,21
 79 244 79 244 79 248 c 2,22,-1
 79 252 l 1,23,-1
 79 331 l 2,24,25
 80 397 80 397 60 436.5 c 128,-1,26
 40 476 40 476 2 487 c 1,27,-1
 2 511 l 1,28,29
 25 506 25 506 44.5 493 c 128,-1,30
 64 480 64 480 78 458.5 c 128,-1,31
 92 437 92 437 99.5 405 c 128,-1,32
 107 373 107 373 107 330 c 2,33,-1
 107 247 l 1,34,35
 124 236 124 236 141 226.5 c 128,-1,36
 158 217 158 217 173 211 c 1,37,38
 158 205 158 205 141 196.5 c 128,-1,39
 124 188 124 188 107 177 c 1,40,-1
 107 103 l 2,41,42
 107 16 107 16 77.5 -26 c 128,-1,43
 48 -68 48 -68 2 -79 c 1,44,-1
 2 -53 l 1,0,1
EndSplineSet
EndChar
StartChar: asciitilde
Encoding: 126 126 95
Width: 449
Flags: W
Fore
412 255 m 1,0,-1
 412 248 l 2,1,2
 412 222 412 222 405 204.5 c 128,-1,3
 398 187 398 187 386.5 176 c 128,-1,4
 375 165 375 165 361 160 c 128,-1,5
 347 155 347 155 332 155 c 0,6,7
 313 155 313 155 289.5 161 c 128,-1,8
 266 167 266 167 221 187 c 0,9,10
 197 198 197 198 173 212 c 128,-1,11
 149 226 149 226 123 226 c 0,12,13
 99 226 99 226 80.5 206.5 c 128,-1,14
 62 187 62 187 62 155 c 1,15,-1
 42 155 l 1,16,-1
 42 162 l 2,17,18
 42 206 42 206 66.5 230.5 c 128,-1,19
 91 255 91 255 123 255 c 0,20,21
 145 255 145 255 167 245 c 128,-1,22
 189 235 189 235 230 216 c 0,23,24
 254 205 254 205 281 194.5 c 128,-1,25
 308 184 308 184 334 184 c 0,26,27
 358 184 358 184 374.5 203.5 c 128,-1,28
 391 223 391 223 391 255 c 1,29,-1
 412 255 l 1,0,-1
EndSplineSet
EndChar
StartChar: uni0E33.alt1
Encoding: 65539 -1 96
Width: 315
Flags: W
Fore
105 404 m 0,0,1
 136 404 136 404 162.5 394 c 128,-1,2
 189 384 189 384 208.5 366.5 c 128,-1,3
 228 349 228 349 239 325 c 128,-1,4
 250 301 250 301 250 274 c 2,5,-1
 250 8 l 1,6,-1
 220 8 l 1,7,-1
 220 254 l 2,8,9
 220 283 220 283 212 304.5 c 128,-1,10
 204 326 204 326 190 344 c 0,11,12
 161 378 161 378 109 378 c 0,13,14
 89 378 89 378 69 371 c 1,15,-1
 75 402 l 1,16,17
 83 404 83 404 90 404 c 128,-1,18
 97 404 97 404 105 404 c 0,0,1
-209 538 m 2,19,20
 -183 538 -183 538 -164.5 521 c 128,-1,21
 -146 504 -146 504 -146 480 c 256,22,23
 -146 456 -146 456 -164.5 439 c 128,-1,24
 -183 422 -183 422 -209 422 c 2,25,-1
 -210 422 l 2,26,27
 -236 422 -236 422 -255 439 c 128,-1,28
 -274 456 -274 456 -274 480 c 0,29,30
 -274 505 -274 505 -255 521.5 c 128,-1,31
 -236 538 -236 538 -210 538 c 2,32,-1
 -209 538 l 2,19,20
-208 439 m 2,33,34
 -201 439 -201 439 -194 443 c 128,-1,35
 -187 447 -187 447 -181.5 453 c 128,-1,36
 -176 459 -176 459 -173 466.5 c 128,-1,37
 -170 474 -170 474 -170 480 c 0,38,39
 -170 492 -170 492 -182 506 c 128,-1,40
 -194 520 -194 520 -209 522 c 2,41,-1
 -210 522 l 2,42,43
 -227 522 -227 522 -238 507 c 128,-1,44
 -249 492 -249 492 -249 480 c 0,45,46
 -249 474 -249 474 -245.5 467 c 128,-1,47
 -242 460 -242 460 -236.5 454 c 128,-1,48
 -231 448 -231 448 -224 443.5 c 128,-1,49
 -217 439 -217 439 -209 439 c 2,50,-1
 -208 439 l 2,33,34
EndSplineSet
EndChar
StartChar: quotedbl
Encoding: 34 34 97
Width: 217
Flags: W
Fore
170 358 m 1,0,-1
 139 358 l 1,1,-1
 129 499 l 1,2,-1
 180 500 l 1,3,-1
 170 358 l 1,0,-1
80 358 m 1,4,-1
 49 358 l 1,5,-1
 39 499 l 1,6,-1
 90 500 l 1,7,-1
 80 358 l 1,4,-1
EndSplineSet
EndChar
StartChar: exclam
Encoding: 33 33 98
Width: 155
Flags: W
Fore
80 95 m 0,0,1
 95 95 95 95 105 81.5 c 128,-1,2
 115 68 115 68 115 48 c 256,3,4
 115 28 115 28 104.5 14.5 c 128,-1,5
 94 1 94 1 80 0 c 0,6,7
 65 1 65 1 54.5 14.5 c 128,-1,8
 44 28 44 28 45 48 c 0,9,10
 45 68 45 68 55.5 81.5 c 128,-1,11
 66 95 66 95 80 95 c 0,0,1
64 139 m 1,12,-1
 57 494 l 1,13,-1
 104 494 l 1,14,-1
 96 139 l 1,15,-1
 64 139 l 1,12,-1
EndSplineSet
EndChar
StartChar: uni0E4E.alt1
Encoding: 65540 -1 99
Width: 0
Flags: W
Fore
-103 659 m 1,0,-1
 -111 636 l 1,1,2
 -185 648 -185 648 -185 595 c 0,3,4
 -185 564 -185 564 -144 563 c 1,5,-1
 -151 547 l 1,6,7
 -227 540 -227 540 -227 489 c 0,8,9
 -225 457 -225 457 -156 465 c 1,10,-1
 -163 444 l 1,11,12
 -266 429 -266 429 -268 483 c 0,13,14
 -268 551 -268 551 -189 560 c 1,15,16
 -222 574 -222 574 -222 602 c 0,17,18
 -218 680 -218 680 -103 659 c 1,0,-1
EndSplineSet
EndChar
StartChar: exclamdown
Encoding: 161 161 100
Width: 148
Flags: W
Fore
48 -143 m 1,0,-1
 56 209 l 1,1,-1
 88 209 l 1,2,-1
 95 -143 l 1,3,-1
 48 -143 l 1,0,-1
70 254 m 0,4,5
 55 254 55 254 45 267.5 c 128,-1,6
 35 281 35 281 35 301 c 256,7,8
 35 321 35 321 45.5 334.5 c 128,-1,9
 56 348 56 348 70 349 c 0,10,11
 85 348 85 348 95.5 334.5 c 128,-1,12
 106 321 106 321 105 301 c 0,13,14
 105 281 105 281 94.5 267.5 c 128,-1,15
 84 254 84 254 70 254 c 0,4,5
EndSplineSet
EndChar
StartChar: cent
Encoding: 162 162 101
Width: 427
Flags: W
Fore
231 84 m 1,0,1
 267 84 267 84 300 97.5 c 128,-1,2
 333 111 333 111 346 143 c 1,3,-1
 373 132 l 1,4,5
 355 96 355 96 315 79 c 128,-1,6
 275 62 275 62 231 61 c 1,7,-1
 231 -12 l 1,8,-1
 207 -12 l 1,9,-1
 207 62 l 1,10,11
 161 65 161 65 126 84 c 0,12,13
 103 98 103 98 86 117.5 c 128,-1,14
 69 137 69 137 69 163 c 2,15,-1
 69 314 l 2,16,17
 69 340 69 340 86 359.5 c 128,-1,18
 103 379 103 379 126 393 c 0,19,20
 160 413 160 413 207 416 c 1,21,-1
 207 491 l 1,22,-1
 231 491 l 1,23,-1
 231 417 l 1,24,25
 275 416 275 416 315 399 c 128,-1,26
 355 382 355 382 373 345 c 1,27,-1
 346 334 l 1,28,29
 333 366 333 366 300 380 c 128,-1,30
 267 394 267 394 231 394 c 1,31,-1
 231 84 l 1,0,1
149 103 m 0,32,33
 174 89 174 89 207 86 c 1,34,-1
 207 392 l 1,35,36
 173 387 173 387 149 374 c 0,37,38
 129 361 129 361 115 342 c 128,-1,39
 101 323 101 323 101 301 c 2,40,-1
 101 176 l 2,41,42
 101 154 101 154 115 135 c 128,-1,43
 129 116 129 116 149 103 c 0,32,33
EndSplineSet
EndChar
StartChar: sterling
Encoding: 163 163 102
Width: 382
Flags: W
Fore
66 -1 m 1,0,-1
 66 21 l 1,1,2
 115 48 115 48 136.5 84 c 128,-1,3
 158 120 158 120 158 160 c 0,4,5
 158 174 158 174 157.5 187.5 c 128,-1,6
 157 201 157 201 154 219 c 1,7,-1
 67 219 l 1,8,-1
 66 247 l 1,9,-1
 148 247 l 1,10,11
 144 264 144 264 140 289 c 128,-1,12
 136 314 136 314 136 337 c 0,13,14
 136 367 136 367 146 392.5 c 128,-1,15
 156 418 156 418 173.5 436 c 128,-1,16
 191 454 191 454 215 464.5 c 128,-1,17
 239 475 239 475 268 475 c 0,18,19
 299 475 299 475 318.5 468.5 c 128,-1,20
 338 462 338 462 352 456 c 1,21,-1
 340 434 l 1,22,23
 329 439 329 439 311 445 c 128,-1,24
 293 451 293 451 267 451 c 0,25,26
 219 451 219 451 191.5 418.5 c 128,-1,27
 164 386 164 386 164 336 c 0,28,29
 164 310 164 310 167.5 287 c 128,-1,30
 171 264 171 264 175 247 c 1,31,-1
 296 247 l 1,32,-1
 297 219 l 1,33,-1
 180 219 l 1,34,35
 181.5 210 l 130,-1,36
 183 201 183 201 184 187 c 128,-1,37
 185 173 185 173 184.5 155.5 c 128,-1,38
 184 138 184 138 180 121 c 0,39,40
 175 92 175 92 155.5 67 c 128,-1,41
 136 42 136 42 117 29 c 1,42,-1
 369 29 l 1,43,-1
 369 -1 l 1,44,-1
 66 -1 l 1,0,-1
EndSplineSet
EndChar
StartChar: currency
Encoding: 164 164 103
Width: 453
Flags: W
Fore
387 23 m 1,0,-1
 347 64 l 1,1,2
 325 43 325 43 294 32 c 128,-1,3
 263 21 263 21 230 21 c 128,-1,4
 197 21 197 21 165.5 31 c 128,-1,5
 134 41 134 41 111 61 c 1,6,-1
 72 21 l 1,7,-1
 54 39 l 1,8,-1
 93 81 l 1,9,10
 72 110 72 110 72 147 c 0,11,12
 71 170 71 170 70.5 199 c 128,-1,13
 70 228 70 228 70 251 c 0,14,15
 70 294 70 294 95 324 c 1,16,-1
 60 360 l 1,17,-1
 79 380 l 1,18,-1
 115 343 l 1,19,20
 138 361 138 361 168 369.5 c 128,-1,21
 198 378 198 378 229 377.5 c 128,-1,22
 260 377 260 377 289.5 367.5 c 128,-1,23
 319 358 319 358 341 339 c 1,24,-1
 381 379 l 1,25,-1
 400 360 l 1,26,-1
 360 319 l 1,27,28
 370 305 370 305 375.5 288 c 128,-1,29
 381 271 381 271 381 251 c 2,30,-1
 381 147 l 2,31,32
 381 128 381 128 376 112.5 c 128,-1,33
 371 97 371 97 363 84 c 1,34,-1
 405 41 l 1,35,-1
 387 23 l 1,0,-1
103 160 m 0,36,37
 103 122 103 122 121 96.5 c 128,-1,38
 139 71 139 71 166.5 58.5 c 128,-1,39
 194 46 194 46 225.5 46 c 128,-1,40
 257 46 257 46 284.5 59 c 128,-1,41
 312 72 312 72 330.5 97 c 128,-1,42
 349 122 349 122 350 160 c 0,43,44
 350 175 350 175 350 180.5 c 128,-1,45
 350 186 350 186 350 191 c 128,-1,46
 350 196 350 196 350 205.5 c 128,-1,47
 350 215 350 215 350 238 c 0,48,49
 349 276 349 276 330.5 301.5 c 128,-1,50
 312 327 312 327 284.5 340 c 128,-1,51
 257 353 257 353 225 353 c 128,-1,52
 193 353 193 353 165.5 340.5 c 128,-1,53
 138 328 138 328 119.5 302.5 c 128,-1,54
 101 277 101 277 101 239 c 0,55,56
 101 234 101 234 101.5 223.5 c 128,-1,57
 102 213 102 213 102 201 c 128,-1,58
 102 189 102 189 102.5 177.5 c 128,-1,59
 103 166 103 166 103 160 c 0,36,37
EndSplineSet
EndChar
StartChar: yen
Encoding: 165 165 104
Width: 473
Flags: W
Fore
282 233 m 0,0,1
 270 213 270 213 253 203 c 1,2,-1
 421 203 l 1,3,-1
 421 171 l 1,4,-1
 253 171 l 1,5,-1
 253 90 l 1,6,-1
 421 90 l 1,7,-1
 421 58 l 1,8,-1
 253 58 l 1,9,-1
 253 -1 l 1,10,-1
 221 -1 l 1,11,-1
 221 58 l 1,12,-1
 50 58 l 1,13,-1
 50 90 l 1,14,-1
 221 90 l 1,15,-1
 221 171 l 1,16,-1
 50 171 l 1,17,-1
 50 203 l 1,18,-1
 219 203 l 1,19,20
 208 209 208 209 201 220 c 128,-1,21
 194 231 194 231 190 236 c 0,22,23
 173 261 173 261 155 291.5 c 128,-1,24
 137 322 137 322 118.5 354 c 128,-1,25
 100 386 100 386 82.5 417.5 c 128,-1,26
 65 449 65 449 50 477 c 1,27,-1
 86 477 l 1,28,29
 115 421 115 421 150.5 362.5 c 128,-1,30
 186 304 186 304 214 253 c 0,31,32
 227 230 227 230 234.5 229 c 128,-1,33
 242 228 242 228 255 249 c 0,34,35
 287 303 287 303 323 361.5 c 128,-1,36
 359 420 359 420 391 477 c 1,37,-1
 425 477 l 1,38,39
 392 417 392 417 354 353.5 c 128,-1,40
 316 290 316 290 282 233 c 0,0,1
EndSplineSet
EndChar
StartChar: brokenbar
Encoding: 166 166 105
Width: 153
Flags: W
Fore
64 234 m 1,0,-1
 64 487 l 1,1,-1
 93 487 l 1,2,-1
 93 234 l 1,3,-1
 64 234 l 1,4,-1
 64 234 l 1,0,-1
64 -123 m 1,5,-1
 64 131 l 1,6,-1
 93 131 l 1,7,-1
 93 -123 l 1,8,-1
 64 -123 l 1,9,-1
 64 -123 l 1,5,-1
EndSplineSet
EndChar
StartChar: section
Encoding: 167 167 106
Width: 371
Flags: W
Fore
314 60 m 0,0,1
 315 33 315 33 304 13.5 c 128,-1,2
 293 -6 293 -6 274.5 -18.5 c 128,-1,3
 256 -31 256 -31 233 -37 c 128,-1,4
 210 -43 210 -43 186 -43 c 0,5,6
 166 -43 166 -43 145 -39 c 128,-1,7
 124 -35 124 -35 105.5 -26 c 128,-1,8
 87 -17 87 -17 73 -2 c 128,-1,9
 59 13 59 13 55 35 c 1,10,-1
 89 35 l 1,11,12
 94 18 94 18 104 8 c 128,-1,13
 114 -2 114 -2 127.5 -7 c 128,-1,14
 141 -12 141 -12 157 -13.5 c 128,-1,15
 173 -15 173 -15 189 -15 c 0,16,17
 208 -15 208 -15 225 -11.5 c 128,-1,18
 242 -8 242 -8 255 1 c 128,-1,19
 268 10 268 10 275 24.5 c 128,-1,20
 282 39 282 39 281 60 c 0,21,22
 279 89 279 89 262 103 c 128,-1,23
 245 117 245 117 221 125 c 0,24,25
 198 132 198 132 172 136 c 128,-1,26
 146 140 146 140 123.5 148 c 128,-1,27
 101 156 101 156 85.5 173 c 128,-1,28
 70 190 70 190 69 222 c 0,29,30
 67 254 67 254 83.5 276.5 c 128,-1,31
 100 299 100 299 126 310 c 1,32,33
 101 318 101 318 84.5 334.5 c 128,-1,34
 68 351 68 351 66 386 c 0,35,36
 64 411 64 411 74 430 c 128,-1,37
 84 449 84 449 101 461.5 c 128,-1,38
 118 474 118 474 139.5 480 c 128,-1,39
 161 486 161 486 184 486 c 0,40,41
 202 486 202 486 221.5 482 c 128,-1,42
 241 478 241 478 257.5 469 c 128,-1,43
 274 460 274 460 286.5 446 c 128,-1,44
 299 432 299 432 303 413 c 1,45,-1
 273 413 l 1,46,47
 269 429 269 429 260 437.5 c 128,-1,48
 251 446 251 446 238.5 450.5 c 128,-1,49
 226 455 226 455 211.5 456 c 128,-1,50
 197 457 197 457 182 457 c 0,51,52
 143 457 143 457 120.5 439 c 128,-1,53
 98 421 98 421 100 386 c 0,54,55
 102 353 102 353 123 340 c 128,-1,56
 144 327 144 327 173 321 c 1,57,58
 178 322 178 322 187 322 c 0,59,60
 203 322 203 322 219.5 319 c 128,-1,61
 236 316 236 316 251 309.5 c 128,-1,62
 266 303 266 303 278.5 292.5 c 128,-1,63
 291 282 291 282 299 268 c 0,64,65
 310 250 310 250 311 224 c 0,66,67
 313 192 313 192 298 171 c 128,-1,68
 283 150 283 150 260 138 c 1,69,70
 282 129 282 129 297 111.5 c 128,-1,71
 312 94 312 94 314 60 c 0,0,1
103 222 m 0,72,73
 104 201 104 201 114 188.5 c 128,-1,74
 124 176 124 176 139 168.5 c 128,-1,75
 154 161 154 161 173 157.5 c 128,-1,76
 192 154 192 154 212 151 c 1,77,78
 241 155 241 155 260.5 172 c 128,-1,79
 280 189 280 189 278 224 c 0,80,81
 276 258 276 258 254 272 c 128,-1,82
 232 286 232 286 203 293 c 1,83,-1
 185 293 l 2,84,85
 146 293 146 293 123.5 275 c 128,-1,86
 101 257 101 257 103 222 c 0,72,73
EndSplineSet
EndChar
StartChar: dieresis
Encoding: 168 168 107
Width: 216
Flags: W
Fore
171 474 m 1,0,1
 183 475 183 475 191 463.5 c 128,-1,2
 199 452 199 452 199 437 c 256,3,4
 199 422 199 422 191 411 c 128,-1,5
 183 400 183 400 171 400 c 256,6,7
 159 400 159 400 151 411 c 128,-1,8
 143 422 143 422 144 437 c 0,9,10
 144 452 144 452 152 463.5 c 128,-1,11
 160 475 160 475 171 474 c 1,0,1
43 474 m 1,12,13
 55 475 55 475 63 463.5 c 128,-1,14
 71 452 71 452 71 437 c 256,15,16
 71 422 71 422 63 411 c 128,-1,17
 55 400 55 400 43 400 c 256,18,19
 31 400 31 400 23 411 c 128,-1,20
 15 422 15 422 16 437 c 0,21,22
 16 452 16 452 24 463.5 c 128,-1,23
 32 475 32 475 43 474 c 1,12,13
EndSplineSet
EndChar
StartChar: copyright
Encoding: 169 169 108
Width: 567
Flags: W
Fore
70 366 m 2,0,1
 70 409 70 409 102 437 c 128,-1,2
 134 465 134 465 181.5 479.5 c 128,-1,3
 229 494 229 494 284.5 493.5 c 128,-1,4
 340 493 340 493 387.5 479 c 128,-1,5
 435 465 435 465 467 436.5 c 128,-1,6
 499 408 499 408 499 366 c 2,7,-1
 499 114 l 2,8,9
 499 72 499 72 467 43.5 c 128,-1,10
 435 15 435 15 387.5 1 c 128,-1,11
 340 -13 340 -13 284.5 -13.5 c 128,-1,12
 229 -14 229 -14 181.5 0.5 c 128,-1,13
 134 15 134 15 102 43 c 128,-1,14
 70 71 70 71 70 114 c 2,15,-1
 70 366 l 2,0,1
467 352 m 2,16,17
 467 391 467 391 440 416.5 c 128,-1,18
 413 442 413 442 372 455 c 128,-1,19
 331 468 331 468 284 468 c 128,-1,20
 237 468 237 468 196 455 c 128,-1,21
 155 442 155 442 128 416 c 128,-1,22
 101 390 101 390 101 352 c 2,23,-1
 101 127 l 2,24,25
 101 88 101 88 128 62.5 c 128,-1,26
 155 37 155 37 196 24 c 128,-1,27
 237 11 237 11 284 11.5 c 128,-1,28
 331 12 331 12 372 24.5 c 128,-1,29
 413 37 413 37 440 63 c 128,-1,30
 467 89 467 89 467 127 c 2,31,-1
 467 352 l 2,16,17
216 367 m 0,32,33
 196 355 196 355 183 337 c 128,-1,34
 170 319 170 319 170 298 c 2,35,-1
 170 180 l 2,36,37
 170 159 170 159 183 141 c 128,-1,38
 196 123 196 123 216 111 c 0,39,40
 235 100 235 100 262.5 95 c 128,-1,41
 290 90 290 90 317.5 94 c 128,-1,42
 345 98 345 98 368.5 111 c 128,-1,43
 392 124 392 124 402 149 c 1,44,-1
 428 138 l 1,45,46
 414 109 414 109 384.5 93 c 128,-1,47
 355 77 355 77 320.5 72.5 c 128,-1,48
 286 68 286 68 252 73.5 c 128,-1,49
 218 79 218 79 194 93 c 0,50,51
 172 106 172 106 156 124.5 c 128,-1,52
 140 143 140 143 140 167 c 2,53,-1
 140 311 l 2,54,55
 140 335 140 335 156 353.5 c 128,-1,56
 172 372 172 372 194 385 c 0,57,58
 218 399 218 399 252 404.5 c 128,-1,59
 286 410 286 410 320.5 405.5 c 128,-1,60
 355 401 355 401 384.5 385 c 128,-1,61
 414 369 414 369 428 340 c 1,62,-1
 402 329 l 1,63,64
 392 354 392 354 368.5 367 c 128,-1,65
 345 380 345 380 317.5 384 c 128,-1,66
 290 388 290 388 262.5 383 c 128,-1,67
 235 378 235 378 216 367 c 0,32,33
EndSplineSet
EndChar
StartChar: ordfeminine
Encoding: 170 170 109
Width: 252
Flags: W
Fore
191 323 m 1,0,1
 179 314 179 314 168 307.5 c 128,-1,2
 157 301 157 301 142 299 c 0,3,4
 95 291 95 291 73.5 283 c 128,-1,5
 52 275 52 275 52 247 c 0,6,7
 52 230 52 230 65 222 c 128,-1,8
 78 214 78 214 87 212 c 0,9,10
 109 209 109 209 126.5 212 c 128,-1,11
 144 215 144 215 156.5 221 c 128,-1,12
 169 227 169 227 177.5 234 c 128,-1,13
 186 241 186 241 191 245 c 1,14,-1
 191 247 l 1,15,-1
 191 322 l 1,16,-1
 191 323 l 1,0,1
213 192 m 1,17,18
 205 195 205 195 199.5 202.5 c 128,-1,19
 194 210 194 210 192 219 c 1,20,21
 186 214 186 214 175.5 208 c 128,-1,22
 165 202 165 202 150.5 197 c 128,-1,23
 136 192 136 192 118.5 189.5 c 128,-1,24
 101 187 101 187 82 191 c 0,25,26
 58 196 58 196 44 211 c 128,-1,27
 30 226 30 226 29 252 c 0,28,29
 29 273 29 273 40 285 c 128,-1,30
 51 297 51 297 68 303.5 c 128,-1,31
 85 310 85 310 105 313 c 128,-1,32
 125 316 125 316 142 320 c 0,33,34
 148 321 148 321 156 324 c 128,-1,35
 164 327 164 327 171.5 332 c 128,-1,36
 179 337 179 337 184.5 343 c 128,-1,37
 190 349 190 349 190 356 c 0,38,39
 190 375 190 375 169 390 c 0,40,41
 158 399 158 399 141 401.5 c 128,-1,42
 124 404 124 404 106 402.5 c 128,-1,43
 88 401 88 401 69.5 395.5 c 128,-1,44
 51 390 51 390 37 383 c 1,45,-1
 40 407 l 1,46,47
 72 423 72 423 111.5 423 c 128,-1,48
 151 423 151 423 180 409 c 0,49,50
 195 403 195 403 204 388 c 128,-1,51
 213 373 213 373 213 355 c 2,52,-1
 213 239 l 2,53,54
 213 229 213 229 215 221 c 128,-1,55
 217 213 217 213 228 205 c 1,56,57
 224 200 224 200 220 197 c 128,-1,58
 216 194 216 194 213 192 c 1,17,18
EndSplineSet
EndChar
StartChar: guillemotleft
Encoding: 171 171 110
Width: 442
Flags: W
Fore
241 22 m 1,0,1
 221 50 221 50 193 75.5 c 128,-1,2
 165 101 165 101 134.5 121 c 128,-1,3
 104 141 104 141 73 156 c 128,-1,4
 42 171 42 171 15 179 c 1,5,6
 42 189 42 189 72 204 c 128,-1,7
 102 219 102 219 132 239 c 128,-1,8
 162 259 162 259 190 284 c 128,-1,9
 218 309 218 309 241 338 c 1,10,-1
 241 299 l 1,11,12
 206 263 206 263 163.5 230 c 128,-1,13
 121 197 121 197 73 181 c 1,14,15
 119 167 119 167 162.5 134 c 128,-1,16
 206 101 206 101 241 60 c 1,17,-1
 241 22 l 1,0,1
394 22 m 1,18,19
 374 50 374 50 346.5 75.5 c 128,-1,20
 319 101 319 101 288.5 121 c 128,-1,21
 258 141 258 141 227 156 c 128,-1,22
 196 171 196 171 169 179 c 1,23,24
 196 189 196 189 226 204 c 128,-1,25
 256 219 256 219 286 239 c 128,-1,26
 316 259 316 259 343.5 284 c 128,-1,27
 371 309 371 309 394 338 c 1,28,-1
 394 299 l 1,29,30
 359 263 359 263 316.5 230 c 128,-1,31
 274 197 274 197 226 181 c 1,32,33
 272 167 272 167 315.5 134 c 128,-1,34
 359 101 359 101 394 60 c 1,35,-1
 394 22 l 1,18,19
EndSplineSet
EndChar
StartChar: logicalnot
Encoding: 172 172 111
Width: 429
Flags: W
Fore
373 93 m 1,0,-1
 373 252 l 1,1,-1
 28 252 l 1,2,-1
 28 278 l 1,3,-1
 399 278 l 1,4,-1
 399 93 l 1,5,-1
 373 93 l 1,0,-1
EndSplineSet
EndChar
StartChar: registered
Encoding: 174 174 112
Width: 367
Flags: W
Fore
30 369 m 0,0,1
 30 411 30 411 53 439 c 128,-1,2
 76 467 76 467 110.5 481 c 128,-1,3
 145 495 145 495 185.5 495 c 128,-1,4
 226 495 226 495 260.5 481 c 128,-1,5
 295 467 295 467 318 439 c 128,-1,6
 341 411 341 411 341 369 c 2,7,-1
 341 265 l 2,8,9
 341 223 341 223 318.5 195 c 128,-1,10
 296 167 296 167 262 153 c 128,-1,11
 228 139 228 139 188 139 c 128,-1,12
 148 139 148 139 114 153 c 128,-1,13
 80 167 80 167 56.5 195 c 128,-1,14
 33 223 33 223 32 265 c 0,15,16
 31 288 31 288 30.5 317 c 128,-1,17
 30 346 30 346 30 369 c 0,0,1
58 364 m 2,18,-1
 58 271 l 2,19,20
 58 236 58 236 77 212 c 128,-1,21
 96 188 96 188 124.5 176 c 128,-1,22
 153 164 153 164 186 163.5 c 128,-1,23
 219 163 219 163 247 174 c 128,-1,24
 275 185 275 185 294 208.5 c 128,-1,25
 313 232 313 232 313 267 c 2,26,-1
 313 365 l 2,27,28
 313 401 313 401 294.5 425.5 c 128,-1,29
 276 450 276 450 247.5 462 c 128,-1,30
 219 474 219 474 186 474 c 128,-1,31
 153 474 153 474 125 462 c 128,-1,32
 97 450 97 450 78 425.5 c 128,-1,33
 59 401 59 401 58 364 c 2,18,-1
220 318 m 1,34,35
 260 329 260 329 260 367 c 0,36,37
 260 388 260 388 252.5 400 c 128,-1,38
 245 412 245 412 234.5 418 c 128,-1,39
 224 424 224 424 211.5 426 c 128,-1,40
 199 428 199 428 189 428 c 2,41,-1
 121 428 l 1,42,-1
 121 207 l 1,43,-1
 144 207 l 1,44,-1
 144 309 l 1,45,-1
 163 309 l 2,46,47
 176 309 176 309 190.5 307 c 128,-1,48
 205 305 205 305 216 299 c 128,-1,49
 227 293 227 293 234 280 c 128,-1,50
 241 267 241 267 241 245 c 2,51,-1
 241 207 l 1,52,-1
 263 207 l 1,53,-1
 263 246 l 2,54,55
 263 278 263 278 250.5 294.5 c 128,-1,56
 238 311 238 311 220 318 c 1,34,35
144 408 m 1,57,-1
 190 408 l 2,58,59
 208 408 208 408 223 400.5 c 128,-1,60
 238 393 238 393 238 367 c 0,61,62
 239 347 239 347 223.5 342 c 128,-1,63
 208 337 208 337 188 335 c 2,64,-1
 144 335 l 1,65,66
 144 351 144 351 144 360 c 128,-1,67
 144 369 144 369 144 375.5 c 128,-1,68
 144 382 144 382 144 389 c 128,-1,69
 144 396 144 396 144 408 c 1,57,-1
EndSplineSet
EndChar
StartChar: macron
Encoding: 175 175 113
Width: 216
Flags: W
Fore
28 426 m 1,0,-1
 28 454 l 1,1,-1
 187 454 l 1,2,-1
 187 426 l 1,3,-1
 28 426 l 1,0,-1
EndSplineSet
EndChar
StartChar: degree
Encoding: 176 176 114
Width: 182
Flags: W
Fore
95 490 m 2,0,1
 121 490 121 490 139.5 473 c 128,-1,2
 158 456 158 456 158 432 c 256,3,4
 158 408 158 408 139.5 391 c 128,-1,5
 121 374 121 374 95 374 c 2,6,-1
 94 374 l 2,7,8
 68 374 68 374 49 391 c 128,-1,9
 30 408 30 408 30 432 c 0,10,11
 30 457 30 457 49 473.5 c 128,-1,12
 68 490 68 490 94 490 c 2,13,-1
 95 490 l 2,0,1
96 391 m 2,14,15
 103 391 103 391 110 395 c 128,-1,16
 117 399 117 399 122.5 405 c 128,-1,17
 128 411 128 411 131 418.5 c 128,-1,18
 134 426 134 426 134 432 c 0,19,20
 134 444 134 444 122 458 c 128,-1,21
 110 472 110 472 95 474 c 2,22,-1
 94 474 l 2,23,24
 77 474 77 474 66 459 c 128,-1,25
 55 444 55 444 55 432 c 0,26,27
 55 426 55 426 58.5 419 c 128,-1,28
 62 412 62 412 67.5 406 c 128,-1,29
 73 400 73 400 80 395.5 c 128,-1,30
 87 391 87 391 95 391 c 2,31,-1
 96 391 l 2,14,15
EndSplineSet
EndChar
StartChar: plusminus
Encoding: 177 177 115
Width: 429
Flags: W
Fore
226 228 m 1,0,-1
 226 75 l 1,1,-1
 196 75 l 1,2,-1
 196 228 l 1,3,-1
 28 228 l 1,4,-1
 28 260 l 1,5,-1
 196 260 l 1,6,-1
 196 408 l 1,7,-1
 226 408 l 1,8,-1
 226 260 l 1,9,-1
 399 260 l 1,10,-1
 399 228 l 1,11,-1
 226 228 l 1,0,-1
28 0 m 1,12,-1
 28 33 l 1,13,-1
 399 33 l 1,14,-1
 399 0 l 1,15,-1
 28 0 l 1,12,-1
EndSplineSet
EndChar
StartChar: twosuperior
Encoding: 178 178 116
Width: 259
Flags: W
Fore
32 212 m 1,0,1
 41 221 41 221 56.5 236.5 c 128,-1,2
 72 252 72 252 87.5 268.5 c 128,-1,3
 103 285 103 285 117 299 c 128,-1,4
 131 313 131 313 137 320 c 0,5,6
 150 334 150 334 160.5 347.5 c 128,-1,7
 171 361 171 361 181 374 c 0,8,9
 190 386 190 386 193 397.5 c 128,-1,10
 196 409 196 409 194 418.5 c 128,-1,11
 192 428 192 428 186.5 435 c 128,-1,12
 181 442 181 442 175 445 c 0,13,14
 163 451 163 451 150.5 451 c 128,-1,15
 138 451 138 451 131 451 c 0,16,17
 113 451 113 451 89.5 438.5 c 128,-1,18
 66 426 66 426 45 409 c 1,19,-1
 45 438 l 1,20,21
 71 460 71 460 92.5 469 c 128,-1,22
 114 478 114 478 134 478 c 0,23,24
 172 478 172 478 196 464 c 128,-1,25
 220 450 220 450 222 414 c 0,26,27
 223 401 223 401 216.5 381 c 128,-1,28
 210 361 210 361 181 327 c 0,29,30
 175 320 175 320 157.5 301 c 128,-1,31
 140 282 140 282 121 262.5 c 128,-1,32
 102 243 102 243 86.5 227.5 c 128,-1,33
 71 212 71 212 70 212 c 1,34,35
 86 213 86 213 107.5 213 c 128,-1,36
 150.5 213 l 128,-1,37
 172 213 172 213 190 212.5 c 128,-1,38
 208 212 208 212 217 212 c 1,39,-1
 217 187 l 1,40,-1
 32 187 l 1,41,-1
 32 212 l 1,0,1
EndSplineSet
EndChar
StartChar: threesuperior
Encoding: 179 179 117
Width: 257
Flags: W
Fore
76 356 m 1,0,1
 84 356 84 356 89 356.5 c 128,-1,2
 94 357 94 357 96 357 c 0,3,4
 113 357 113 357 126.5 361 c 128,-1,5
 140 365 140 365 151 370 c 0,6,7
 175 381 175 381 181 401 c 128,-1,8
 187 421 187 421 173 437 c 0,9,10
 165 447 165 447 145.5 449.5 c 128,-1,11
 126 452 126 452 108 452 c 0,12,13
 88 451 88 451 74.5 447 c 128,-1,14
 61 443 61 443 44 438 c 1,15,-1
 46 466 l 1,16,17
 66 470 66 470 79 473 c 128,-1,18
 92 476 92 476 106 477 c 0,19,20
 122 477 122 477 136 476 c 128,-1,21
 150 475 150 475 161 471 c 0,22,23
 181 463 181 463 193.5 452 c 128,-1,24
 206 441 206 441 209 417 c 0,25,26
 213 385 213 385 193.5 367.5 c 128,-1,27
 174 350 174 350 138 343 c 1,28,-1
 138 342 l 1,29,30
 176 342 176 342 195 326 c 0,31,32
 217 306 217 306 220 281 c 128,-1,33
 223 256 223 256 210 234 c 128,-1,34
 197 212 197 212 170.5 198 c 128,-1,35
 144 184 144 184 107 187 c 0,36,37
 102 187 102 187 93.5 187.5 c 128,-1,38
 85 188 85 188 75.5 189.5 c 128,-1,39
 66 191 66 191 56 193.5 c 128,-1,40
 46 196 46 196 40 199 c 1,41,-1
 38 226 l 1,42,43
 58 218 58 218 73.5 213 c 128,-1,44
 89 208 89 208 110 210 c 2,45,46
 130 209 130 209 146 214.5 c 128,-1,47
 162 220 162 220 173.5 229 c 128,-1,48
 185 238 185 238 190.5 249.5 c 128,-1,49
 196 261 196 261 194 273 c 0,50,51
 191 290 191 290 181 301 c 128,-1,52
 171 312 171 312 156 318.5 c 128,-1,53
 141 325 141 325 121.5 327.5 c 128,-1,54
 102 330 102 330 80 329 c 1,55,-1
 76 356 l 1,56,-1
 76 356 l 1,0,1
EndSplineSet
EndChar
StartChar: acute
Encoding: 180 180 118
Width: 212
Flags: W
Fore
100 353 m 1,0,-1
 69 353 l 1,1,-1
 99 494 l 1,2,-1
 150 494 l 1,3,-1
 100 353 l 1,4,-1
 100 353 l 1,0,-1
EndSplineSet
EndChar
StartChar: mu
Encoding: 956 181 119
AltUni: 956
Width: 422
Flags: W
Fore
324 0 m 1,0,-1
 322 67 l 1,1,2
 305 41 305 41 271.5 19 c 128,-1,3
 238 -3 238 -3 192 -3 c 0,4,5
 184 -3 184 -3 172.5 -1.5 c 128,-1,6
 161 0 161 0 148 5 c 128,-1,7
 135 10 135 10 122 20.5 c 128,-1,8
 109 31 109 31 97 49 c 1,9,-1
 97 -168 l 1,10,-1
 70 -168 l 1,11,-1
 70 347 l 1,12,-1
 97 347 l 1,13,-1
 97 149 l 2,14,15
 97 125 97 125 102.5 102 c 128,-1,16
 108 79 108 79 120 61.5 c 128,-1,17
 132 44 132 44 152 33 c 128,-1,18
 172 22 172 22 201 22 c 0,19,20
 223 22 223 22 244.5 32 c 128,-1,21
 266 42 266 42 282.5 58 c 128,-1,22
 299 74 299 74 309 94.5 c 128,-1,23
 319 115 319 115 319 136 c 2,24,-1
 319 347 l 1,25,-1
 347 347 l 1,26,-1
 347 85 l 2,27,28
 347 64 347 64 347.5 42.5 c 128,-1,29
 348 21 348 21 349 0 c 1,30,-1
 324 0 l 1,0,-1
EndSplineSet
EndChar
StartChar: paragraph
Encoding: 182 182 120
Width: 382
Flags: W
Fore
326 486 m 1,0,-1
 326 -35 l 1,1,-1
 299 -35 l 1,2,-1
 299 452 l 1,3,-1
 222 452 l 1,4,-1
 222 -35 l 1,5,-1
 194 -35 l 1,6,-1
 194 228 l 1,7,8
 166 211 166 211 136.5 208 c 128,-1,9
 107 205 107 205 82 219 c 0,10,11
 62 231 62 231 51 251.5 c 128,-1,12
 40 272 40 272 37.5 296.5 c 128,-1,13
 35 321 35 321 41 348.5 c 128,-1,14
 47 376 47 376 63 402 c 0,15,16
 87 444 87 444 123 465.5 c 128,-1,17
 159 487 159 487 194 485 c 1,18,-1
 194 486 l 1,19,-1
 326 486 l 1,0,-1
EndSplineSet
EndChar
StartChar: periodcentered
Encoding: 183 183 121
Width: 230
Flags: W
Fore
180 236 m 256,0,1
 180 209 180 209 161 190.5 c 128,-1,2
 142 172 142 172 115 172 c 0,3,4
 89 172 89 172 69.5 190.5 c 128,-1,5
 50 209 50 209 50 236 c 256,6,7
 50 263 50 263 69.5 282 c 128,-1,8
 89 301 89 301 115 301 c 0,9,10
 142 301 142 301 161 282 c 128,-1,11
 180 263 180 263 180 236 c 256,0,1
EndSplineSet
EndChar
StartChar: cedilla
Encoding: 184 184 122
Width: 214
Flags: W
Fore
156 -65 m 0,0,1
 162 -87 162 -87 146.5 -107 c 128,-1,2
 131 -127 131 -127 102 -135 c 0,3,4
 68 -144 68 -144 42 -131 c 1,5,-1
 47 -112 l 1,6,7
 58 -117 58 -117 71.5 -116 c 128,-1,8
 85 -115 85 -115 96 -112 c 0,9,10
 103 -110 103 -110 111.5 -106 c 128,-1,11
 120 -102 120 -102 126.5 -96.5 c 128,-1,12
 133 -91 133 -91 137 -84.5 c 128,-1,13
 141 -78 141 -78 140 -71 c 256,14,15
 139 -64 139 -64 132.5 -60 c 128,-1,16
 126 -56 126 -56 117 -54.5 c 128,-1,17
 108 -53 108 -53 98 -54 c 128,-1,18
 88 -55 88 -55 80 -56 c 1,19,20
 72 -59 72 -59 59 -66 c 1,21,-1
 59 -65 l 1,22,-1
 59 -66 l 1,23,-1
 59 -65 l 1,24,-1
 60 -63 l 1,25,-1
 63 -60 l 1,26,-1
 100 0 l 1,27,-1
 126 1 l 1,28,-1
 98 -36 l 1,29,30
 119 -34 119 -34 135 -41.5 c 128,-1,31
 151 -49 151 -49 156 -65 c 0,0,1
EndSplineSet
EndChar
StartChar: onesuperior
Encoding: 185 185 123
Width: 165
Flags: W
Fore
87 452 m 1,0,-1
 58 435 l 1,1,-1
 58 452 l 1,2,-1
 92 471 l 1,3,-1
 109 471 l 1,4,-1
 109 191 l 1,5,-1
 86 191 l 1,6,-1
 87 452 l 1,7,-1
 87 452 l 1,0,-1
EndSplineSet
EndChar
StartChar: ordmasculine
Encoding: 186 186 124
Width: 252
Flags: W
Fore
18 339 m 0,0,1
 18 367 18 367 33.5 386 c 128,-1,2
 49 405 49 405 72.5 414.5 c 128,-1,3
 96 424 96 424 123.5 424 c 128,-1,4
 151 424 151 424 174.5 414.5 c 128,-1,5
 198 405 198 405 213.5 386 c 128,-1,6
 229 367 229 367 229 339 c 2,7,-1
 229 268 l 2,8,9
 229 239 229 239 213.5 220.5 c 128,-1,10
 198 202 198 202 175 192 c 128,-1,11
 152 182 152 182 125 182 c 128,-1,12
 98 182 98 182 75 191.5 c 128,-1,13
 52 201 52 201 36 220.5 c 128,-1,14
 20 240 20 240 20 268 c 0,15,16
 19 283 19 283 18.5 303 c 128,-1,17
 18 323 18 323 18 339 c 0,0,1
41 328 m 0,18,19
 41 325 41 325 41 318 c 128,-1,20
 41 311 41 311 41.5 303.5 c 128,-1,21
 42 296 42 296 42 288.5 c 128,-1,22
 42 281 42 281 42 277 c 0,23,24
 42 252 42 252 54 235.5 c 128,-1,25
 66 219 66 219 84 211 c 128,-1,26
 102 203 102 203 123 203 c 128,-1,27
 144 203 144 203 162.5 211.5 c 128,-1,28
 181 220 181 220 193.5 236 c 128,-1,29
 206 252 206 252 206 277 c 0,30,31
 206 287 206 287 206 290.5 c 128,-1,32
 206 294 206 294 206 297 c 128,-1,33
 206 300 206 300 206 306 c 128,-1,34
 206 312 206 312 206 328 c 0,35,36
 206 354 206 354 193.5 371 c 128,-1,37
 181 388 181 388 162.5 396.5 c 128,-1,38
 144 405 144 405 123 405 c 128,-1,39
 102 405 102 405 83.5 396.5 c 128,-1,40
 65 388 65 388 53 371 c 128,-1,41
 41 354 41 354 41 328 c 0,18,19
EndSplineSet
EndChar
StartChar: guillemotright
Encoding: 187 187 125
Width: 295
Flags: W
Fore
161 49 m 1,0,-1
 119 49 l 1,1,-1
 231 181 l 1,2,3
 205 213 205 213 174.5 248 c 128,-1,4
 144 283 144 283 118 315 c 1,5,-1
 161 315 l 1,6,-1
 275 181 l 1,7,-1
 161 49 l 1,0,-1
54 49 m 1,8,-1
 12 49 l 1,9,-1
 124 181 l 1,10,11
 98 213 98 213 67.5 248 c 128,-1,12
 37 283 37 283 11 315 c 1,13,-1
 54 315 l 1,14,-1
 168 181 l 1,15,-1
 54 49 l 1,8,-1
EndSplineSet
EndChar
StartChar: onequarter
Encoding: 188 188 126
Width: 547
Flags: W
Fore
94 451 m 1,0,-1
 65 434 l 1,1,-1
 65 451 l 1,2,-1
 98 470 l 1,3,-1
 116 470 l 1,4,-1
 116 190 l 1,5,-1
 93 190 l 1,6,-1
 94 451 l 1,0,-1
404 475 m 1,7,-1
 113 -10 l 1,8,-1
 88 -10 l 1,9,-1
 378 475 l 1,10,-1
 404 475 l 1,7,-1
498 80 m 1,11,-1
 465 80 l 1,12,13
 465 75 465 75 464.5 51 c 128,-1,14
 464 27 464 27 465 2 c 1,15,-1
 443 2 l 1,16,17
 443 24 443 24 443 35.5 c 128,-1,18
 443 47 443 47 443 53.5 c 128,-1,19
 443 60 443 60 443 65 c 128,-1,20
 443 70 443 70 443 80 c 1,21,-1
 314 80 l 1,22,-1
 314 95 l 1,23,24
 347 146 347 146 379 194 c 128,-1,25
 411 242 411 242 436 282 c 1,26,-1
 466 282 l 1,27,28
 466 259 466 259 465.5 232.5 c 128,-1,29
 465 206 465 206 465 180.5 c 128,-1,30
 465 155 465 155 465 134 c 128,-1,31
 465 113 465 113 465 101 c 1,32,-1
 498 101 l 1,33,-1
 498 80 l 1,11,-1
443 101 m 1,34,35
 442 139 442 139 443.5 181.5 c 128,-1,36
 445 224 445 224 444 259 c 1,37,-1
 341 101 l 1,38,-1
 443 101 l 1,34,35
EndSplineSet
Ligature: 0 0 'frac' one fraction four
Ligature: 0 0 'frac' one slash four
EndChar
StartChar: onehalf
Encoding: 189 189 127
Width: 603
Flags: W
Fore
102 440 m 1,0,-1
 73 423 l 1,1,-1
 73 440 l 1,2,-1
 106 459 l 1,3,-1
 124 459 l 1,4,-1
 124 179 l 1,5,-1
 101 179 l 1,6,-1
 102 440 l 1,0,-1
412 464 m 1,7,-1
 121 -21 l 1,8,-1
 96 -21 l 1,9,-1
 386 464 l 1,10,-1
 412 464 l 1,7,-1
346 27 m 1,11,12
 355 36 355 36 370.5 51.5 c 128,-1,13
 386 67 386 67 401.5 83.5 c 128,-1,14
 417 100 417 100 431 114 c 128,-1,15
 445 128 445 128 451 135 c 0,16,17
 464 149 464 149 474.5 162.5 c 128,-1,18
 485 176 485 176 495 189 c 0,19,20
 504 201 504 201 507 212.5 c 128,-1,21
 510 224 510 224 508 233.5 c 128,-1,22
 506 243 506 243 500.5 250 c 128,-1,23
 495 257 495 257 489 260 c 0,24,25
 477 266 477 266 464.5 266 c 128,-1,26
 452 266 452 266 445 266 c 0,27,28
 427 266 427 266 403.5 253.5 c 128,-1,29
 380 241 380 241 359 224 c 1,30,-1
 359 253 l 1,31,32
 385 275 385 275 406.5 284 c 128,-1,33
 428 293 428 293 448 293 c 0,34,35
 486 293 486 293 510 279 c 128,-1,36
 534 265 534 265 536 229 c 0,37,38
 537 216 537 216 530.5 196 c 128,-1,39
 524 176 524 176 495 142 c 0,40,41
 489 135 489 135 471.5 116 c 128,-1,42
 454 97 454 97 435 77.5 c 128,-1,43
 416 58 416 58 400.5 42.5 c 128,-1,44
 385 27 385 27 384 27 c 1,45,46
 400 28 400 28 421.5 28 c 128,-1,47
 464.5 28 l 128,-1,48
 486 28 486 28 504 27.5 c 128,-1,49
 522 27 522 27 531 27 c 1,50,-1
 531 2 l 1,51,-1
 346 2 l 1,52,-1
 346 27 l 1,11,12
EndSplineSet
Ligature: 0 0 'frac' one fraction two
Ligature: 0 0 'frac' one slash two
EndChar
StartChar: threequarters
Encoding: 190 190 128
Width: 547
Flags: W
Fore
452 475 m 1,0,-1
 161 -10 l 1,1,-1
 136 -10 l 1,2,-1
 426 475 l 1,3,-1
 452 475 l 1,0,-1
498 80 m 1,4,-1
 465 80 l 1,5,6
 465 75 465 75 464.5 51 c 128,-1,7
 464 27 464 27 465 2 c 1,8,-1
 443 2 l 1,9,10
 443 24 443 24 443 35.5 c 128,-1,11
 443 47 443 47 443 53.5 c 128,-1,12
 443 60 443 60 443 65 c 128,-1,13
 443 70 443 70 443 80 c 1,14,-1
 314 80 l 1,15,-1
 314 95 l 1,16,17
 347 146 347 146 379 194 c 128,-1,18
 411 242 411 242 436 282 c 1,19,-1
 466 282 l 1,20,21
 466 259 466 259 465.5 232.5 c 128,-1,22
 465 206 465 206 465 180.5 c 128,-1,23
 465 155 465 155 465 134 c 128,-1,24
 465 113 465 113 465 101 c 1,25,-1
 498 101 l 1,26,-1
 498 80 l 1,4,-1
443 101 m 1,27,28
 442 139 442 139 443.5 181.5 c 128,-1,29
 445 224 445 224 444 259 c 1,30,-1
 341 101 l 1,31,-1
 443 101 l 1,27,28
81 356 m 1,32,33
 89 356 89 356 94 356.5 c 128,-1,34
 99 357 99 357 101 357 c 0,35,36
 136 357 136 357 156 367 c 0,37,38
 180 378 180 378 187 399.5 c 128,-1,39
 194 421 194 421 180 437 c 0,40,41
 172 447 172 447 151.5 449.5 c 128,-1,42
 131 452 131 452 113 452 c 0,43,44
 93 451 93 451 79.5 447 c 128,-1,45
 66 443 66 443 49 438 c 1,46,-1
 51 466 l 1,47,48
 71 470 71 470 84 473 c 128,-1,49
 97 476 97 476 111 477 c 0,50,51
 127 477 127 477 141 476 c 128,-1,52
 155 475 155 475 166 471 c 0,53,54
 186 463 186 463 198.5 452 c 128,-1,55
 211 441 211 441 214 417 c 0,56,57
 218 385 218 385 198.5 367.5 c 128,-1,58
 179 350 179 350 143 343 c 1,59,-1
 143 342 l 1,60,61
 181 342 181 342 200 326 c 0,62,63
 222 306 222 306 225 281 c 128,-1,64
 228 256 228 256 215 234 c 128,-1,65
 202 212 202 212 175.5 198 c 128,-1,66
 149 184 149 184 112 187 c 0,67,68
 107 187 107 187 98.5 187.5 c 128,-1,69
 90 188 90 188 80.5 189.5 c 128,-1,70
 71 191 71 191 61 193.5 c 128,-1,71
 51 196 51 196 45 199 c 1,72,-1
 43 220 l 1,73,74
 63 212 63 212 78.5 209 c 128,-1,75
 94 206 94 206 115 208 c 2,76,77
 134 206 134 206 149.5 210.5 c 128,-1,78
 165 215 165 215 176.5 224.5 c 128,-1,79
 188 234 188 234 194.5 246.5 c 128,-1,80
 201 259 201 259 201 273 c 0,81,82
 201 290 201 290 190.5 301 c 128,-1,83
 180 312 180 312 163 318 c 128,-1,84
 146 324 146 324 124.5 326 c 128,-1,85
 103 328 103 328 81 327 c 1,86,-1
 81 356 l 1,32,33
EndSplineSet
Ligature: 0 0 'frac' three fraction four
Ligature: 0 0 'frac' three slash four
EndChar
StartChar: questiondown
Encoding: 191 191 129
Width: 371
Flags: W
Fore
211 -23 m 0,0,1
 220 9 220 9 241 28 c 128,-1,2
 262 47 262 47 284 41 c 256,3,4
 306 35 306 35 315 8 c 128,-1,5
 324 -19 324 -19 316 -52 c 0,6,7
 310 -69 310 -69 299 -87 c 0,8,9
 285 -110 285 -110 261.5 -126.5 c 128,-1,10
 238 -143 238 -143 212 -148 c 0,11,12
 164 -159 164 -159 127 -140.5 c 128,-1,13
 90 -122 90 -122 72 -88 c 128,-1,14
 54 -54 54 -54 58.5 -12.5 c 128,-1,15
 63 29 63 29 99 65 c 0,16,17
 102 68 102 68 113 75.5 c 128,-1,18
 124 83 124 83 136.5 94 c 128,-1,19
 149 105 149 105 160.5 118 c 128,-1,20
 172 131 172 131 177 145 c 0,21,22
 182 160 182 160 184.5 173.5 c 128,-1,23
 187 187 187 187 188 198 c 0,24,25
 189 210 189 210 188 220 c 1,26,-1
 214 219 l 1,27,28
 216 209 216 209 215 197 c 0,29,30
 214 186 214 186 211.5 171 c 128,-1,31
 209 156 209 156 203 136 c 0,32,33
 198 122 198 122 185.5 107.5 c 128,-1,34
 173 93 173 93 160 81 c 0,35,36
 144 67 144 67 127 53 c 0,37,38
 99 28 99 28 91 -4.5 c 128,-1,39
 83 -37 83 -37 92 -65.5 c 128,-1,40
 101 -94 101 -94 127 -112 c 128,-1,41
 153 -130 153 -130 192 -126 c 0,42,43
 212 -124 212 -124 235 -112 c 1,44,45
 218 -103 218 -103 210.5 -78 c 128,-1,46
 203 -53 203 -53 211 -23 c 0,0,1
292 -45 m 0,47,48
 294 -36 294 -36 295 -25 c 128,-1,49
 296 -14 296 -14 294.5 -4 c 128,-1,50
 293 6 293 6 289.5 14 c 128,-1,51
 286 22 286 22 279 24 c 256,52,53
 272 26 272 26 265 21.5 c 128,-1,54
 258 17 258 17 252 8.5 c 128,-1,55
 246 0 246 0 241.5 -10 c 128,-1,56
 237 -20 237 -20 235 -29 c 0,57,58
 232 -38 232 -38 231 -49 c 128,-1,59
 230 -60 230 -60 231.5 -70.5 c 128,-1,60
 233 -81 233 -81 237 -88.5 c 128,-1,61
 241 -96 241 -96 248 -99 c 0,62,63
 255 -101 255 -101 262 -96 c 128,-1,64
 269 -91 269 -91 274.5 -82.5 c 128,-1,65
 280 -74 280 -74 284.5 -64 c 128,-1,66
 289 -54 289 -54 292 -45 c 0,47,48
201 263 m 1,67,68
 189 262 189 262 180.5 273.5 c 128,-1,69
 172 285 172 285 172 302 c 0,70,71
 172 318 172 318 180.5 329.5 c 128,-1,72
 189 341 189 341 201 341 c 0,73,74
 214 341 214 341 222.5 329.5 c 128,-1,75
 231 318 231 318 230 302 c 0,76,77
 230 285 230 285 221.5 273.5 c 128,-1,78
 213 262 213 262 201 263 c 1,67,68
EndSplineSet
EndChar
StartChar: Aring
Encoding: 197 197 134
Width: 461
Flags: W
Fore
420 1 m 1,0,-1
 389 1 l 1,1,-1
 348 157 l 1,2,-1
 117 157 l 1,3,-1
 76 1 l 1,4,-1
 45 1 l 1,5,-1
 138 372 l 2,6,7
 146 410 146 410 159 441.5 c 128,-1,8
 172 473 172 473 201 487 c 1,9,10
 186 498 186 498 177.5 517.5 c 128,-1,11
 169 537 169 537 170 560 c 0,12,13
 172 593 172 593 189.5 615 c 128,-1,14
 207 637 207 637 232 636 c 256,15,16
 257 635 257 635 273 611 c 128,-1,17
 289 587 289 587 287 554 c 0,18,19
 287 533 287 533 279 516.5 c 128,-1,20
 271 500 271 500 258 489 c 1,21,22
 275 483 275 483 287 470 c 128,-1,23
 299 457 299 457 306.5 440.5 c 128,-1,24
 314 424 314 424 319 406 c 128,-1,25
 324 388 324 388 327 372 c 2,26,-1
 420 1 l 1,0,-1
230 618 m 256,27,28
 222 619 222 619 216 613 c 128,-1,29
 210 607 210 607 206 598 c 128,-1,30
 202 589 202 589 200 578.5 c 128,-1,31
 198 568 198 568 197 559 c 0,32,33
 197 550 197 550 198.5 539.5 c 128,-1,34
 200 529 200 529 203.5 519.5 c 128,-1,35
 207 510 207 510 212.5 503 c 128,-1,36
 218 496 218 496 226 495 c 0,37,38
 235 495 235 495 241 501 c 128,-1,39
 247 507 247 507 251.5 516 c 128,-1,40
 256 525 256 525 258.5 536 c 128,-1,41
 261 547 261 547 261 556 c 256,42,43
 261 565 261 565 259.5 575.5 c 128,-1,44
 258 586 258 586 254 595 c 128,-1,45
 250 604 250 604 244 610.5 c 128,-1,46
 238 617 238 617 230 618 c 256,27,28
341 184 m 1,47,-1
 297 355 l 2,48,49
 291 377 291 377 286.5 394 c 128,-1,50
 282 411 282 411 273 431 c 0,51,52
 266 449 266 449 254.5 456 c 128,-1,53
 243 463 243 463 231 462 c 128,-1,54
 219 461 219 461 208 452.5 c 128,-1,55
 197 444 197 444 192 429 c 0,56,57
 184 409 184 409 179 392.5 c 128,-1,58
 174 376 174 376 168 355 c 2,59,-1
 124 184 l 1,60,-1
 341 184 l 1,47,-1
EndSplineSet
EndChar
StartChar: AE
Encoding: 198 198 135
Width: 760
Flags: W
Fore
564 457 m 2,0,1
 538 457 538 457 513.5 452 c 128,-1,2
 489 447 489 447 469.5 433.5 c 128,-1,3
 450 420 450 420 437 396 c 128,-1,4
 424 372 424 372 421 333 c 2,5,-1
 420 243 l 1,6,-1
 626 243 l 1,7,-1
 626 216 l 1,8,-1
 420 216 l 1,9,-1
 420 171 l 2,10,11
 417 125 417 125 428.5 95.5 c 128,-1,12
 440 66 440 66 460 49.5 c 128,-1,13
 480 33 480 33 507.5 26 c 128,-1,14
 535 19 535 19 564 18 c 2,15,-1
 702 18 l 1,16,-1
 702 -7 l 1,17,-1
 566 -7 l 2,18,19
 519 -6 519 -6 480.5 3.5 c 128,-1,20
 442 13 442 13 418 46 c 1,21,-1
 418 -7 l 1,22,-1
 387 -7 l 1,23,-1
 386 149 l 1,24,-1
 155 149 l 1,25,-1
 74 -7 l 1,26,-1
 43 -7 l 1,27,-1
 232 364 l 2,28,29
 243 387 243 387 255 409.5 c 128,-1,30
 267 432 267 432 281.5 449.5 c 128,-1,31
 296 467 296 467 314 477.5 c 128,-1,32
 332 488 332 488 355 487 c 0,33,34
 384 485 384 485 397.5 467.5 c 128,-1,35
 411 450 411 450 416 427 c 1,36,37
 439 460 439 460 479 471 c 128,-1,38
 519 482 519 482 566 483 c 2,39,-1
 702 483 l 1,40,-1
 702 457 l 1,41,-1
 564 457 l 2,0,1
387 347 m 2,42,43
 386 369 386 369 386 386 c 128,-1,44
 386 403 386 403 382 423 c 0,45,46
 380 441 380 441 370.5 448 c 128,-1,47
 361 455 361 455 348.5 454 c 128,-1,48
 336 453 336 453 323 444.5 c 128,-1,49
 310 436 310 436 301 421 c 0,50,51
 288 401 288 401 278.5 384.5 c 128,-1,52
 269 368 269 368 258 347 c 2,53,-1
 169 176 l 1,54,-1
 386 176 l 1,55,-1
 387 347 l 2,42,43
EndSplineSet
EndChar
StartChar: Eth
Encoding: 208 208 145
Width: 466
Flags: W
Fore
71 486 m 1,0,1
 141 486 141 486 201.5 479 c 128,-1,2
 262 472 262 472 306 446.5 c 128,-1,3
 350 421 350 421 375 372.5 c 128,-1,4
 400 324 400 324 401 242 c 0,5,6
 400 177 400 177 387 133.5 c 128,-1,7
 374 90 374 90 351 62.5 c 128,-1,8
 328 35 328 35 297 21.5 c 128,-1,9
 266 8 266 8 229.5 2.5 c 128,-1,10
 193 -3 193 -3 152.5 -3 c 128,-1,11
 112 -3 112 -3 71 -3 c 1,12,-1
 71 223 l 1,13,-1
 3 223 l 1,14,-1
 3 250 l 1,15,-1
 71 250 l 1,16,-1
 71 486 l 1,0,1
101 22 m 1,17,18
 179 19 179 19 231 30 c 128,-1,19
 283 41 283 41 314.5 67.5 c 128,-1,20
 346 94 346 94 358.5 137.5 c 128,-1,21
 371 181 371 181 371 242 c 0,22,23
 371 299 371 299 356 341 c 128,-1,24
 341 383 341 383 309 410 c 128,-1,25
 277 437 277 437 225.5 449.5 c 128,-1,26
 174 462 174 462 101 461 c 1,27,-1
 101 250 l 1,28,-1
 244 250 l 1,29,-1
 244 223 l 1,30,-1
 101 223 l 1,31,-1
 101 22 l 1,17,18
EndSplineSet
EndChar
StartChar: multiply
Encoding: 215 215 152
Width: 429
Flags: W
Fore
374 0 m 1,0,-1
 214 164 l 1,1,2
 176 126 176 126 133.5 82.5 c 128,-1,3
 91 39 91 39 53 0 c 1,4,-1
 28 24 l 1,5,-1
 189 189 l 1,6,-1
 28 355 l 1,7,-1
 53 379 l 1,8,-1
 214 214 l 1,9,-1
 374 379 l 1,10,-1
 399 355 l 1,11,-1
 238 189 l 1,12,-1
 399 24 l 1,13,-1
 374 0 l 1,0,-1
EndSplineSet
EndChar
StartChar: Oslash
Encoding: 216 216 153
Width: 475
Flags: W
Fore
409 275 m 0,0,1
 411 235 411 235 410 201.5 c 128,-1,2
 409 168 409 168 401 136 c 0,3,4
 392 98 392 98 374.5 71 c 128,-1,5
 357 44 357 44 335.5 26.5 c 128,-1,6
 314 9 314 9 290.5 1.5 c 128,-1,7
 267 -6 267 -6 248 -5 c 0,8,9
 196 -3 196 -3 153 27 c 1,10,-1
 130 -21 l 1,11,-1
 98 -21 l 1,12,-1
 131 46 l 1,13,14
 106 71 106 71 90.5 108 c 128,-1,15
 75 145 75 145 73 194 c 0,16,17
 71 241 71 241 73.5 280 c 128,-1,18
 76 319 76 319 85 351 c 0,19,20
 104 417 104 417 142 450 c 0,21,22
 159 465 159 465 182 475.5 c 128,-1,23
 205 486 205 486 238 487 c 0,24,25
 271 486 271 486 294 480.5 c 128,-1,26
 317 475 317 475 334 461 c 1,27,-1
 353 501 l 1,28,-1
 384 501 l 1,29,-1
 354 440 l 1,30,31
 357 436 357 436 360 432.5 c 128,-1,32
 363 429 363 429 365 425 c 0,33,34
 385 396 385 396 395.5 361 c 128,-1,35
 406 326 406 326 409 275 c 0,0,1
100 196 m 0,36,37
 102 158 102 158 111.5 124.5 c 128,-1,38
 121 91 121 91 141 66 c 1,39,-1
 323 440 l 1,40,41
 309 454 309 454 288.5 461.5 c 128,-1,42
 268 469 268 469 239 467 c 0,43,44
 208 467 208 467 185 453.5 c 128,-1,45
 162 440 162 440 145.5 418 c 128,-1,46
 129 396 129 396 119 368.5 c 128,-1,47
 109 341 109 341 105 313 c 0,48,49
 101 286 101 286 99.5 257 c 128,-1,50
 98 228 98 228 100 196 c 0,36,37
379 164 m 0,51,52
 382 193 382 193 382 220 c 128,-1,53
 382 247 382 247 380 279 c 0,54,55
 377 332 377 332 362 376 c 0,56,57
 357 387 357 387 352 397 c 128,-1,58
 347 407 347 407 342 415 c 1,59,-1
 162 45 l 1,60,61
 197 16 197 16 249 15 c 0,62,63
 278 14 278 14 301 28 c 128,-1,64
 324 42 324 42 340.5 64 c 128,-1,65
 357 86 357 86 366.5 112.5 c 128,-1,66
 376 139 376 139 379 164 c 0,51,52
EndSplineSet
EndChar
StartChar: Thorn
Encoding: 222 222 159
Width: 424
Flags: W
Fore
219 415 m 0,0,1
 262 412 262 412 292.5 393.5 c 128,-1,2
 323 375 323 375 342 347.5 c 128,-1,3
 361 320 361 320 369 285.5 c 128,-1,4
 377 251 377 251 374 217 c 0,5,6
 371 187 371 187 361 158.5 c 128,-1,7
 351 130 351 130 333 108.5 c 128,-1,8
 315 87 315 87 290 74 c 128,-1,9
 265 61 265 61 234 61 c 0,10,11
 205 61 205 61 185 65 c 128,-1,12
 165 69 165 69 151 75 c 128,-1,13
 137 81 137 81 126 88.5 c 128,-1,14
 115 96 115 96 103 104 c 1,15,-1
 103 1 l 1,16,-1
 70 1 l 1,17,-1
 70 475 l 1,18,-1
 103 475 l 1,19,-1
 103 369 l 1,20,21
 112 382 112 382 128 391 c 128,-1,22
 144 400 144 400 162 405.5 c 128,-1,23
 180 411 180 411 195.5 413.5 c 128,-1,24
 211 416 211 416 219 415 c 0,0,1
342 220 m 0,25,26
 345 249 345 249 339 278 c 128,-1,27
 333 307 333 307 318 331 c 128,-1,28
 303 355 303 355 278.5 371.5 c 128,-1,29
 254 388 254 388 220 392 c 0,30,31
 208 393 208 393 192 389 c 128,-1,32
 176 385 176 385 159.5 377 c 128,-1,33
 143 369 143 369 128 356.5 c 128,-1,34
 113 344 113 344 103 328 c 1,35,-1
 103 138 l 1,36,37
 126 116 126 116 155 100.5 c 128,-1,38
 184 85 184 85 227 87 c 0,39,40
 252 88 252 88 272.5 99 c 128,-1,41
 293 110 293 110 307.5 128.5 c 128,-1,42
 322 147 322 147 331 170.5 c 128,-1,43
 340 194 340 194 342 220 c 0,25,26
EndSplineSet
EndChar
StartChar: uni00DF
Encoding: 223 223 160
Width: 488
Flags: W
Fore
314 278 m 1,0,1
 332 274 332 274 354.5 264.5 c 128,-1,2
 377 255 377 255 396.5 238 c 128,-1,3
 416 221 416 221 429 195 c 128,-1,4
 442 169 442 169 441 132 c 0,5,6
 441 86 441 86 424.5 57.5 c 128,-1,7
 408 29 408 29 384 13.5 c 128,-1,8
 360 -2 360 -2 332 -7.5 c 128,-1,9
 304 -13 304 -13 281 -13 c 2,10,-1
 203 -13 l 1,11,-1
 203 13 l 1,12,-1
 288 13 l 2,13,14
 308 13 308 13 329.5 18.5 c 128,-1,15
 351 24 351 24 368.5 37.5 c 128,-1,16
 386 51 386 51 397.5 75 c 128,-1,17
 409 99 409 99 409 135 c 0,18,19
 409 165 409 165 396 188.5 c 128,-1,20
 383 212 383 212 363.5 228.5 c 128,-1,21
 344 245 344 245 321 254 c 128,-1,22
 298 263 298 263 279 265 c 2,23,-1
 229 265 l 1,24,-1
 229 293 l 1,25,-1
 279 293 l 2,26,27
 294 293 294 293 308 299.5 c 128,-1,28
 322 306 322 306 333.5 317.5 c 128,-1,29
 345 329 345 329 352 343.5 c 128,-1,30
 359 358 359 358 359 373 c 0,31,32
 359 404 359 404 339 426 c 128,-1,33
 319 448 319 448 288 447 c 2,34,-1
 209 447 l 2,35,36
 171 448 171 448 154 422 c 128,-1,37
 137 396 137 396 137 346 c 0,38,39
 137 301 137 301 137 253 c 128,-1,40
 137 205 137 205 137.5 163 c 128,-1,41
 138 121 138 121 138 89.5 c 128,-1,42
 138 58 138 58 138 46 c 0,43,44
 140 5 140 5 135 -22.5 c 128,-1,45
 130 -50 130 -50 115.5 -66.5 c 128,-1,46
 101 -83 101 -83 77 -89.5 c 128,-1,47
 53 -96 53 -96 17 -96 c 2,48,-1
 0 -96 l 1,49,-1
 0 -70 l 1,50,-1
 17 -70 l 2,51,52
 47 -70 47 -70 65.5 -62 c 128,-1,53
 84 -54 84 -54 93.5 -40 c 128,-1,54
 103 -26 103 -26 105.5 -4.5 c 128,-1,55
 108 17 108 17 108 44 c 2,56,-1
 107 349 l 2,57,58
 108 357 108 357 108.5 377 c 128,-1,59
 109 397 109 397 117.5 418 c 128,-1,60
 126 439 126 439 145 455.5 c 128,-1,61
 164 472 164 472 202 472 c 2,62,-1
 289 472 l 2,63,64
 334 472 334 472 361 444.5 c 128,-1,65
 388 417 388 417 388 375 c 0,66,67
 388 342 388 342 367 314.5 c 128,-1,68
 346 287 346 287 314 278 c 1,0,1
EndSplineSet
EndChar
StartChar: ae
Encoding: 230 230 167
Width: 656
Flags: W
Fore
382 48 m 0,0,1
 402 36 402 36 431 31.5 c 128,-1,2
 460 27 460 27 489.5 30.5 c 128,-1,3
 519 34 519 34 543 48 c 128,-1,4
 567 62 567 62 578 88 c 1,5,-1
 605 77 l 1,6,7
 590 47 590 47 559 30 c 128,-1,8
 528 13 528 13 491.5 8 c 128,-1,9
 455 3 455 3 419 8.5 c 128,-1,10
 383 14 383 14 358 29 c 0,11,12
 357 30 357 30 352 33.5 c 128,-1,13
 347 37 347 37 341 42 c 128,-1,14
 335 47 335 47 329.5 52.5 c 128,-1,15
 324 58 324 58 322 63 c 1,16,17
 322 64 322 64 302 49 c 0,18,19
 293 42 293 42 276.5 32 c 128,-1,20
 260 22 260 22 238 14.5 c 128,-1,21
 216 7 216 7 189 3.5 c 128,-1,22
 162 0 162 0 133 6 c 0,23,24
 95 14 95 14 73.5 36.5 c 128,-1,25
 52 59 52 59 52 99 c 0,26,27
 52 133 52 133 69 151.5 c 128,-1,28
 86 170 86 170 112 179.5 c 128,-1,29
 138 189 138 189 168.5 193.5 c 128,-1,30
 199 198 199 198 225 204 c 0,31,32
 234 206 234 206 246.5 210.5 c 128,-1,33
 259 215 259 215 270.5 222.5 c 128,-1,34
 282 230 282 230 290.5 239 c 128,-1,35
 299 248 299 248 299 259 c 0,36,37
 299 273 299 273 291 289 c 128,-1,38
 283 305 283 305 267 316 c 0,39,40
 249 329 249 329 223.5 333.5 c 128,-1,41
 198 338 198 338 169.5 335.5 c 128,-1,42
 141 333 141 333 113 324.5 c 128,-1,43
 85 316 85 316 63 305 c 1,44,-1
 69 337 l 1,45,46
 94 349 94 349 122 355.5 c 128,-1,47
 150 362 150 362 178.5 362.5 c 128,-1,48
 207 363 207 363 234 357.5 c 128,-1,49
 261 352 261 352 284 341 c 0,50,51
 308 330 308 330 321 308 c 1,52,53
 335 325 335 325 358 338 c 0,54,55
 377 349 377 349 401 355.5 c 128,-1,56
 425 362 425 362 450.5 362 c 128,-1,57
 476 362 476 362 501 356 c 128,-1,58
 526 350 526 350 549 337 c 0,59,60
 571 324 571 324 588 301 c 128,-1,61
 605 278 605 278 607 251 c 0,62,63
 608 222 608 222 602 204.5 c 128,-1,64
 596 187 596 187 579 177.5 c 128,-1,65
 562 168 562 168 533 165 c 128,-1,66
 504 162 504 162 461 162 c 2,67,-1
 334 162 l 1,68,-1
 334 106 l 1,69,70
 339 89 339 89 352 74 c 128,-1,71
 365 59 365 59 382 48 c 0,0,1
382 319 m 0,72,73
 365 308 365 308 352 293.5 c 128,-1,74
 339 279 339 279 334 261 c 1,75,-1
 334 258 l 1,76,-1
 334 189 l 1,77,-1
 461 189 l 2,78,79
 492 189 492 189 514 189.5 c 128,-1,80
 536 190 536 190 550.5 196 c 128,-1,81
 565 202 565 202 571.5 214 c 128,-1,82
 578 226 578 226 577 248 c 0,83,84
 576 267 576 267 563.5 286 c 128,-1,85
 551 305 551 305 536 315 c 0,86,87
 518 327 518 327 497.5 332.5 c 128,-1,88
 477 338 477 338 456.5 338 c 128,-1,89
 436 338 436 338 416.5 333 c 128,-1,90
 397 328 397 328 382 319 c 0,72,73
301 213 m 1,91,92
 282 199 282 199 265 191.5 c 128,-1,93
 248 184 248 184 225 180 c 0,94,95
 203 176 203 176 178 171 c 128,-1,96
 153 166 153 166 131.5 157.5 c 128,-1,97
 110 149 110 149 96 135 c 128,-1,98
 82 121 82 121 82 99 c 0,99,100
 82 72 82 72 98.5 53.5 c 128,-1,101
 115 35 115 35 141 32 c 0,102,103
 175 27 175 27 199.5 31 c 128,-1,104
 224 35 224 35 242.5 43.5 c 128,-1,105
 261 52 261 52 275 63 c 128,-1,106
 289 74 289 74 301 83 c 1,107,-1
 301 213 l 1,91,92
EndSplineSet
EndChar
StartChar: igrave
Encoding: 236 236 173
Width: 195
Flags: W
Fore
70 0 m 1,0,-1
 103 0 l 1,1,-1
 103 339 l 1,2,-1
 70 339 l 1,3,-1
 70 0 l 1,0,-1
94 403 m 1,4,-1
 0 507 l 1,5,-1
 48 507 l 1,6,-1
 126 403 l 1,7,-1
 94 403 l 1,4,-1
EndSplineSet
Ligature: 0 0 'liga' i gravecomb
EndChar
StartChar: iacute
Encoding: 237 237 174
Width: 195
Flags: W
Fore
70 0 m 1,0,-1
 103 0 l 1,1,-1
 103 339 l 1,2,-1
 70 339 l 1,3,-1
 70 0 l 1,0,-1
100 403 m 1,4,-1
 69 403 l 1,5,-1
 146 507 l 1,6,-1
 195 507 l 1,7,-1
 100 403 l 1,4,-1
EndSplineSet
Ligature: 0 0 'liga' i acutecomb
EndChar
StartChar: icircumflex
Encoding: 238 238 175
Width: 195
Flags: W
Fore
70 339 m 1,0,-1
 103 339 l 1,1,-1
 103 0 l 1,2,-1
 70 0 l 1,3,-1
 70 339 l 1,0,-1
1 402 m 1,4,5
 9 407 9 407 23.5 419 c 128,-1,6
 38 431 38 431 52.5 446.5 c 128,-1,7
 67 462 67 462 79.5 479 c 128,-1,8
 92 496 92 496 97 511 c 1,9,10
 109 485 109 485 136.5 455 c 128,-1,11
 164 425 164 425 194 402 c 1,12,-1
 151 402 l 1,13,14
 130 418 130 418 117 436 c 128,-1,15
 104 454 104 454 98 465 c 1,16,17
 93 454 93 454 77 434.5 c 128,-1,18
 61 415 61 415 44 402 c 1,19,-1
 1 402 l 1,4,5
EndSplineSet
EndChar
StartChar: idieresis
Encoding: 239 239 176
Width: 190
Flags: W
Fore
70 339 m 1,0,-1
 103 339 l 1,1,-1
 103 0 l 1,2,-1
 70 0 l 1,3,-1
 70 339 l 1,0,-1
155 476 m 1,4,5
 167 477 167 477 175 465.5 c 128,-1,6
 183 454 183 454 183 439 c 256,7,8
 183 424 183 424 175 413 c 128,-1,9
 167 402 167 402 155 402 c 256,10,11
 143 402 143 402 135 413 c 128,-1,12
 127 424 127 424 128 439 c 0,13,14
 128 454 128 454 136 465.5 c 128,-1,15
 144 477 144 477 155 476 c 1,4,5
27 476 m 1,16,17
 39 477 39 477 47 465.5 c 128,-1,18
 55 454 55 454 55 439 c 256,19,20
 55 424 55 424 47 413 c 128,-1,21
 39 402 39 402 27 402 c 256,22,23
 15 402 15 402 7 413 c 128,-1,24
 -1 424 -1 424 0 439 c 0,25,26
 0 454 0 454 8 465.5 c 128,-1,27
 16 477 16 477 27 476 c 1,16,17
EndSplineSet
EndChar
StartChar: eth
Encoding: 240 240 177
Width: 453
Flags: W
Fore
389 195 m 0,0,1
 394 178 394 178 395.5 162 c 128,-1,2
 397 146 397 146 397 131 c 0,3,4
 397 81 397 81 371 49 c 0,5,6
 346 20 346 20 306 6 c 0,7,8
 270 -6 270 -6 226 -6 c 0,9,10
 175 -6 175 -6 138 14 c 0,11,12
 100 33 100 33 80 69 c 0,13,14
 71 86 71 86 65.5 104 c 128,-1,15
 60 122 60 122 60 143 c 0,16,17
 60 161 60 161 64 177.5 c 128,-1,18
 68 194 68 194 75 209 c 0,19,20
 92 241 92 241 123 256 c 0,21,22
 140 265 140 265 165 271 c 128,-1,23
 190 277 190 277 216 277 c 0,24,25
 254 278 254 278 287 266.5 c 128,-1,26
 320 255 320 255 340 243 c 1,27,28
 335 254 335 254 329 266 c 128,-1,29
 323 278 323 278 316 290 c 0,30,31
 306 307 306 307 295.5 325 c 128,-1,32
 285 343 285 343 272 361 c 1,33,-1
 178 319 l 1,34,-1
 166 347 l 1,35,-1
 254 385 l 1,36,37
 237 409 237 409 217 432.5 c 128,-1,38
 197 456 197 456 174 480 c 1,39,-1
 214 480 l 1,40,41
 233 457 233 457 249.5 436.5 c 128,-1,42
 266 416 266 416 280 397 c 1,43,-1
 365 434 l 1,44,-1
 377 407 l 1,45,-1
 298 372 l 1,46,47
 300 368 300 368 304 362 c 0,48,49
 323 336 323 336 337 313 c 128,-1,50
 351 290 351 290 360 270 c 0,51,52
 381 227 381 227 389 195 c 0,0,1
348 70 m 0,53,54
 366 98 366 98 366 135 c 0,55,56
 366 162 366 162 357 194 c 1,57,58
 329 222 329 222 289 236.5 c 128,-1,59
 249 251 249 251 214 252 c 0,60,61
 182 253 182 253 157.5 246.5 c 128,-1,62
 133 240 133 240 119 224 c 0,63,64
 89 194 89 194 89 147 c 0,65,66
 89 113 89 113 105 81 c 0,67,68
 113 66 113 66 125 54 c 128,-1,69
 137 42 137 42 153 32 c 0,70,71
 169 24 169 24 189 19 c 128,-1,72
 209 14 209 14 233 14 c 0,73,74
 270 14 270 14 300 28 c 0,75,76
 330 43 330 43 348 70 c 0,53,54
EndSplineSet
EndChar
StartChar: divide
Encoding: 247 247 184
Width: 429
Flags: W
Fore
28 178 m 1,0,-1
 28 208 l 1,1,-1
 400 208 l 1,2,-1
 400 178 l 1,3,-1
 28 178 l 1,0,-1
217 113 m 1,4,5
 229 114 229 114 237.5 102.5 c 128,-1,6
 246 91 246 91 246 74 c 0,7,8
 246 58 246 58 237.5 46.5 c 128,-1,9
 229 35 229 35 217 35 c 0,10,11
 204 35 204 35 195.5 46.5 c 128,-1,12
 187 58 187 58 188 74 c 0,13,14
 188 91 188 91 196.5 102.5 c 128,-1,15
 205 114 205 114 217 113 c 1,4,5
217 353 m 1,16,17
 229 354 229 354 237.5 342.5 c 128,-1,18
 246 331 246 331 246 314 c 0,19,20
 246 298 246 298 237.5 286.5 c 128,-1,21
 229 275 229 275 217 275 c 0,22,23
 204 275 204 275 195.5 286.5 c 128,-1,24
 187 298 187 298 188 314 c 0,25,26
 188 331 188 331 196.5 342.5 c 128,-1,27
 205 354 205 354 217 353 c 1,16,17
EndSplineSet
EndChar
StartChar: oslash
Encoding: 248 248 185
Width: 426
Flags: W
Fore
309 327 m 1,0,1
 338 312 338 312 355.5 286 c 128,-1,2
 373 260 373 260 373 223 c 2,3,-1
 373 119 l 2,4,5
 373 78 373 78 351 50 c 128,-1,6
 329 22 329 22 296 8 c 128,-1,7
 263 -6 263 -6 224 -7 c 128,-1,8
 185 -8 185 -8 151 5 c 1,9,-1
 130 -38 l 1,10,-1
 105 -27 l 1,11,-1
 126 17 l 1,12,13
 99 32 99 32 82 57.5 c 128,-1,14
 65 83 65 83 64 119 c 0,15,16
 63 142 63 142 62.5 171 c 128,-1,17
 62 200 62 200 62 223 c 0,18,19
 62 263 62 263 83.5 291 c 128,-1,20
 105 319 105 319 138 333.5 c 128,-1,21
 171 348 171 348 209.5 349.5 c 128,-1,22
 248 351 248 351 283 339 c 1,23,-1
 305 385 l 1,24,-1
 331 371 l 1,25,-1
 309 327 l 1,0,1
95 132 m 0,26,27
 95 101 95 101 107 78.5 c 128,-1,28
 119 56 119 56 138 42 c 1,29,-1
 271 315 l 1,30,31
 243 326 243 326 212 325 c 128,-1,32
 181 324 181 324 154.5 311 c 128,-1,33
 128 298 128 298 110.5 273 c 128,-1,34
 93 248 93 248 93 211 c 0,35,36
 93 206 93 206 93.5 195.5 c 128,-1,37
 94 185 94 185 94 173 c 128,-1,38
 94 161 94 161 94.5 149.5 c 128,-1,39
 95 138 95 138 95 132 c 0,26,27
342 132 m 0,40,41
 342 147 342 147 342 152.5 c 128,-1,42
 342 158 342 158 342 163 c 128,-1,43
 342 168 342 168 342 177.5 c 128,-1,44
 342 187 342 187 342 210 c 0,45,46
 341 242 341 242 328.5 264.5 c 128,-1,47
 316 287 316 287 296 301 c 1,48,-1
 162 29 l 1,49,50
 189 17 189 17 220.5 18 c 128,-1,51
 252 19 252 19 278.5 32 c 128,-1,52
 305 45 305 45 323 70 c 128,-1,53
 341 95 341 95 342 132 c 0,40,41
EndSplineSet
EndChar
StartChar: thorn
Encoding: 254 254 191
Width: 435
Flags: W
Fore
220 345 m 0,0,1
 263 342 263 342 293.5 323.5 c 128,-1,2
 324 305 324 305 343 277.5 c 128,-1,3
 362 250 362 250 370 215.5 c 128,-1,4
 378 181 378 181 375 147 c 0,5,6
 372 117 372 117 362 88.5 c 128,-1,7
 352 60 352 60 334 38.5 c 128,-1,8
 316 17 316 17 291 4 c 128,-1,9
 266 -9 266 -9 235 -9 c 0,10,11
 206 -9 206 -9 186 -5 c 128,-1,12
 166 -1 166 -1 152 5 c 128,-1,13
 138 11 138 11 127 18.5 c 128,-1,14
 116 26 116 26 104 34 c 1,15,-1
 104 -145 l 1,16,-1
 71 -145 l 1,17,-1
 71 473 l 1,18,-1
 104 473 l 1,19,-1
 104 299 l 1,20,21
 113 312 113 312 129 321 c 128,-1,22
 145 330 145 330 163 335.5 c 128,-1,23
 181 341 181 341 196.5 343.5 c 128,-1,24
 212 346 212 346 220 345 c 0,0,1
343 150 m 0,25,26
 346 179 346 179 340 208 c 128,-1,27
 334 237 334 237 319 261 c 128,-1,28
 304 285 304 285 279.5 301.5 c 128,-1,29
 255 318 255 318 221 322 c 0,30,31
 209 323 209 323 193 319 c 128,-1,32
 177 315 177 315 160.5 307 c 128,-1,33
 144 299 144 299 129 286.5 c 128,-1,34
 114 274 114 274 104 258 c 1,35,-1
 104 68 l 1,36,37
 127 46 127 46 156 30.5 c 128,-1,38
 185 15 185 15 228 17 c 0,39,40
 253 18 253 18 273.5 29 c 128,-1,41
 294 40 294 40 308.5 58.5 c 128,-1,42
 323 77 323 77 332 100.5 c 128,-1,43
 341 124 341 124 343 150 c 0,25,26
EndSplineSet
EndChar
StartChar: Lslash
Encoding: 321 321 193
Width: 353
Flags: W
Fore
61 0 m 1,0,-1
 61 211 l 1,1,2
 44 200 44 200 27.5 187.5 c 128,-1,3
 11 175 11 175 -5 164 c 1,4,-1
 -5 200 l 1,5,-1
 61 247 l 1,6,-1
 61 484 l 1,7,-1
 101 484 l 1,8,-1
 101 271 l 1,9,10
 127 288 127 288 153 306.5 c 128,-1,11
 179 325 179 325 205 342 c 1,12,-1
 205 305 l 1,13,-1
 101 235 l 1,14,-1
 101 34 l 1,15,-1
 339 34 l 1,16,-1
 339 0 l 1,17,-1
 61 0 l 1,0,-1
EndSplineSet
EndChar
StartChar: lslash
Encoding: 322 322 194
Width: 162
Flags: W
Fore
100 261 m 1,0,-1
 100 0 l 1,1,-1
 61 0 l 1,2,-1
 61 234 l 1,3,4
 49 224 49 224 35.5 212.5 c 128,-1,5
 22 201 22 201 10 191 c 1,6,-1
 10 229 l 1,7,-1
 61 270 l 1,8,-1
 61 515 l 1,9,-1
 100 515 l 1,10,-1
 100 301 l 1,11,12
 112 311 112 311 126 321.5 c 128,-1,13
 140 332 140 332 151 342 c 1,14,-1
 151 304 l 1,15,-1
 100 261 l 1,0,-1
EndSplineSet
EndChar
StartChar: OE
Encoding: 338 338 195
Width: 693
Flags: W
Fore
505 456 m 2,0,1
 477 456 477 456 450.5 450 c 128,-1,2
 424 444 424 444 404 427.5 c 128,-1,3
 384 411 384 411 372 381.5 c 128,-1,4
 360 352 360 352 361 304 c 2,5,-1
 361 242 l 1,6,-1
 567 242 l 1,7,-1
 567 215 l 1,8,-1
 361 215 l 1,9,-1
 361 170 l 2,10,11
 360 122 360 122 372 92.5 c 128,-1,12
 384 63 384 63 404 46.5 c 128,-1,13
 424 30 424 30 450.5 23.5 c 128,-1,14
 477 17 477 17 505 17 c 2,15,-1
 643 17 l 1,16,-1
 643 -8 l 1,17,-1
 507 -8 l 2,18,19
 462 -7 462 -7 425 2 c 128,-1,20
 388 11 388 11 364 40 c 1,21,22
 343 17 343 17 310 4.5 c 128,-1,23
 277 -8 277 -8 241 -10.5 c 128,-1,24
 205 -13 205 -13 171 -7 c 128,-1,25
 137 -1 137 -1 114 13 c 256,26,27
 91 27 91 27 74 47.5 c 128,-1,28
 57 68 57 68 57 94 c 2,29,-1
 57 382 l 2,30,31
 57 408 57 408 74 428.5 c 128,-1,32
 91 449 91 449 114 462 c 256,33,34
 137 475 137 475 171 481.5 c 128,-1,35
 205 488 205 488 241 485.5 c 128,-1,36
 277 483 277 483 310 470.5 c 128,-1,37
 343 458 343 458 364 435 c 1,38,39
 388 464 388 464 425 472.5 c 128,-1,40
 462 481 462 481 507 482 c 2,41,-1
 643 482 l 1,42,-1
 643 456 l 1,43,-1
 505 456 l 2,0,1
138 33 m 0,44,45
 157 21 157 21 187.5 16 c 128,-1,46
 218 11 218 11 249 14 c 128,-1,47
 280 17 280 17 307 29.5 c 128,-1,48
 334 42 334 42 348 65 c 1,49,50
 339 84 339 84 334 110 c 128,-1,51
 329 136 329 136 329 171 c 2,52,-1
 329 303 l 2,53,54
 329 338 329 338 334 364.5 c 128,-1,55
 339 391 339 391 348 410 c 1,56,57
 335 433 335 433 308 445.5 c 128,-1,58
 281 458 281 458 249.5 461.5 c 128,-1,59
 218 465 218 465 187.5 460 c 128,-1,60
 157 455 157 455 138 443 c 0,61,62
 118 430 118 430 103.5 410.5 c 128,-1,63
 89 391 89 391 89 369 c 2,64,-1
 89 107 l 2,65,66
 89 84 89 84 103.5 64.5 c 128,-1,67
 118 45 118 45 138 33 c 0,44,45
EndSplineSet
EndChar
StartChar: oe
Encoding: 339 339 196
Width: 688
Flags: W
Fore
636 208 m 1,0,-1
 634 208 l 1,1,-1
 634 206 l 1,2,-1
 636 208 l 1,0,-1
413 33 m 0,3,4
 433 21 433 21 462 16.5 c 128,-1,5
 491 12 491 12 520.5 15.5 c 128,-1,6
 550 19 550 19 574 33 c 128,-1,7
 598 47 598 47 609 73 c 1,8,-1
 636 62 l 1,9,10
 621 32 621 32 590 15 c 128,-1,11
 559 -2 559 -2 522.5 -7 c 128,-1,12
 486 -12 486 -12 450 -6.5 c 128,-1,13
 414 -1 414 -1 389 14 c 0,14,15
 376 22 376 22 364.5 31.5 c 128,-1,16
 353 41 353 41 345 53 c 1,17,18
 329 28 329 28 301 13 c 128,-1,19
 273 -2 273 -2 241 -7 c 128,-1,20
 209 -12 209 -12 176 -7 c 128,-1,21
 143 -2 143 -2 116 13.5 c 128,-1,22
 89 29 89 29 72 54.5 c 128,-1,23
 55 80 55 80 54 116 c 0,24,25
 53 139 53 139 52.5 168 c 128,-1,26
 52 197 52 197 52 220 c 0,27,28
 52 256 52 256 69 281.5 c 128,-1,29
 86 307 86 307 113 322.5 c 128,-1,30
 140 338 140 338 173.5 343.5 c 128,-1,31
 207 349 207 349 239.5 344 c 128,-1,32
 272 339 272 339 300 323.5 c 128,-1,33
 328 308 328 308 345 283 c 1,34,35
 353 295 353 295 364.5 305 c 128,-1,36
 376 315 376 315 389 323 c 0,37,38
 408 334 408 334 432 340.5 c 128,-1,39
 456 347 456 347 481.5 347 c 128,-1,40
 507 347 507 347 532 341 c 128,-1,41
 557 335 557 335 580 322 c 0,42,43
 602 309 602 309 619 286 c 128,-1,44
 636 263 636 263 638 236 c 0,45,46
 639 207 639 207 633 189.5 c 128,-1,47
 627 172 627 172 610 162.5 c 128,-1,48
 593 153 593 153 564 150 c 128,-1,49
 535 147 535 147 492 147 c 2,50,-1
 364 147 l 1,51,-1
 364 106 l 2,52,53
 364 84 364 84 378.5 65 c 128,-1,54
 393 46 393 46 413 33 c 0,3,4
364 174 m 1,55,-1
 492 174 l 2,56,57
 523 174 523 174 545 174.5 c 128,-1,58
 567 175 567 175 581.5 181 c 128,-1,59
 596 187 596 187 602.5 199 c 128,-1,60
 609 211 609 211 608 233 c 0,61,62
 607 252 607 252 594.5 271 c 128,-1,63
 582 290 582 290 567 300 c 0,64,65
 549 312 549 312 528.5 317.5 c 128,-1,66
 508 323 508 323 487.5 323 c 128,-1,67
 467 323 467 323 447.5 318 c 128,-1,68
 428 313 428 313 413 304 c 0,69,70
 393 291 393 291 378.5 272 c 128,-1,71
 364 253 364 253 364 231 c 2,72,-1
 364 174 l 1,55,-1
84 129 m 0,73,74
 84 91 84 91 102 65.5 c 128,-1,75
 120 40 120 40 147 27.5 c 128,-1,76
 174 15 174 15 206 15 c 128,-1,77
 238 15 238 15 265.5 27.5 c 128,-1,78
 293 40 293 40 312 65 c 128,-1,79
 331 90 331 90 332 127 c 2,80,-1
 332 209 l 2,81,82
 331 247 331 247 312 272 c 128,-1,83
 293 297 293 297 265.5 309.5 c 128,-1,84
 238 322 238 322 206 322 c 128,-1,85
 174 322 174 322 146.5 309 c 128,-1,86
 119 296 119 296 101 271 c 128,-1,87
 83 246 83 246 83 208 c 0,88,89
 83 203 83 203 83 192.5 c 128,-1,90
 83 182 83 182 83.5 170 c 128,-1,91
 84 158 84 158 84 146.5 c 128,-1,92
 84 135 84 135 84 129 c 0,73,74
EndSplineSet
EndChar
StartChar: florin
Encoding: 402 402 202
Width: 294
Flags: W
Fore
266 477 m 1,0,-1
 263 451 l 1,1,-1
 245 451 l 2,2,3
 213 451 213 451 193.5 443.5 c 128,-1,4
 174 436 174 436 162 422 c 128,-1,5
 150 408 150 408 144.5 387.5 c 128,-1,6
 139 367 139 367 136 340 c 2,7,-1
 133 313 l 1,8,-1
 129 281 l 1,9,-1
 221 281 l 1,10,-1
 221 257 l 1,11,-1
 126 257 l 1,12,-1
 99 39 l 1,13,-1
 90 -19 l 1,14,15
 85 -33 85 -33 75.5 -44.5 c 128,-1,16
 66 -56 66 -56 52 -61 c 1,17,18
 47 -57 47 -57 41 -52.5 c 128,-1,19
 35 -48 35 -48 30 -41 c 1,20,21
 48 -28 48 -28 54.5 -16 c 128,-1,22
 61 -4 61 -4 63 12 c 2,23,-1
 94 257 l 1,24,-1
 29 257 l 1,25,-1
 29 281 l 1,26,-1
 97 281 l 1,27,-1
 104 336 l 2,28,29
 109 376 109 376 118 403 c 128,-1,30
 127 430 127 430 143.5 446.5 c 128,-1,31
 160 463 160 463 185.5 470 c 128,-1,32
 211 477 211 477 249 477 c 2,33,-1
 266 477 l 1,0,-1
EndSplineSet
EndChar
StartChar: circumflex
Encoding: 710 710 203
Width: 334
Flags: W
Fore
70 475 m 1,0,1
 78 480 78 480 92.5 492 c 128,-1,2
 107 504 107 504 121.5 519.5 c 128,-1,3
 136 535 136 535 148.5 552 c 128,-1,4
 161 569 161 569 166 584 c 1,5,6
 178 558 178 558 205.5 528 c 128,-1,7
 233 498 233 498 263 475 c 1,8,-1
 220 475 l 1,9,10
 199 491 199 491 186 509 c 128,-1,11
 173 527 173 527 167 538 c 1,12,13
 162 527 162 527 146 507.5 c 128,-1,14
 130 488 130 488 113 475 c 1,15,-1
 70 475 l 1,0,1
EndSplineSet
EndChar
StartChar: caron
Encoding: 711 711 204
Width: 334
Flags: W
Fore
263 585 m 1,0,1
 255 580 255 580 240.5 568.5 c 128,-1,2
 226 557 226 557 211.5 541.5 c 128,-1,3
 197 526 197 526 184.5 508.5 c 128,-1,4
 172 491 172 491 167 476 c 1,5,6
 155 503 155 503 127.5 532.5 c 128,-1,7
 100 562 100 562 70 585 c 1,8,-1
 102 585 l 1,9,10
 125 569 125 569 143.5 546.5 c 128,-1,11
 162 524 162 524 166 513 c 1,12,13
 168 518 168 518 175 528 c 128,-1,14
 182 538 182 538 191 548.5 c 128,-1,15
 200 559 200 559 210.5 569 c 128,-1,16
 221 579 221 579 230 585 c 1,17,-1
 263 585 l 1,0,1
EndSplineSet
EndChar
StartChar: breve
Encoding: 728 728 205
Width: 300
Flags: W
Fore
257 528 m 1,0,1
 257 506 257 506 248.5 486.5 c 128,-1,2
 240 467 240 467 226 452 c 128,-1,3
 212 437 212 437 192.5 428.5 c 128,-1,4
 173 420 173 420 150 420 c 0,5,6
 128 420 128 420 108 428.5 c 128,-1,7
 88 437 88 437 74 452 c 128,-1,8
 60 467 60 467 51.5 486.5 c 128,-1,9
 43 506 43 506 43 528 c 1,10,-1
 74 528 l 1,11,12
 74 494 74 494 95.5 471 c 128,-1,13
 117 448 117 448 150 448 c 256,14,15
 183 448 183 448 204.5 471 c 128,-1,16
 226 494 226 494 226 528 c 1,17,-1
 257 528 l 1,0,1
EndSplineSet
EndChar
StartChar: dotaccent
Encoding: 729 729 206
Width: 158
Flags: W
Fore
79 501 m 1,0,1
 91 502 91 502 99.5 490.5 c 128,-1,2
 108 479 108 479 108 462 c 0,3,4
 108 446 108 446 99.5 434.5 c 128,-1,5
 91 423 91 423 79 423 c 0,6,7
 66 423 66 423 57.5 434.5 c 128,-1,8
 49 446 49 446 50 462 c 0,9,10
 50 479 50 479 58.5 490.5 c 128,-1,11
 67 502 67 502 79 501 c 1,0,1
EndSplineSet
EndChar
StartChar: ring
Encoding: 730 730 207
Width: 275
Flags: W
Fore
139 533 m 2,0,1
 165 533 165 533 183.5 516 c 128,-1,2
 202 499 202 499 202 475 c 256,3,4
 202 451 202 451 183.5 434 c 128,-1,5
 165 417 165 417 139 417 c 2,6,-1
 138 417 l 2,7,8
 112 417 112 417 93 434 c 128,-1,9
 74 451 74 451 74 475 c 0,10,11
 74 500 74 500 93 516.5 c 128,-1,12
 112 533 112 533 138 533 c 2,13,-1
 139 533 l 2,0,1
140 434 m 2,14,15
 147 434 147 434 154 438 c 128,-1,16
 161 442 161 442 166.5 448 c 128,-1,17
 172 454 172 454 175 461.5 c 128,-1,18
 178 469 178 469 178 475 c 0,19,20
 178 487 178 487 166 501 c 128,-1,21
 154 515 154 515 139 517 c 2,22,-1
 138 517 l 2,23,24
 121 517 121 517 110 502 c 128,-1,25
 99 487 99 487 99 475 c 0,26,27
 99 469 99 469 102.5 462 c 128,-1,28
 106 455 106 455 111.5 449 c 128,-1,29
 117 443 117 443 124 438.5 c 128,-1,30
 131 434 131 434 139 434 c 2,31,-1
 140 434 l 2,14,15
EndSplineSet
EndChar
StartChar: tilde
Encoding: 732 732 209
Width: 216
Flags: W
Fore
208 472 m 1,0,1
 210 443 210 443 193.5 426 c 128,-1,2
 177 409 177 409 153 407 c 0,3,4
 138 406 138 406 126.5 411.5 c 128,-1,5
 115 417 115 417 105.5 424.5 c 128,-1,6
 96 432 96 432 87 438.5 c 128,-1,7
 78 445 78 445 68 445 c 0,8,9
 51 445 51 445 42.5 432 c 128,-1,10
 34 419 34 419 33 405 c 1,11,-1
 13 405 l 1,12,13
 12 431 12 431 26.5 450.5 c 128,-1,14
 41 470 41 470 67 470 c 0,15,16
 80 470 80 470 90.5 464 c 128,-1,17
 101 458 101 458 111 450.5 c 128,-1,18
 121 443 121 443 130.5 437.5 c 128,-1,19
 140 432 140 432 151 432 c 0,20,21
 168 433 168 433 176.5 443.5 c 128,-1,22
 185 454 185 454 187 472 c 1,23,-1
 208 472 l 1,0,1
EndSplineSet
EndChar
StartChar: uni0E01
Encoding: 3585 3585 212
Width: 426
Flags: W
Fore
96 372 m 1,0,1
 98 370 98 370 105.5 364 c 128,-1,2
 113 358 113 358 121 351 c 128,-1,3
 129 344 129 344 135.5 338 c 128,-1,4
 142 332 142 332 142 331 c 2,5,-1
 142 301 l 1,6,7
 138 298 138 298 133 295 c 128,-1,8
 128 292 128 292 125 288 c 0,9,10
 97 257 97 257 97 210 c 2,11,-1
 97 0 l 1,12,-1
 69 0 l 1,13,-1
 69 182 l 2,14,15
 67 220 67 220 77 259.5 c 128,-1,16
 87 299 87 299 119 321 c 1,17,-1
 65 371 l 1,18,-1
 65 399 l 1,19,-1
 137 399 l 2,20,21
 182 399 182 399 222 397 c 128,-1,22
 262 395 262 395 292.5 379.5 c 128,-1,23
 323 364 323 364 341 328 c 128,-1,24
 359 292 359 292 359 225 c 2,25,-1
 359 0 l 1,26,-1
 328 0 l 1,27,-1
 325 227 l 2,28,29
 326 271 326 271 315.5 299.5 c 128,-1,30
 305 328 305 328 287 344 c 128,-1,31
 269 360 269 360 245.5 367 c 128,-1,32
 222 374 222 374 196.5 375 c 128,-1,33
 171 376 171 376 145 374.5 c 128,-1,34
 119 373 119 373 96 372 c 1,0,1
EndSplineSet
EndChar
StartChar: uni0E02
Encoding: 3586 3586 213
Width: 336
Flags: W
Fore
271 398 m 1,0,-1
 271 101 l 2,1,2
 271 66 271 66 255 43 c 128,-1,3
 239 20 239 20 215 8 c 128,-1,4
 191 -4 191 -4 163.5 -5 c 128,-1,5
 136 -6 136 -6 112 5 c 0,6,7
 89 16 89 16 72.5 39 c 128,-1,8
 56 62 56 62 56 97 c 0,9,10
 56 120 56 120 61 137.5 c 128,-1,11
 66 155 66 155 74 169.5 c 128,-1,12
 82 184 82 184 92 196 c 128,-1,13
 112 220 l 0,14,15
 122 233 122 233 131 245.5 c 128,-1,16
 140 258 140 258 146 274 c 1,17,18
 139 263 139 263 130 256.5 c 128,-1,19
 121 250 121 250 112 247 c 256,20,21
 103 244 103 244 92 247 c 0,22,23
 71 252 71 252 62.5 278 c 128,-1,24
 54 304 54 304 62 336 c 0,25,26
 68 360 68 360 82 376.5 c 128,-1,27
 96 393 96 393 112 398 c 0,28,29
 121 401 121 401 132 399 c 0,30,31
 146 395 146 395 154.5 382 c 128,-1,32
 163 369 163 369 166 351 c 0,33,34
 175 318 175 318 172 295 c 128,-1,35
 169 272 169 272 160 253.5 c 128,-1,36
 151 235 151 235 137.5 219.5 c 128,-1,37
 124 204 124 204 112 188 c 0,38,39
 101 172 101 172 93.5 153.5 c 128,-1,40
 86 135 86 135 86 110 c 0,41,42
 86 86 86 86 93.5 68 c 128,-1,43
 101 50 101 50 112 39 c 0,44,45
 128 23 128 23 150.5 20 c 128,-1,46
 173 17 173 17 192.5 26.5 c 128,-1,47
 212 36 212 36 226 58.5 c 128,-1,48
 240 81 240 81 240 116 c 0,49,50
 239 183 239 183 239.5 256.5 c 128,-1,51
 240 330 240 330 240 398 c 1,52,-1
 271 398 l 1,0,-1
139 315 m 0,53,54
 142 324 142 324 143 334.5 c 128,-1,55
 144 345 144 345 142.5 355 c 128,-1,56
 141 365 141 365 137 372.5 c 128,-1,57
 133 380 133 380 126 382 c 0,58,59
 119 385 119 385 112 379 c 0,60,61
 103 372 103 372 96 357.5 c 128,-1,62
 89 343 89 343 85 330 c 0,63,64
 83 321 83 321 82 310.5 c 128,-1,65
 81 300 81 300 82 290 c 128,-1,66
 83 280 83 280 87 272.5 c 128,-1,67
 91 265 91 265 98 263 c 0,68,69
 105 262 105 262 112 267 c 0,70,71
 121 274 121 274 128.5 288.5 c 128,-1,72
 136 303 136 303 139 315 c 0,53,54
EndSplineSet
EndChar
StartChar: uni0E03
Encoding: 3587 3587 214
Width: 388
Flags: W
Fore
183 360 m 1,0,-1
 190 404 l 1,1,-1
 209 404 l 1,2,-1
 218 363 l 2,3,4
 227 330 227 330 225 306 c 128,-1,5
 223 282 223 282 214 263 c 128,-1,6
 205 244 205 244 191.5 228.5 c 128,-1,7
 178 213 178 213 165.5 196.5 c 128,-1,8
 153 180 153 180 144.5 160 c 128,-1,9
 136 140 136 140 136 113 c 0,10,11
 136 82 136 82 148 61.5 c 128,-1,12
 160 41 160 41 177.5 30.5 c 128,-1,13
 195 20 195 20 215.5 20.5 c 128,-1,14
 236 21 236 21 253.5 32 c 128,-1,15
 271 43 271 43 283 64.5 c 128,-1,16
 295 86 295 86 295 119 c 0,17,18
 294 188 294 188 294.5 260.5 c 128,-1,19
 295 333 295 333 295 402 c 1,20,-1
 326 402 l 1,21,22
 326 325 326 325 326.5 253.5 c 128,-1,23
 327 182 327 182 326 104 c 0,24,25
 326 69 326 69 309.5 45 c 128,-1,26
 293 21 293 21 268.5 8.5 c 128,-1,27
 244 -4 244 -4 216 -4.5 c 128,-1,28
 188 -5 188 -5 163.5 6 c 128,-1,29
 139 17 139 17 122.5 40.5 c 128,-1,30
 106 64 106 64 106 100 c 256,31,32
 106 136 106 136 117.5 160 c 128,-1,33
 129 184 129 184 144.5 203.5 c 128,-1,34
 160 223 160 223 176 242 c 128,-1,35
 192 261 192 261 201 285 c 1,36,37
 203 308 203 308 194 320 c 128,-1,38
 185 332 185 332 174 341 c 1,39,-1
 167 351 l 1,40,41
 169 332 169 332 163 314 c 0,42,43
 154 282 154 282 133 263.5 c 128,-1,44
 112 245 112 245 90 250 c 0,45,46
 69 256 69 256 60 283 c 128,-1,47
 51 310 51 310 59 342 c 256,48,49
 67 374 67 374 88.5 392.5 c 128,-1,50
 110 411 110 411 132 406 c 0,51,52
 145 402 145 402 161 386.5 c 128,-1,53
 177 371 177 371 183 360 c 1,0,-1
83 336 m 0,54,55
 80 327 80 327 79 316 c 128,-1,56
 78 305 78 305 79.5 295 c 128,-1,57
 81 285 81 285 84.5 277.5 c 128,-1,58
 88 270 88 270 96 268 c 1,59,60
 103 265 103 265 109.5 269.5 c 128,-1,61
 116 274 116 274 122 282.5 c 128,-1,62
 128 291 128 291 132.5 301 c 128,-1,63
 137 311 137 311 139 320 c 0,64,65
 142 329 142 329 143 340 c 128,-1,66
 144 351 144 351 142.5 361 c 128,-1,67
 141 371 141 371 137 378.5 c 128,-1,68
 133 386 133 386 126 388 c 0,69,70
 119 391 119 391 112 386 c 128,-1,71
 105 381 105 381 99.5 373 c 128,-1,72
 94 365 94 365 89.5 355 c 128,-1,73
 85 345 85 345 83 336 c 0,54,55
EndSplineSet
EndChar
StartChar: uni0E04
Encoding: 3588 3588 215
Width: 457
Flags: W
Fore
349 376 m 0,0,1
 373 362 373 362 383.5 341.5 c 128,-1,2
 394 321 394 321 394 292 c 2,3,-1
 394 2 l 1,4,-1
 364 2 l 1,5,-1
 364 283 l 2,6,7
 364 309 364 309 355.5 326.5 c 128,-1,8
 347 344 347 344 325 358 c 0,9,10
 307 369 307 369 282.5 374.5 c 128,-1,11
 258 380 258 380 232.5 380 c 128,-1,12
 207 380 207 380 182.5 374.5 c 128,-1,13
 158 369 158 369 140 358 c 0,14,15
 117 344 117 344 109 326 c 128,-1,16
 101 308 101 308 101 283 c 2,17,-1
 101 204 l 1,18,19
 137 243 137 243 194 249 c 0,20,21
 199 250 199 250 205 250.5 c 128,-1,22
 211 251 211 251 217 250 c 1,23,-1
 221 250 l 2,24,25
 253 248 253 248 275 231.5 c 128,-1,26
 297 215 297 215 295 193 c 0,27,28
 293 172 293 172 270.5 158 c 128,-1,29
 248 144 248 144 217 145 c 0,30,31
 216 145 216 145 215.5 145.5 c 128,-1,32
 215 146 215 146 214 146 c 0,33,34
 184 148 184 148 162.5 163 c 128,-1,35
 141 178 141 178 139 198 c 1,36,-1
 132 191 l 2,37,38
 118 175 118 175 109.5 156 c 128,-1,39
 101 137 101 137 101 113 c 2,40,-1
 101 2 l 1,41,-1
 71 2 l 1,42,-1
 71 294 l 2,43,44
 71 319 71 319 82.5 341 c 128,-1,45
 94 363 94 363 116 376 c 256,46,47
 138 389 138 389 169 395.5 c 128,-1,48
 200 402 200 402 232.5 402 c 128,-1,49
 265 402 265 402 296 395.5 c 128,-1,50
 327 389 327 389 349 376 c 0,0,1
217 227 m 2,51,52
 208 227 208 227 198 226 c 128,-1,53
 188 225 188 225 179 222 c 128,-1,54
 170 219 170 219 163.5 214 c 128,-1,55
 157 209 157 209 156 202 c 256,56,57
 155 195 155 195 161 189 c 128,-1,58
 167 183 167 183 176 179 c 128,-1,59
 185 175 185 175 195.5 172.5 c 128,-1,60
 206 170 206 170 215 170 c 0,61,62
 216 170 216 170 217 169 c 1,63,64
 226 169 226 169 236 170.5 c 128,-1,65
 246 172 246 172 255 175 c 128,-1,66
 264 178 264 178 270.5 183 c 128,-1,67
 277 188 277 188 278 195 c 256,68,69
 279 202 279 202 273 207.5 c 128,-1,70
 267 213 267 213 258 217 c 128,-1,71
 249 221 249 221 238.5 223.5 c 128,-1,72
 228 226 228 226 219 227 c 2,73,-1
 217 227 l 2,51,52
EndSplineSet
EndChar
StartChar: uni0E05
Encoding: 3589 3589 216
Width: 460
Flags: W
Fore
352 377 m 0,0,1
 373 364 373 364 385 340 c 128,-1,2
 397 316 397 316 397 290 c 2,3,-1
 397 0 l 1,4,-1
 367 0 l 1,5,-1
 367 278 l 2,6,7
 367 301 367 301 359 321 c 128,-1,8
 351 341 351 341 331 354 c 0,9,10
 321 361 321 361 308.5 364.5 c 128,-1,11
 296 368 296 368 282 371 c 1,12,-1
 235 303 l 1,13,-1
 189 370 l 1,14,15
 175 367 175 367 163 363.5 c 128,-1,16
 151 360 151 360 142 353 c 0,17,18
 101 327 101 327 101 283 c 2,19,-1
 101 210 l 1,20,21
 119 230 119 230 146 242.5 c 128,-1,22
 173 255 173 255 205 257 c 2,23,-1
 221 257 l 1,24,-1
 225 257 l 2,25,26
 257 255 257 255 279.5 238 c 128,-1,27
 302 221 302 221 300 199 c 0,28,29
 298 179 298 179 275.5 165 c 128,-1,30
 253 151 253 151 221 153 c 2,31,-1
 218 153 l 2,32,33
 186 155 186 155 164.5 171 c 128,-1,34
 143 187 143 187 144 208 c 1,35,36
 138 203 138 203 132 196 c 0,37,38
 118 182 118 182 109.5 162.5 c 128,-1,39
 101 143 101 143 101 119 c 2,40,-1
 101 0 l 1,41,-1
 71 0 l 1,42,-1
 71 294 l 2,43,44
 71 320 71 320 85 342 c 128,-1,45
 99 364 99 364 121 377 c 0,46,47
 138 387 138 387 157 392.5 c 128,-1,48
 176 398 176 398 199 401 c 1,49,50
 208 386 208 386 216.5 371 c 128,-1,51
 225 356 225 356 235 341 c 1,52,53
 243 357 243 357 251.5 371 c 128,-1,54
 260 385 260 385 269 401 c 1,55,56
 293 398 293 398 314 392.5 c 128,-1,57
 335 387 335 387 352 377 c 0,0,1
221 233 m 2,58,59
 212 233 212 233 202 232 c 128,-1,60
 192 231 192 231 183 228 c 128,-1,61
 174 225 174 225 168 220 c 128,-1,62
 162 215 162 215 161 208 c 256,63,64
 160 201 160 201 166 195.5 c 128,-1,65
 172 190 172 190 181 186 c 128,-1,66
 190 182 190 182 200 179.5 c 128,-1,67
 210 177 210 177 219 177 c 2,68,-1
 221 177 l 2,69,70
 230 177 230 177 240.5 178 c 128,-1,71
 251 179 251 179 260 182 c 128,-1,72
 269 185 269 185 275.5 190 c 128,-1,73
 282 195 282 195 283 201 c 0,74,75
 284 208 284 208 278 213.5 c 128,-1,76
 272 219 272 219 263 223 c 128,-1,77
 254 227 254 227 243 229.5 c 128,-1,78
 232 232 232 232 223 233 c 2,79,-1
 221 233 l 2,58,59
EndSplineSet
EndChar
StartChar: uni0E06
Encoding: 3590 3590 217
Width: 491
Flags: W
Fore
73 92 m 0,0,1
 73 110 73 110 78 127 c 128,-1,2
 83 144 83 144 92 157 c 128,-1,3
 101 170 101 170 113 178 c 128,-1,4
 125 186 125 186 139 186 c 0,5,6
 152 186 152 186 161 180 c 1,7,8
 163 207 163 207 175 228 c 0,9,10
 182 241 182 241 187.5 253.5 c 128,-1,11
 193 266 193 266 199 282 c 1,12,13
 201 305 201 305 192.5 317.5 c 128,-1,14
 184 330 184 330 173 339 c 1,15,-1
 165 348 l 1,16,17
 167 329 167 329 161 311 c 0,18,19
 153 279 153 279 131.5 260 c 128,-1,20
 110 241 110 241 88 247 c 0,21,22
 67 253 67 253 58 280 c 128,-1,23
 49 307 49 307 57 339 c 0,24,25
 66 371 66 371 87 389.5 c 128,-1,26
 108 408 108 408 130 402 c 0,27,28
 136 400 136 400 144 395 c 128,-1,29
 152 390 152 390 159 383.5 c 128,-1,30
 166 377 166 377 172 370 c 128,-1,31
 178 363 178 363 181 357 c 1,32,-1
 188 400 l 1,33,-1
 207 400 l 1,34,-1
 216 360 l 2,35,36
 224 334 224 334 225 313.5 c 128,-1,37
 226 293 226 293 222.5 276 c 128,-1,38
 219 259 219 259 212 245 c 128,-1,39
 198 217 l 256,40,41
 191 203 191 203 190 186 c 128,-1,42
 189 169 189 169 191 151.5 c 128,-1,43
 193 134 193 134 197 118.5 c 128,-1,44
 201 103 201 103 204 93 c 1,45,46
 211 82 211 82 220.5 70.5 c 128,-1,47
 230 59 230 59 241.5 49 c 128,-1,48
 253 39 253 39 266.5 32.5 c 128,-1,49
 280 26 280 26 296 26 c 0,50,51
 338 26 338 26 369 51.5 c 128,-1,52
 400 77 400 77 400 128 c 2,53,-1
 400 401 l 1,54,-1
 430 401 l 1,55,56
 430 326 430 326 430 261 c 128,-1,57
 430 196 430 196 429 123 c 0,58,59
 429 93 429 93 418.5 69.5 c 128,-1,60
 408 46 408 46 391.5 30 c 128,-1,61
 375 14 375 14 353.5 6.5 c 128,-1,62
 332 -1 332 -1 308 -1 c 0,63,64
 266 -1 266 -1 239 18.5 c 128,-1,65
 212 38 212 38 195 59 c 1,66,67
 189 33 189 33 174 15 c 128,-1,68
 159 -3 159 -3 139 -3 c 0,69,70
 126 -3 126 -3 114 5 c 128,-1,71
 102 13 102 13 93 26 c 128,-1,72
 84 39 84 39 78.5 56 c 128,-1,73
 73 73 73 73 73 92 c 0,0,1
81 332 m 0,74,75
 78 323 78 323 77 312.5 c 128,-1,76
 76 302 76 302 77.5 292 c 128,-1,77
 79 282 79 282 83 274 c 128,-1,78
 87 266 87 266 94 264 c 256,79,80
 101 262 101 262 107.5 266.5 c 128,-1,81
 114 271 114 271 120 279.5 c 128,-1,82
 126 288 126 288 130.5 298 c 128,-1,83
 135 308 135 308 137 317 c 0,84,85
 140 326 140 326 141 337 c 128,-1,86
 142 348 142 348 140.5 358 c 128,-1,87
 139 368 139 368 135 375.5 c 128,-1,88
 131 383 131 383 124 385 c 0,89,90
 117 388 117 388 110.5 383 c 128,-1,91
 104 378 104 378 98 370 c 128,-1,92
 92 362 92 362 87.5 351.5 c 128,-1,93
 83 341 83 341 81 332 c 0,74,75
104 92 m 256,94,95
 104 83 104 83 106.5 71 c 128,-1,96
 109 59 109 59 113.5 48 c 128,-1,97
 118 37 118 37 124.5 30 c 128,-1,98
 131 23 131 23 139 23 c 256,99,100
 147 23 147 23 152.5 30.5 c 128,-1,101
 158 38 158 38 161.5 48.5 c 128,-1,102
 165 59 165 59 166.5 71 c 128,-1,103
 168 83 168 83 168 92 c 256,104,105
 168 101 168 101 166.5 112.5 c 128,-1,106
 165 124 165 124 161 134.5 c 128,-1,107
 157 145 157 145 151.5 152.5 c 128,-1,108
 146 160 146 160 137 160 c 256,109,110
 128 160 128 160 122 152.5 c 128,-1,111
 116 145 116 145 112 134.5 c 128,-1,112
 108 124 108 124 106 112.5 c 128,-1,113
 104 101 104 101 104 92 c 256,94,95
EndSplineSet
EndChar
StartChar: uni0E07
Encoding: 3591 3591 218
Width: 346
Flags: W
Fore
250 399 m 0,0,1
 267 394 267 394 276 377.5 c 128,-1,2
 285 361 285 361 285 338 c 2,3,-1
 285 111 l 2,4,5
 285 79 285 79 269.5 55 c 128,-1,6
 254 31 254 31 230 16 c 0,7,8
 207 2 207 2 176 -3 c 1,9,-1
 51 271 l 1,10,-1
 77 284 l 1,11,12
 105 226 105 226 136 158.5 c 128,-1,13
 167 91 167 91 195 29 c 1,14,15
 216 38 216 38 230 52 c 0,16,17
 255 77 255 77 255 122 c 2,18,-1
 255 264 l 1,19,20
 243 252 243 252 230 248 c 0,21,22
 219 245 219 245 209 248 c 0,23,24
 188 253 188 253 179.5 279 c 128,-1,25
 171 305 171 305 179 336 c 0,26,27
 185 360 185 360 199 376.5 c 128,-1,28
 213 393 213 393 230 398 c 0,29,30
 238 401 238 401 250 399 c 0,0,1
257 316 m 0,31,32
 262 333 262 333 260 355 c 128,-1,33
 258 377 258 377 244 382 c 0,34,35
 237 385 237 385 230 379 c 0,36,37
 220 372 220 372 212.5 357.5 c 128,-1,38
 205 343 205 343 202 331 c 0,39,40
 200 322 200 322 199 311.5 c 128,-1,41
 198 301 198 301 199 291 c 128,-1,42
 200 281 200 281 204 273.5 c 128,-1,43
 208 266 208 266 215 264 c 0,44,45
 223 262 223 262 230 268 c 0,46,47
 239 275 239 275 246.5 289.5 c 128,-1,48
 254 304 254 304 257 316 c 0,31,32
EndSplineSet
EndChar
StartChar: uni0E08
Encoding: 3592 3592 219
Width: 414
Flags: W
Fore
307 373 m 0,0,1
 351 346 351 346 351 297 c 2,2,-1
 351 96 l 1,3,4
 350 87 l 130,-1,5
 349 78 349 78 344.5 65.5 c 128,-1,6
 340 53 340 53 331 39.5 c 128,-1,7
 322 26 322 26 304 16 c 0,8,9
 278 3 278 3 251 -4 c 1,10,-1
 225 -4 l 1,11,-1
 225 128 l 1,12,13
 220 121 220 121 217.5 117.5 c 128,-1,14
 215 114 215 114 201 110 c 0,15,16
 193 108 193 108 181 113 c 0,17,18
 166 119 166 119 151 134.5 c 128,-1,19
 136 150 136 150 130 173 c 0,20,21
 122 203 122 203 131 229.5 c 128,-1,22
 140 256 140 256 161 261 c 0,23,24
 172 264 172 264 181 261 c 0,25,26
 195 257 195 257 206.5 247 c 128,-1,27
 218 237 218 237 225 224 c 0,28,29
 235 207 235 207 240.5 181 c 128,-1,30
 246 155 246 155 249 126.5 c 128,-1,31
 252 98 252 98 252.5 70 c 128,-1,32
 253 42 253 42 253 21 c 1,33,34
 282 32 282 32 300.5 49.5 c 128,-1,35
 319 67 319 67 319 96 c 2,36,-1
 319 283 l 2,37,38
 319 306 319 306 310.5 323.5 c 128,-1,39
 302 341 302 341 282 353 c 0,40,41
 262 364 262 364 235.5 370 c 128,-1,42
 209 376 209 376 181 374 c 0,43,44
 158 373 158 373 136 368 c 128,-1,45
 114 363 114 363 98 353 c 0,46,47
 92 349 92 349 87 344.5 c 128,-1,48
 82 340 82 340 77 336 c 1,49,-1
 45 346 l 1,50,51
 49 354 49 354 57 360 c 128,-1,52
 65 366 65 366 74 373 c 1,53,54
 94 384 94 384 122.5 390.5 c 128,-1,55
 151 397 151 397 181 398 c 0,56,57
 216 399 216 399 249 393 c 128,-1,58
 282 387 282 387 307 373 c 0,0,1
196 127 m 0,59,60
 203 129 203 129 206.5 136.5 c 128,-1,61
 210 144 210 144 211.5 154 c 128,-1,62
 213 164 213 164 212 174.5 c 128,-1,63
 211 185 211 185 209 194 c 0,64,65
 205 206 205 206 198 220 c 128,-1,66
 191 234 191 234 181 241 c 0,67,68
 174 247 174 247 166 245 c 0,69,70
 159 243 159 243 155.5 235.5 c 128,-1,71
 152 228 152 228 150.5 218.5 c 128,-1,72
 149 209 149 209 150 198.5 c 128,-1,73
 151 188 151 188 153 179 c 0,74,75
 157 166 157 166 164 152 c 128,-1,76
 171 138 171 138 181 130 c 1,77,78
 190 125 190 125 196 127 c 0,59,60
EndSplineSet
EndChar
StartChar: uni0E09
Encoding: 3593 3593 220
Width: 503
Flags: W
Fore
71 195 m 0,0,1
 79 227 79 227 100.5 246 c 128,-1,2
 122 265 122 265 143 259 c 0,3,4
 164 254 164 254 173.5 229.5 c 128,-1,5
 183 205 183 205 177 174 c 1,6,-1
 177 121 l 2,7,8
 177 76 177 76 201 51.5 c 128,-1,9
 225 27 225 27 260 28 c 0,10,11
 275 29 275 29 292.5 38 c 128,-1,12
 310 47 310 47 324 63.5 c 128,-1,13
 338 80 338 80 347.5 103 c 128,-1,14
 357 126 357 126 357 155 c 2,15,-1
 357 289 l 2,16,17
 357 309 357 309 348 325.5 c 128,-1,18
 339 342 339 342 320 353 c 0,19,20
 302 363 302 363 272.5 368.5 c 128,-1,21
 243 374 243 374 211 374 c 128,-1,22
 179 374 179 374 149 368.5 c 128,-1,23
 119 363 119 363 101 353 c 1,24,25
 96 348 96 348 90 344.5 c 128,-1,26
 84 341 84 341 80 336 c 1,27,-1
 47 355 l 1,28,29
 52 363 52 363 60 369 c 128,-1,30
 68 375 68 375 78 381 c 0,31,32
 100 394 100 394 136 401 c 128,-1,33
 172 408 172 408 211 408 c 128,-1,34
 250 408 250 408 286.5 401 c 128,-1,35
 323 394 323 394 346 381 c 0,36,37
 389 353 389 353 390 306 c 0,38,39
 392 268 392 268 391.5 228 c 128,-1,40
 391 188 391 188 390 150 c 1,41,42
 399 156 399 156 410 156 c 0,43,44
 431 156 431 156 446.5 133 c 128,-1,45
 462 110 462 110 462 78 c 0,46,47
 462 45 462 45 446.5 22 c 128,-1,48
 431 -1 431 -1 410 -1 c 0,49,50
 388 -1 388 -1 372.5 22 c 128,-1,51
 357 45 357 45 357 77 c 1,52,53
 346 36 346 36 314.5 16 c 128,-1,54
 283 -4 283 -4 248 -2.5 c 128,-1,55
 213 -1 213 -1 183.5 23.5 c 128,-1,56
 154 48 154 48 146 98 c 0,57,58
 146 99 146 99 145 104 c 128,-1,59
 143 114 l 1,60,61
 124 98 124 98 102 103 c 0,62,63
 80 109 80 109 71 136 c 128,-1,64
 62 163 62 163 71 195 c 0,0,1
381 78 m 0,65,66
 381 61 381 61 389 42 c 128,-1,67
 397 23 397 23 410 22 c 0,68,69
 416 22 416 22 421 27.5 c 128,-1,70
 426 33 426 33 429.5 41.5 c 128,-1,71
 433 50 433 50 434.5 60 c 128,-1,72
 436 70 436 70 436 78 c 0,73,74
 436 94 436 94 428.5 113 c 128,-1,75
 421 132 421 132 409 133 c 0,76,77
 402 133 402 133 397 127.5 c 128,-1,78
 392 122 392 122 388.5 113.5 c 128,-1,79
 385 105 385 105 383 95.5 c 128,-1,80
 381 86 381 86 381 78 c 0,65,66
95 189 m 0,81,82
 92 180 92 180 91 169 c 128,-1,83
 90 158 90 158 91.5 148 c 128,-1,84
 93 138 93 138 96.5 130 c 128,-1,85
 100 122 100 122 108 120 c 0,86,87
 115 118 115 118 121.5 122.5 c 128,-1,88
 128 127 128 127 134 135.5 c 128,-1,89
 140 144 140 144 144.5 154 c 128,-1,90
 149 164 149 164 151 173 c 256,91,92
 153 182 153 182 154 193 c 128,-1,93
 155 204 155 204 153.5 214 c 128,-1,94
 152 224 152 224 148.5 232 c 128,-1,95
 145 240 145 240 138 242 c 256,96,97
 131 244 131 244 124 239.5 c 128,-1,98
 117 235 117 235 111 226.5 c 128,-1,99
 105 218 105 218 101 208 c 128,-1,100
 97 198 97 198 95 189 c 0,81,82
EndSplineSet
EndChar
StartChar: uni0E0A
Encoding: 3594 3594 221
Width: 353
Flags: W
Fore
292 426 m 1,0,1
 291 410 291 410 287.5 392 c 128,-1,2
 284 374 284 374 277 357.5 c 128,-1,3
 270 341 270 341 257.5 327 c 128,-1,4
 245 313 245 313 226 304 c 1,5,6
 240 289 240 289 249.5 279.5 c 128,-1,7
 259 270 259 270 265 262 c 128,-1,8
 271 254 271 254 274 244.5 c 128,-1,9
 277 235 277 235 278 219 c 2,10,-1
 278 102 l 2,11,12
 278 67 278 67 262 44 c 128,-1,13
 246 21 246 21 222 9 c 128,-1,14
 198 -3 198 -3 170.5 -4 c 128,-1,15
 143 -5 143 -5 119 6 c 0,16,17
 94 17 94 17 78 40 c 128,-1,18
 62 63 62 63 62 98 c 0,19,20
 62 121 62 121 67 138.5 c 128,-1,21
 72 156 72 156 80.5 170.5 c 128,-1,22
 89 185 89 185 99 197 c 128,-1,23
 119 221 l 0,24,25
 129 234 129 234 138 246.5 c 128,-1,26
 147 259 147 259 153 275 c 1,27,28
 138 254 138 254 119 248 c 0,29,30
 108 245 108 245 98 248 c 0,31,32
 77 253 77 253 68.5 279 c 128,-1,33
 60 305 60 305 68 337 c 0,34,35
 74 361 74 361 88 377.5 c 128,-1,36
 102 394 102 394 119 399 c 0,37,38
 127 402 127 402 139 400 c 0,39,40
 153 396 153 396 161.5 383 c 128,-1,41
 170 370 170 370 173 352 c 0,42,43
 177 317 177 317 174 293 c 128,-1,44
 171 269 171 269 162.5 251.5 c 128,-1,45
 154 234 154 234 142.5 219.5 c 128,-1,46
 131 205 131 205 119 189 c 0,47,48
 108 173 108 173 100 154.5 c 128,-1,49
 92 136 92 136 92 111 c 0,50,51
 92 87 92 87 99.5 69 c 128,-1,52
 107 51 107 51 119 40 c 0,53,54
 135 25 135 25 157 21.5 c 128,-1,55
 179 18 179 18 199 27.5 c 128,-1,56
 219 37 219 37 232.5 59.5 c 128,-1,57
 246 82 246 82 246 117 c 0,58,59
 246 138 246 138 246 148 c 128,-1,60
 246 158 246 158 246 162 c 128,-1,61
 246 166 246 166 246 166.5 c 128,-1,62
 246 167 246 167 246 170 c 128,-1,63
 246 173 246 173 246 180 c 128,-1,64
 246 187 246 187 246 204 c 0,65,66
 246 225 246 225 243.5 238 c 128,-1,67
 241 251 241 251 234.5 261 c 128,-1,68
 228 271 228 271 217.5 281 c 128,-1,69
 207 291 207 291 191 307 c 1,70,71
 223 320 223 320 237.5 349.5 c 128,-1,72
 252 379 252 379 254 426 c 1,73,-1
 292 426 l 1,0,1
146 316 m 0,74,75
 149 325 149 325 150 335.5 c 128,-1,76
 151 346 151 346 149.5 356 c 128,-1,77
 148 366 148 366 144 373.5 c 128,-1,78
 140 381 140 381 133 383 c 0,79,80
 126 386 126 386 119 380 c 0,81,82
 109 373 109 373 101.5 358.5 c 128,-1,83
 94 344 94 344 91 331 c 0,84,85
 89 322 89 322 88 311.5 c 128,-1,86
 87 301 87 301 88 291 c 128,-1,87
 89 281 89 281 92.5 273.5 c 128,-1,88
 96 266 96 266 103 264 c 0,89,90
 112 262 112 262 119 268 c 0,91,92
 128 275 128 275 135.5 289.5 c 128,-1,93
 143 304 143 304 146 316 c 0,74,75
EndSplineSet
EndChar
StartChar: uni0E0B
Encoding: 3595 3595 222
Width: 407
Flags: W
Fore
323 228 m 1,0,1
 325 228 325 228 323 106 c 0,2,3
 323 71 323 71 306.5 47.5 c 128,-1,4
 290 24 290 24 266 12 c 128,-1,5
 242 0 242 0 214 -1 c 128,-1,6
 186 -2 186 -2 162 9.5 c 128,-1,7
 138 21 138 21 121.5 44 c 128,-1,8
 105 67 105 67 105 102 c 256,9,10
 105 137 105 137 116 161 c 128,-1,11
 127 185 127 185 143 205 c 128,-1,12
 159 225 159 225 174.5 243.5 c 128,-1,13
 190 262 190 262 199 287 c 1,14,15
 201 308 201 308 192.5 320.5 c 128,-1,16
 184 333 184 333 174 342 c 2,17,-1
 165 351 l 1,18,19
 166 333 166 333 162 314 c 0,20,21
 154 282 154 282 132.5 264 c 128,-1,22
 111 246 111 246 90 252 c 0,23,24
 68 257 68 257 59 283.5 c 128,-1,25
 50 310 50 310 58 342 c 0,26,27
 67 374 67 374 88.5 392.5 c 128,-1,28
 110 411 110 411 131 406 c 0,29,30
 144 402 144 402 160 386.5 c 128,-1,31
 176 371 176 371 182 360 c 1,32,-1
 188 404 l 1,33,-1
 207 404 l 1,34,-1
 217 363 l 2,35,36
 227 330 227 330 224.5 306 c 128,-1,37
 222 282 222 282 213 263.5 c 128,-1,38
 204 245 204 245 190.5 229.5 c 128,-1,39
 177 214 177 214 164.5 197.5 c 128,-1,40
 152 181 152 181 143.5 161.5 c 128,-1,41
 135 142 135 142 135 115 c 0,42,43
 135 69 135 69 159.5 46.5 c 128,-1,44
 184 24 184 24 213.5 24.5 c 128,-1,45
 243 25 243 25 267.5 49.5 c 128,-1,46
 292 74 292 74 292 122 c 2,47,-1
 292 206 l 2,48,49
 292 229 292 229 289.5 243 c 128,-1,50
 287 257 287 257 280.5 267.5 c 128,-1,51
 274 278 274 278 263.5 288.5 c 128,-1,52
 253 299 253 299 237 315 c 1,53,54
 251 319 251 319 264 330.5 c 128,-1,55
 277 342 277 342 287 358.5 c 128,-1,56
 297 375 297 375 302.5 394 c 128,-1,57
 308 413 308 413 307 431 c 1,58,-1
 345 431 l 1,59,60
 345 421 345 421 342 405.5 c 128,-1,61
 339 390 339 390 331.5 373.5 c 128,-1,62
 324 357 324 357 310 341 c 128,-1,63
 296 325 296 325 273 313 c 1,64,65
 285 303 285 303 293.5 294.5 c 128,-1,66
 302 286 302 286 308 277 c 128,-1,67
 314 268 314 268 317.5 256.5 c 128,-1,68
 321 245 321 245 323 228 c 1,0,1
82 336 m 0,69,70
 80 327 80 327 79 316.5 c 128,-1,71
 78 306 78 306 79.5 296 c 128,-1,72
 81 286 81 286 84.5 278.5 c 128,-1,73
 88 271 88 271 95 268 c 0,74,75
 102 266 102 266 109 271 c 128,-1,76
 116 276 116 276 121.5 284 c 128,-1,77
 127 292 127 292 131.5 302 c 128,-1,78
 136 312 136 312 139 321 c 0,79,80
 141 330 141 330 141.5 340.5 c 128,-1,81
 142 351 142 351 140.5 361 c 128,-1,82
 139 371 139 371 135.5 378.5 c 128,-1,83
 132 386 132 386 125 389 c 0,84,85
 118 391 118 391 111.5 386 c 128,-1,86
 105 381 105 381 99 373 c 128,-1,87
 93 365 93 365 89 355 c 128,-1,88
 85 345 85 345 82 336 c 0,69,70
EndSplineSet
EndChar
StartChar: uni0E0C
Encoding: 3596 3596 223
Width: 633
Flags: W
Fore
568 396 m 1,0,-1
 568 110 l 2,1,2
 568 53 568 53 540.5 25.5 c 128,-1,3
 513 -2 513 -2 462 -2 c 0,4,5
 444 -2 444 -2 428.5 5 c 128,-1,6
 413 12 413 12 400 22 c 128,-1,7
 387 32 387 32 377.5 42.5 c 128,-1,8
 368 53 368 53 363 60 c 1,9,10
 359 34 359 34 345 17 c 128,-1,11
 331 0 331 0 312 0 c 0,12,13
 290 0 290 0 275 23 c 128,-1,14
 260 46 260 46 260 79 c 0,15,16
 260 111 260 111 275 133.5 c 128,-1,17
 290 156 290 156 312 156 c 0,18,19
 321 156 321 156 328 152 c 1,20,-1
 328 169 l 1,21,-1
 326 225 l 2,22,23
 327 269 327 269 316.5 297 c 128,-1,24
 306 325 306 325 288 341 c 128,-1,25
 270 357 270 357 246.5 363.5 c 128,-1,26
 223 370 223 370 197.5 371.5 c 128,-1,27
 172 373 172 373 146 371 c 128,-1,28
 120 369 120 369 97 369 c 1,29,30
 98 367 98 367 105.5 361 c 128,-1,31
 113 355 113 355 121 348 c 128,-1,32
 129 341 129 341 135.5 335 c 128,-1,33
 142 329 142 329 142 328 c 2,34,-1
 142 297 l 1,35,36
 138 295 138 295 133.5 292.5 c 128,-1,37
 129 290 129 290 126 286 c 0,38,39
 111 270 111 270 104.5 250.5 c 128,-1,40
 98 231 98 231 98 207 c 2,41,-1
 98 135 l 1,42,43
 111 148 111 148 123 151 c 0,44,45
 132 154 132 154 144 152 c 0,46,47
 165 146 165 146 173.5 120 c 128,-1,48
 182 94 182 94 174 63 c 0,49,50
 168 39 168 39 154 22.5 c 128,-1,51
 140 6 140 6 123 1 c 0,52,53
 113 -2 113 -2 103 1 c 0,54,55
 88 5 88 5 79 20 c 128,-1,56
 70 35 70 35 69 56 c 1,57,-1
 68 56 l 1,58,-1
 68 179 l 2,59,60
 68 198 68 198 69.5 218 c 128,-1,61
 71 238 71 238 76.5 257 c 128,-1,62
 82 276 82 276 92.5 291.5 c 128,-1,63
 103 307 103 307 120 318 c 1,64,-1
 65 368 l 1,65,-1
 65 396 l 1,66,-1
 137 396 l 2,67,68
 181 396 181 396 221.5 394 c 128,-1,69
 262 392 262 392 292.5 376.5 c 128,-1,70
 323 361 323 361 341.5 325.5 c 128,-1,71
 360 290 360 290 360 223 c 2,72,-1
 360 121 l 2,73,74
 360 102 360 102 369 85.5 c 128,-1,75
 378 69 378 69 392.5 56.5 c 128,-1,76
 407 44 407 44 425.5 37 c 128,-1,77
 444 30 444 30 463 30 c 0,78,79
 509 30 509 30 524 54.5 c 128,-1,80
 539 79 539 79 539 133 c 2,81,-1
 539 396 l 1,82,-1
 568 396 l 1,0,-1
123 132 m 1,83,84
 114 125 114 125 106.5 110.5 c 128,-1,85
 99 96 99 96 96 84 c 0,86,87
 94 75 94 75 93 64.5 c 128,-1,88
 92 54 92 54 93 44 c 128,-1,89
 94 34 94 34 97.5 26.5 c 128,-1,90
 101 19 101 19 108 17 c 0,91,92
 116 15 116 15 123 21 c 0,93,94
 133 28 133 28 140.5 42.5 c 128,-1,95
 148 57 148 57 151 69 c 0,96,97
 153 77 153 77 154 87.5 c 128,-1,98
 155 98 155 98 153.5 108 c 128,-1,99
 152 118 152 118 148.5 125.5 c 128,-1,100
 145 133 145 133 138 135 c 0,101,102
 132 137 132 137 123 132 c 1,83,84
312 17 m 1,103,104
 319 18 319 18 324.5 24.5 c 128,-1,105
 330 31 330 31 333.5 40 c 128,-1,106
 337 49 337 49 339 59.5 c 128,-1,107
 341 70 341 70 341 79 c 0,108,109
 341 87 341 87 339.5 97.5 c 128,-1,110
 338 108 338 108 334.5 117.5 c 128,-1,111
 331 127 331 127 326 133 c 128,-1,112
 321 139 321 139 314 139 c 2,113,-1
 312 139 l 1,114,115
 305 138 305 138 300 131.5 c 128,-1,116
 295 125 295 125 291.5 116 c 128,-1,117
 288 107 288 107 286 97 c 128,-1,118
 284 87 284 87 284 79 c 0,119,120
 284 70 284 70 285.5 59 c 128,-1,121
 287 48 287 48 290.5 38.5 c 128,-1,122
 294 29 294 29 299 23 c 128,-1,123
 304 17 304 17 312 17 c 1,103,104
EndSplineSet
EndChar
StartChar: uni0E0D
Encoding: 3597 3597 224
Width: 619
Flags: W
Fore
553 400 m 1,0,-1
 553 183 l 2,1,2
 553 122 553 122 537.5 85.5 c 128,-1,3
 522 49 522 49 496 30 c 128,-1,4
 470 11 470 11 435 5 c 128,-1,5
 400 -1 400 -1 360 -1 c 1,6,-1
 360 -2 l 1,7,-1
 329 -2 l 1,8,-1
 326 227 l 2,9,10
 327 271 327 271 316.5 299.5 c 128,-1,11
 306 328 306 328 288 344 c 128,-1,12
 270 360 270 360 246.5 367 c 128,-1,13
 223 374 223 374 197.5 375 c 128,-1,14
 172 376 172 376 146 374 c 128,-1,15
 120 372 120 372 97 372 c 1,16,17
 98 370 98 370 105.5 364 c 128,-1,18
 113 358 113 358 121 351 c 128,-1,19
 129 344 129 344 135.5 338 c 128,-1,20
 141 333 141 333 142 332 c 1,21,-1
 142 301 l 1,22,23
 138 298 138 298 133.5 295 c 128,-1,24
 129 292 129 292 125 288 c 0,25,26
 98 258 98 258 98 210 c 2,27,-1
 98 135 l 1,28,29
 110 147 110 147 124 152 c 0,30,31
 134 155 134 155 144 153 c 0,32,33
 165 147 165 147 174 121 c 128,-1,34
 183 95 183 95 175 63 c 0,35,36
 168 39 168 39 154.5 22.5 c 128,-1,37
 141 6 141 6 124 1 c 0,38,39
 113 -2 113 -2 104 1 c 0,40,41
 87 6 87 6 77.5 24 c 128,-1,42
 68 42 68 42 70 66 c 1,43,-1
 69 64 l 1,44,-1
 69 182 l 2,45,46
 69 201 69 201 70.5 221 c 128,-1,47
 72 241 72 241 77.5 259.5 c 128,-1,48
 83 278 83 278 93 294 c 128,-1,49
 103 310 103 310 120 321 c 1,50,-1
 66 371 l 1,51,-1
 66 399 l 1,52,-1
 137 400 l 2,53,54
 182 400 182 400 222 398 c 128,-1,55
 262 396 262 396 293 380 c 128,-1,56
 324 364 324 364 342 328.5 c 128,-1,57
 360 293 360 293 360 226 c 2,58,-1
 360 23 l 1,59,60
 390 23 390 23 419 28.5 c 128,-1,61
 448 34 448 34 470.5 51 c 128,-1,62
 493 68 493 68 506.5 99.5 c 128,-1,63
 520 131 520 131 519 182 c 2,64,-1
 519 400 l 1,65,-1
 553 400 l 1,0,-1
124 133 m 0,66,67
 114 126 114 126 107 111.5 c 128,-1,68
 100 97 100 97 97 84 c 0,69,70
 95 75 95 75 94 64.5 c 128,-1,71
 93 54 93 54 94 44 c 128,-1,72
 95 34 95 34 98.5 26.5 c 128,-1,73
 102 19 102 19 109 17 c 0,74,75
 117 15 117 15 124 21 c 0,76,77
 133 28 133 28 140.5 42.5 c 128,-1,78
 148 57 148 57 152 69 c 0,79,80
 154 78 154 78 155 88.5 c 128,-1,81
 156 99 156 99 154.5 109 c 128,-1,82
 153 119 153 119 149.5 126.5 c 128,-1,83
 146 134 146 134 139 136 c 0,84,85
 133 138 133 138 124 133 c 0,66,67
462 -89 m 1,86,87
 482 -78 482 -78 494.5 -65.5 c 128,-1,88
 507 -53 507 -53 518 -33 c 1,89,-1
 553 -33 l 1,90,91
 524 -81 524 -81 482 -109.5 c 128,-1,92
 440 -138 440 -138 391 -131 c 0,93,94
 372 -130 372 -130 357 -121 c 2,95,96
 354 -120 354 -120 350 -118 c 1,97,-1
 351 -117 l 1,98,99
 334 -105 334 -105 334 -88 c 256,100,101
 334 -71 334 -71 352.5 -58.5 c 128,-1,102
 371 -46 371 -46 398 -46 c 0,103,104
 424 -46 424 -46 443 -58.5 c 128,-1,105
 462 -71 462 -71 462 -88 c 2,106,-1
 462 -89 l 1,86,87
443 -88 m 0,107,108
 443 -82 443 -82 438.5 -78 c 128,-1,109
 434 -74 434 -74 427 -71.5 c 128,-1,110
 420 -69 420 -69 412 -68 c 128,-1,111
 404 -67 404 -67 398 -67 c 0,112,113
 384 -67 384 -67 368.5 -72.5 c 128,-1,114
 353 -78 353 -78 352 -89 c 0,115,116
 352 -100 352 -100 368 -105 c 128,-1,117
 384 -110 384 -110 398 -110 c 0,118,119
 411 -110 411 -110 426.5 -104.5 c 128,-1,120
 442 -99 442 -99 443 -88 c 0,107,108
EndSplineSet
Substitution: 0 65534 'L026' uni0E0D.alt1
Substitution: 0 65534 'L026' uni0E0D.alt1
EndChar
StartChar: uni0E0E
Encoding: 3598 3598 225
Width: 448
Flags: W
Fore
163 399 m 2,0,1
 207 399 207 399 247.5 397 c 128,-1,2
 288 395 288 395 318.5 379 c 128,-1,3
 349 363 349 363 367.5 327.5 c 128,-1,4
 386 292 386 292 386 225 c 2,5,-1
 385 -169 l 1,6,-1
 354 -169 l 1,7,-1
 354 -166 l 1,8,9
 344 -152 344 -152 321.5 -137 c 128,-1,10
 299 -122 299 -122 272 -111 c 1,11,12
 255 -138 255 -138 224 -151 c 0,13,14
 221 -152 221 -152 219 -152 c 2,15,16
 205 -157 205 -157 189 -158 c 2,17,18
 186 -159 186 -159 181 -159 c 0,19,20
 150 -159 150 -159 128 -146 c 128,-1,21
 106 -133 106 -133 106 -114 c 0,22,23
 106 -96 106 -96 128 -83 c 1,24,-1
 129 -83 l 1,25,26
 150 -70 150 -70 180 -70 c 0,27,28
 217 -67 217 -67 260 -80 c 1,29,30
 263 -69 263 -69 264.5 -58.5 c 128,-1,31
 266 -48 266 -48 267 -37 c 1,32,-1
 295 -37 l 1,33,34
 292 -64 292 -64 283 -88 c 1,35,36
 303 -96 303 -96 321 -106.5 c 128,-1,37
 339 -117 339 -117 354 -131 c 1,38,-1
 352 226 l 2,39,40
 353 293 353 293 330 324.5 c 128,-1,41
 307 356 307 356 272.5 366.5 c 128,-1,42
 238 377 238 377 197.5 374.5 c 128,-1,43
 157 372 157 372 123 371 c 1,44,45
 124 369 124 369 131.5 363 c 128,-1,46
 139 357 139 357 147 350 c 128,-1,47
 155 343 155 343 161.5 337 c 128,-1,48
 167 332 167 332 168 331 c 1,49,-1
 169 67 l 1,50,-1
 167 69 l 1,51,52
 169 44 169 44 160 25 c 128,-1,53
 151 6 151 6 134 1 c 0,54,55
 123 -2 123 -2 113 1 c 0,56,57
 97 6 97 6 83 22.5 c 128,-1,58
 69 39 69 39 62 63 c 0,59,60
 54 95 54 95 63 121 c 128,-1,61
 72 147 72 147 93 153 c 0,62,63
 105 155 105 155 113 152 c 0,64,65
 128 147 128 147 139 136 c 1,66,-1
 140 327 l 1,67,-1
 91 370 l 1,68,-1
 91 398 l 1,69,-1
 163 399 l 2,0,1
129 17 m 0,70,71
 136 19 136 19 139.5 26.5 c 128,-1,72
 143 34 143 34 144 44 c 128,-1,73
 145 54 145 54 144 64.5 c 128,-1,74
 143 75 143 75 141 84 c 0,75,76
 138 97 138 97 130.5 111.5 c 128,-1,77
 123 126 123 126 113 133 c 0,78,79
 106 139 106 139 99 136 c 0,80,81
 92 134 92 134 88 126.5 c 128,-1,82
 84 119 84 119 82.5 109 c 128,-1,83
 81 99 81 99 82 88.5 c 128,-1,84
 83 78 83 78 86 69 c 0,85,86
 89 57 89 57 96.5 42.5 c 128,-1,87
 104 28 104 28 113 21 c 0,88,89
 120 15 120 15 129 17 c 0,70,71
189 -140 m 2,90,91
 206 -138 206 -138 220 -129.5 c 128,-1,92
 234 -121 234 -121 242 -113 c 1,93,-1
 248 -104 l 1,94,95
 248 -103 248 -103 246 -101 c 1,96,97
 225 -94 225 -94 204.5 -90.5 c 128,-1,98
 184 -87 184 -87 167 -89 c 256,99,100
 150 -91 150 -91 139 -98 c 128,-1,101
 128 -105 128 -105 128 -114 c 0,102,103
 128 -125 128 -125 141 -132.5 c 128,-1,104
 154 -140 154 -140 181 -140 c 2,105,-1
 189 -140 l 2,90,91
EndSplineSet
Substitution: 0 65534 'L026' uni0E0E.alt1
Substitution: 0 65534 'L026' uni0E0E.alt1
EndChar
StartChar: uni0E0F
Encoding: 3599 3599 226
Width: 449
Flags: W
Fore
163 398 m 2,0,1
 207 398 207 398 247.5 396 c 128,-1,2
 288 394 288 394 318.5 378 c 128,-1,3
 349 362 349 362 367 327 c 128,-1,4
 385 292 385 292 385 225 c 2,5,-1
 385 -169 l 1,6,-1
 354 -169 l 1,7,-1
 297 -91 l 1,8,-1
 242 -169 l 1,9,10
 235 -158 235 -158 227 -147 c 128,-1,11
 219 -136 219 -136 210 -125 c 1,12,13
 196 -140 196 -140 178 -150 c 1,14,-1
 177 -150 l 1,15,16
 176 -151 176 -151 175.5 -151 c 128,-1,17
 175 -151 175 -151 174 -152 c 1,18,-1
 173 -152 l 1,19,20
 172 -153 172 -153 171 -153 c 2,21,-1
 170 -153 l 1,22,23
 157 -158 157 -158 144 -158 c 1,24,25
 143 -159 143 -159 139 -159 c 0,26,27
 112 -159 112 -159 93 -146 c 128,-1,28
 74 -133 74 -133 74 -114 c 0,29,30
 74 -104 74 -104 80 -96 c 128,-1,31
 86 -88 86 -88 96 -81 c 1,32,33
 98 -81 98 -81 99 -80 c 1,34,35
 103 -78 103 -78 107 -76.5 c 128,-1,36
 111 -75 111 -75 116 -73 c 1,37,-1
 117 -73 l 1,38,39
 122 -72 122 -72 126 -71.5 c 128,-1,40
 130 -71 130 -71 135 -71 c 0,41,42
 136 -71 136 -71 137 -70.5 c 128,-1,43
 138 -70 138 -70 139 -70 c 2,44,-1
 144 -70 l 2,45,46
 166 -71 166 -71 184 -83 c 2,47,48
 189 -85 189 -85 193 -88 c 128,-1,49
 197 -91 197 -91 202 -94 c 1,50,51
 208 -81 208 -81 210.5 -66.5 c 128,-1,52
 213 -52 213 -52 215 -38 c 1,53,-1
 243 -38 l 1,54,55
 240 -58 240 -58 235 -76 c 128,-1,56
 230 -94 230 -94 221 -109 c 1,57,58
 226 -114 226 -114 230.5 -119 c 128,-1,59
 235 -124 235 -124 240 -129 c 0,60,61
 242 -132 242 -132 242 -133 c 1,62,-1
 297 -57 l 1,63,-1
 354 -133 l 1,64,-1
 351 226 l 2,65,66
 352 292 352 292 329.5 323.5 c 128,-1,67
 307 355 307 355 272.5 365.5 c 128,-1,68
 238 376 238 376 197.5 373.5 c 128,-1,69
 157 371 157 371 123 370 c 1,70,71
 124 368 124 368 130.5 362 c 128,-1,72
 137 356 137 356 144 349 c 128,-1,73
 151 342 151 342 156.5 336 c 128,-1,74
 161 331 161 331 162 330 c 1,75,-1
 163 75 l 1,76,77
 167 48 167 48 158 27 c 128,-1,78
 149 6 149 6 130 1 c 0,79,80
 119 -2 119 -2 109 1 c 0,81,82
 93 6 93 6 79 22.5 c 128,-1,83
 65 39 65 39 59 63 c 0,84,85
 51 94 51 94 60 120 c 128,-1,86
 69 146 69 146 89 152 c 0,87,88
 101 154 101 154 109 151 c 0,89,90
 124 147 124 147 136 132 c 1,91,-1
 136 326 l 1,92,-1
 91 369 l 1,93,-1
 91 397 l 1,94,-1
 163 398 l 2,0,1
125 17 m 0,95,96
 132 19 132 19 135.5 26.5 c 128,-1,97
 139 34 139 34 140 44 c 128,-1,98
 141 54 141 54 140 64.5 c 128,-1,99
 139 75 139 75 137 84 c 0,100,101
 134 97 134 97 126.5 111 c 128,-1,102
 119 125 119 125 109 132 c 0,103,104
 102 138 102 138 95 135 c 0,105,106
 88 133 88 133 84 125.5 c 128,-1,107
 80 118 80 118 79 108.5 c 128,-1,108
 78 99 78 99 79 88.5 c 128,-1,109
 80 78 80 78 82 69 c 0,110,111
 85 57 85 57 92.5 42.5 c 128,-1,112
 100 28 100 28 109 21 c 0,113,114
 116 15 116 15 125 17 c 0,95,96
137 -142 m 0,115,116
 142 -142 142 -142 144 -141 c 2,117,118
 153 -139 153 -139 162 -135 c 128,-1,119
 171 -131 171 -131 179 -126 c 1,120,-1
 181 -124 l 1,121,122
 189 -118 189 -118 194 -110 c 1,123,124
 186 -104 l 128,-1,125
 178 -98 l 1,126,127
 170 -95 170 -95 161 -92 c 128,-1,128
 152 -89 152 -89 144 -87 c 1,129,-1
 137 -87 l 2,130,131
 120 -87 120 -87 107.5 -95 c 128,-1,132
 95 -103 95 -103 95 -114 c 0,133,134
 95 -126 95 -126 107.5 -134 c 128,-1,135
 120 -142 120 -142 137 -142 c 0,115,116
EndSplineSet
Substitution: 0 65534 'L026' uni0E0F.alt1
Substitution: 0 65534 'L026' uni0E0F.alt1
EndChar
StartChar: uni0E10
Encoding: 3600 3600 227
Width: 403
Flags: W
Fore
307 204 m 0,0,1
 307 216 307 216 293.5 226 c 128,-1,2
 280 236 280 236 258.5 244 c 128,-1,3
 237 252 237 252 210.5 259.5 c 128,-1,4
 184 267 184 267 159.5 274.5 c 128,-1,5
 135 282 135 282 114.5 291 c 128,-1,6
 94 300 94 300 84 311 c 0,7,8
 75 321 75 321 74.5 330.5 c 128,-1,9
 74 340 74 340 78.5 349 c 128,-1,10
 83 358 83 358 90.5 365.5 c 128,-1,11
 98 373 98 373 106 379 c 0,12,13
 124 391 124 391 156.5 395.5 c 128,-1,14
 189 400 189 400 224.5 399.5 c 128,-1,15
 260 399 260 399 293.5 394.5 c 128,-1,16
 327 390 327 390 348 385 c 1,17,-1
 353 355 l 1,18,19
 336 361 336 361 303 366.5 c 128,-1,20
 270 372 270 372 234 374 c 128,-1,21
 198 376 198 376 165.5 373 c 128,-1,22
 133 370 133 370 117 358 c 0,23,24
 97 342 97 342 105 330 c 128,-1,25
 113 318 113 318 137.5 308 c 128,-1,26
 162 298 162 298 195.5 288.5 c 128,-1,27
 229 279 229 279 260 268 c 128,-1,28
 291 257 291 257 313 243 c 128,-1,29
 335 229 335 229 336 211 c 0,30,31
 337 191 337 191 337.5 160.5 c 128,-1,32
 338 130 338 130 338 106 c 0,33,34
 336 89 336 89 332 73 c 0,35,36
 327 59 327 59 319 44.5 c 128,-1,37
 311 30 311 30 294 21 c 0,38,39
 283 14 283 14 270 10 c 128,-1,40
 257 6 257 6 243 1 c 1,41,-1
 213 1 l 1,42,43
 213 16 213 16 214 37 c 128,-1,44
 215 58 215 58 216 78 c 1,45,46
 208 69 208 69 198 66 c 0,47,48
 186 64 186 64 177 67 c 0,49,50
 161 72 161 72 147 88.5 c 128,-1,51
 133 105 133 105 126 129 c 0,52,53
 118 161 118 161 127 186.5 c 128,-1,54
 136 212 136 212 157 217 c 0,55,56
 168 220 168 220 177 217 c 0,57,58
 195 212 195 212 208 196 c 0,59,60
 228 173 228 173 235.5 138 c 128,-1,61
 243 103 243 103 243 71 c 2,62,-1
 243 34 l 1,63,64
 271 43 271 43 289.5 63 c 128,-1,65
 308 83 308 83 307 106 c 0,66,67
 306 126 306 126 306.5 155 c 128,-1,68
 307 184 307 184 307 204 c 0,0,1
193 83 m 0,69,70
 199 85 199 85 202.5 92.5 c 128,-1,71
 206 100 206 100 207 110 c 128,-1,72
 208 120 208 120 207.5 130.5 c 128,-1,73
 207 141 207 141 205 150 c 0,74,75
 202 162 202 162 194.5 176 c 128,-1,76
 187 190 187 190 177 198 c 0,77,78
 170 204 170 204 163 201 c 0,79,80
 156 199 156 199 152 191.5 c 128,-1,81
 148 184 148 184 147 174.5 c 128,-1,82
 146 165 146 165 147 154.5 c 128,-1,83
 148 144 148 144 150 135 c 0,84,85
 153 123 153 123 160.5 108.5 c 128,-1,86
 168 94 168 94 177 87 c 256,87,88
 186 80 186 80 193 83 c 0,69,70
337 -56 m 1,89,-1
 337 -169 l 1,90,-1
 309 -169 l 1,91,-1
 257 -136 l 1,92,-1
 207 -169 l 1,93,94
 201 -158 201 -158 193.5 -148.5 c 128,-1,95
 186 -139 186 -139 178 -129 c 1,96,97
 167 -143 167 -143 146 -154 c 0,98,99
 144 -155 144 -155 142 -155 c 1,100,101
 137 -157 137 -157 131.5 -158 c 128,-1,102
 126 -159 126 -159 120 -159 c 1,103,104
 118 -160 118 -160 114 -160 c 0,105,106
 90 -160 90 -160 73 -148 c 128,-1,107
 56 -136 56 -136 56 -119 c 0,108,109
 56 -105 56 -105 68 -95 c 128,-1,110
 80 -85 80 -85 98 -82 c 0,111,112
 108 -80 108 -80 113 -80 c 2,113,-1
 114 -80 l 1,114,-1
 120 -80 l 2,115,116
 139 -82 139 -82 152 -89 c 0,117,118
 157 -91 157 -91 162 -94 c 128,-1,119
 167 -97 167 -97 172 -101 c 1,120,121
 178 -91 178 -91 180 -83.5 c 128,-1,122
 182 -76 182 -76 183 -68 c 1,123,-1
 207 -68 l 1,124,125
 205 -83 205 -83 200.5 -92 c 128,-1,126
 196 -101 196 -101 188 -115 c 1,127,128
 192 -119 192 -119 196 -123.5 c 128,-1,129
 200 -128 200 -128 204 -133 c 1,130,131
 206 -134 206 -134 208.5 -138 c 128,-1,132
 211 -142 211 -142 212 -143 c 1,133,-1
 257 -116 l 1,134,-1
 314 -150 l 1,135,-1
 314 -90 l 1,136,137
 305 -94 305 -94 289 -94 c 0,138,139
 269 -94 269 -94 254.5 -85 c 128,-1,140
 240 -76 240 -76 240 -62 c 256,141,142
 240 -48 240 -48 254.5 -38.5 c 128,-1,143
 269 -29 269 -29 289 -29 c 0,144,145
 307 -29 307 -29 320.5 -36.5 c 128,-1,146
 334 -44 334 -44 337 -57 c 1,147,-1
 337 -56 l 1,89,-1
155 -127 m 0,148,149
 158 -124 158 -124 164 -116 c 1,150,151
 158 -110 158 -110 148 -105 c 0,152,153
 142 -102 142 -102 135 -99.5 c 128,-1,154
 128 -97 128 -97 120 -95 c 1,155,-1
 113 -95 l 2,156,157
 97 -95 97 -95 86 -102 c 128,-1,158
 75 -109 75 -109 75 -119 c 0,159,160
 75 -130 75 -130 86 -137.5 c 128,-1,161
 97 -145 97 -145 113 -145 c 0,162,163
 117 -145 117 -145 120 -144 c 0,164,165
 129 -142 129 -142 138.5 -137 c 128,-1,166
 148 -132 148 -132 155 -127 c 0,148,149
323 -61 m 0,167,168
 324 -53 324 -53 311.5 -49.5 c 128,-1,169
 299 -46 299 -46 289 -46 c 0,170,171
 278 -46 278 -46 266.5 -50 c 128,-1,172
 255 -54 255 -54 255 -62 c 0,173,174
 254 -70 254 -70 266 -73.5 c 128,-1,175
 278 -77 278 -77 289 -77 c 0,176,177
 299 -77 299 -77 311 -73 c 128,-1,178
 323 -69 323 -69 323 -61 c 0,167,168
EndSplineSet
Substitution: 0 65534 'L026' uni0E10.alt1
Substitution: 0 65534 'L026' uni0E10.alt1
EndChar
StartChar: uni0E11
Encoding: 3601 3601 228
Width: 572
Flags: W
Fore
234 227 m 1,0,1
 243 263 243 263 256.5 294.5 c 128,-1,2
 270 326 270 326 289 349.5 c 128,-1,3
 308 373 308 373 332.5 386 c 128,-1,4
 357 399 357 399 388 399 c 0,5,6
 440 398 440 398 473.5 369.5 c 128,-1,7
 507 341 507 341 507 281 c 2,8,-1
 507 0 l 1,9,-1
 477 0 l 1,10,-1
 477 263 l 2,11,12
 477 368 477 368 385 368 c 0,13,14
 355 368 355 368 332 354 c 128,-1,15
 309 340 309 340 292.5 317 c 128,-1,16
 276 294 276 294 264.5 265 c 128,-1,17
 253 236 253 236 246.5 205.5 c 128,-1,18
 240 175 240 175 237 145.5 c 128,-1,19
 234 116 234 116 234 93 c 2,20,-1
 234 0 l 1,21,-1
 205 0 l 1,22,-1
 205 246 l 2,23,24
 205 269 205 269 196 293.5 c 128,-1,25
 187 318 187 318 169 335 c 1,26,-1
 166 341 l 1,27,28
 167 333 167 333 165.5 324 c 128,-1,29
 164 315 164 315 162 306 c 0,30,31
 154 274 154 274 132.5 256 c 128,-1,32
 111 238 111 238 90 243 c 256,33,34
 69 248 69 248 60 274.5 c 128,-1,35
 51 301 51 301 59 333 c 256,36,37
 67 365 67 365 88 383.5 c 128,-1,38
 109 402 109 402 131 397 c 0,39,40
 146 392 146 392 154 380 c 1,41,42
 167 371 167 371 177 361 c 128,-1,43
 187 351 187 351 192 343 c 1,44,-1
 183 398 l 1,45,-1
 202 398 l 1,46,47
 209 387 209 387 215 371.5 c 128,-1,48
 221 356 221 356 225.5 340 c 128,-1,49
 230 324 230 324 232.5 308.5 c 128,-1,50
 235 293 235 293 234 281 c 2,51,-1
 234 227 l 1,0,1
83 327 m 0,52,53
 81 319 81 319 80 308 c 128,-1,54
 79 297 79 297 80 287.5 c 128,-1,55
 81 278 81 278 84.5 270 c 128,-1,56
 88 262 88 262 95 260 c 256,57,58
 102 258 102 258 108.5 262.5 c 128,-1,59
 115 267 115 267 121 275 c 128,-1,60
 127 283 127 283 131.5 293 c 128,-1,61
 136 303 136 303 138 312 c 0,62,63
 141 321 141 321 142 331.5 c 128,-1,64
 143 342 143 342 141.5 352 c 128,-1,65
 140 362 140 362 136 370 c 128,-1,66
 132 378 132 378 125 380 c 256,67,68
 118 382 118 382 111.5 377.5 c 128,-1,69
 105 373 105 373 99.5 364.5 c 128,-1,70
 94 356 94 356 89.5 346 c 128,-1,71
 85 336 85 336 83 327 c 0,52,53
EndSplineSet
EndChar
